<svg width="45" height="13" viewBox="0 0 45 13" fill="none" xmlns="http://www.w3.org/2000/svg">
<path d="M9.07661 1.645C7.72278 3.3343 5.93275 4.67156 3.87563 5.53047L3.85979 5.54287C3.78323 5.45112 3.70139 5.36434 3.6169 5.28003C3.50303 5.15431 3.36045 5.0543 3.19977 4.98744C3.04427 4.94507 2.87848 4.95008 2.72621 5.00176C2.57394 5.05344 2.44303 5.14913 2.3523 5.27507C2.26599 5.40361 2.21022 5.54812 2.1888 5.69875C2.16739 5.84938 2.18083 6.00258 2.22822 6.14788C2.32592 6.43834 2.49194 6.70443 2.71399 6.92646C2.83962 7.07301 2.99371 7.19586 3.16809 7.28848C3.25308 7.33373 3.34686 7.36253 3.4439 7.37318C3.54094 7.38382 3.63926 7.3761 3.73307 7.35046C3.65386 8.2679 3.53418 9.17707 3.37402 10.078C3.37547 10.0837 3.37547 10.0896 3.37402 10.0953C3.24451 10.1212 3.12793 10.187 3.04279 10.2823C2.95765 10.3775 2.90883 10.4967 2.90408 10.621C2.90539 10.7565 2.93848 10.8901 3.001 11.0122C3.06351 11.1344 3.15391 11.2421 3.26577 11.3277C3.08592 11.3905 2.93337 11.5076 2.83207 11.6606C2.73076 11.8136 2.68645 11.9939 2.70607 12.1732C2.71605 12.2597 2.7429 12.3438 2.78528 12.4212C2.52332 12.4137 2.26637 12.3519 2.03285 12.2402C1.58403 12.017 1.27514 11.4715 1.50483 11.04C0.807847 10.7375 0.129344 10.2342 0.0158198 9.53C-0.0686631 8.98697 0.197986 8.45387 0.512157 7.99515C0.826328 7.53643 1.19858 7.09507 1.36491 6.57188C1.56291 5.95943 1.45467 5.30235 1.48107 4.66262C1.51821 3.86328 1.76185 3.08443 2.19098 2.39326C2.62012 1.70209 3.22185 1.11936 3.94427 0.695327C4.67554 0.286525 5.50146 0.0504065 6.35122 0.00722003C7.20097 -0.0359665 8.0492 0.115068 8.82316 0.447371C9.21912 0.613389 9.57758 0.849055 9.8792 1.14165C10.5181 1.79129 10.7108 2.71865 10.7557 3.59889C10.8178 4.44004 10.7285 5.28499 10.4917 6.09829H10.4732C10.4035 4.54427 9.93915 3.02843 9.11885 1.67723L9.07661 1.645Z" fill="#090E3F"/>
<path d="M8.71234 10.1028C8.61466 10.1251 8.50905 10.1028 8.41401 10.1251L8.43777 10.0953C8.88818 10.0045 9.28958 9.76637 9.57037 9.42337C9.86878 9.04856 10.0834 8.62095 10.2014 8.16624C10.2703 7.93801 10.3249 7.70618 10.365 7.47196C10.8667 8.11169 11.3604 8.79605 11.4475 9.58455C11.4809 9.90013 11.4464 10.2188 11.3462 10.5216C11.246 10.8245 11.082 11.1053 10.864 11.3475C10.6404 11.609 10.333 11.7959 9.9875 11.8806C9.82204 11.5654 9.54072 11.317 9.19548 11.1814C9.32879 11.0964 9.42422 10.9684 9.46364 10.8216C9.50306 10.6749 9.48373 10.5197 9.40932 10.3854C9.33771 10.2772 9.23255 10.1921 9.10798 10.1416C8.9834 10.091 8.84534 10.0775 8.71234 10.1028V10.1028Z" fill="#090E3F"/>
<path d="M10.365 7.47444C10.3249 7.70866 10.2703 7.94048 10.2014 8.16872C10.0831 8.62256 9.86846 9.0493 9.57037 9.42338C9.2821 9.77683 8.87107 10.0242 8.40873 10.1226V10.1226C8.1896 10.1697 8.02856 10.0656 7.80415 10.0358C6.86795 9.87558 5.95152 9.62635 5.06902 9.29196C5.08581 9.66422 5.17998 10.0298 5.34623 10.3681C4.69807 10.349 4.05386 10.2659 3.42424 10.1201L3.37144 10.1053C3.53336 9.19774 3.65305 8.28856 3.73049 7.37774C3.63517 7.399 3.53627 7.40205 3.43967 7.38671C3.34307 7.37138 3.25074 7.33797 3.16815 7.28847C2.99472 7.1956 2.84155 7.07277 2.7167 6.92646C2.49465 6.70443 2.32862 6.43834 2.23092 6.14788C2.18354 6.00258 2.17009 5.84938 2.19151 5.69875C2.21292 5.54812 2.26869 5.40361 2.355 5.27507C2.44573 5.14913 2.57664 5.05344 2.72891 5.00176C2.88118 4.95008 3.04698 4.94507 3.20247 4.98744C3.36316 5.0543 3.50573 5.15431 3.61961 5.28003C3.70409 5.36434 3.78593 5.45112 3.8625 5.54287L3.87834 5.53047C5.9345 4.67121 7.72358 3.33397 9.07667 1.645L9.11892 1.67723C9.93656 3.02739 10.3991 4.54141 10.468 6.09333C10.48 6.55572 10.4455 7.01814 10.365 7.47444V7.47444Z" fill="#FFC33E"/>
<path d="M9.9875 11.8831C10.0738 12.0251 10.1002 12.1923 10.0614 12.3517C10.051 12.3845 10.035 12.4155 10.0139 12.4435C8.62786 12.9642 7.07548 13.0411 5.57327 12.984C4.67966 12.9717 3.7918 12.8474 2.93318 12.6146C2.87001 12.5545 2.81664 12.486 2.77478 12.4112C2.7324 12.3339 2.70555 12.2498 2.69557 12.1633C2.67595 11.984 2.72026 11.8037 2.82157 11.6507C2.92287 11.4976 3.07542 11.3805 3.25527 11.3178C3.1467 11.2323 3.0591 11.1257 2.99849 11.0055C2.93788 10.8852 2.9057 10.7541 2.90414 10.621C2.91144 10.4996 2.96078 10.3837 3.04466 10.2911C3.12854 10.1984 3.24236 10.134 3.3688 10.1077H3.43216C4.06178 10.2535 4.70599 10.3366 5.35414 10.3557C6.38182 10.3868 7.40981 10.3036 8.41665 10.1077C8.51169 10.0904 8.6173 10.1077 8.71498 10.0854C8.84945 10.0587 8.98941 10.0718 9.11563 10.1229C9.24185 10.174 9.34814 10.2605 9.41988 10.3706C9.49429 10.5048 9.51362 10.66 9.4742 10.8067C9.43478 10.9535 9.33935 11.0815 9.20604 11.1665C9.55048 11.3084 9.82823 11.5631 9.9875 11.8831V11.8831Z" fill="#7D57C9"/>
<path d="M7.89919 7.50916C8.00201 7.30268 8.18258 7.13927 8.40609 7.05044C8.57272 7.02018 8.74537 7.04611 8.89364 7.12368C9.04191 7.20124 9.15627 7.32545 9.2166 7.47444C9.27052 7.62545 9.28667 7.7861 9.26377 7.94392C9.24088 8.10174 9.17957 8.25248 9.08459 8.38444C9.0404 8.45191 8.9891 8.51505 8.93147 8.57289C8.84109 8.49286 8.77464 8.39198 8.73874 8.2803C8.65587 8.11071 8.53042 7.96255 8.37315 7.84853C8.21588 7.73451 8.0315 7.65804 7.83583 7.62569C7.8543 7.58563 7.87547 7.5467 7.89919 7.50916V7.50916Z" fill="#252849"/>
<path d="M8.73874 8.2803C8.77463 8.39198 8.84109 8.49286 8.93147 8.57289C8.8192 8.68983 8.67492 8.7756 8.51433 8.82084C8.39382 8.85575 8.26498 8.85624 8.14418 8.82225C8.02337 8.78826 7.91605 8.72131 7.83583 8.62992C7.7635 8.52865 7.71989 8.41173 7.7091 8.29022C7.68409 8.06033 7.72798 7.82844 7.83583 7.62074C8.03203 7.65358 8.21676 7.7308 8.37407 7.84572C8.53139 7.96063 8.65654 8.10978 8.73874 8.2803V8.2803Z" fill="#A02758"/>
<path d="M8.40873 10.1251C7.40189 10.3209 6.3739 10.4042 5.34622 10.373C5.17998 10.0347 5.08581 9.66917 5.06902 9.29692C5.95152 9.6313 6.86795 9.88054 7.80415 10.0408L8.40873 10.1276V10.1251Z" fill="#FF9E10"/>
<path d="M6.8986 4.53616L6.53426 4.28821C6.49827 4.26964 6.45608 4.2647 6.41634 4.27438C6.37659 4.28405 6.34227 4.30763 6.32042 4.34028C6.30128 4.37421 6.29636 4.41364 6.30662 4.45081C6.31688 4.48798 6.34158 4.52019 6.37586 4.54112L6.68211 4.75436L6.80091 4.83867C6.62139 4.96513 6.43658 5.08663 6.25177 5.2106C6.21769 5.23108 6.19306 5.26286 6.18279 5.29961C6.17252 5.33637 6.17735 5.37541 6.19633 5.40897C6.20669 5.42562 6.22045 5.44018 6.23682 5.45181C6.25319 5.46345 6.27185 5.47193 6.29173 5.47677C6.3116 5.48161 6.3323 5.48271 6.35262 5.48001C6.37295 5.47731 6.39251 5.47086 6.41018 5.46104L6.78243 5.21308L6.96196 5.09158C7.03776 5.05296 7.10078 4.99548 7.14412 4.92545C7.22597 4.73205 7.02532 4.62543 6.8986 4.53616Z" fill="#090E3F"/>
<path d="M10.0561 4.69486L9.76838 4.6527L9.67597 4.63783L9.74725 4.52377L9.89774 4.28821C9.91727 4.25411 9.92213 4.21428 9.91133 4.17691C9.90052 4.13955 9.87487 4.1075 9.83966 4.08737C9.80375 4.06916 9.76174 4.06466 9.7224 4.07483C9.68305 4.08499 9.6494 4.10902 9.62845 4.14192L9.45684 4.41467L9.36972 4.55104C9.32454 4.60531 9.302 4.6732 9.30636 4.74197C9.33012 4.89818 9.50701 4.90562 9.63637 4.92298L9.97166 4.97505C10.0094 4.98038 10.0478 4.97254 10.0798 4.95301C10.1118 4.93348 10.135 4.90362 10.1451 4.86909C10.1552 4.83455 10.1514 4.79775 10.1345 4.76563C10.1177 4.73352 10.0888 4.70834 10.0535 4.69486H10.0561Z" fill="#090E3F"/>
<path d="M10.3888 3.60633C10.3091 3.51164 10.1989 3.44378 10.0746 3.41292C9.86256 3.34327 9.63074 3.34855 9.42252 3.4278C9.29052 3.47987 9.15852 3.55674 9.13739 3.70799C9.13457 3.74129 9.14002 3.77474 9.1533 3.80572C9.16659 3.8367 9.18735 3.86436 9.21396 3.88652C9.24613 3.9117 9.28421 3.92932 9.32507 3.93794C9.36593 3.94657 9.40838 3.94594 9.44893 3.93611C9.50965 3.93611 9.57037 3.90636 9.63109 3.89396H9.66013H9.69445H9.79478C9.8551 3.89391 9.91526 3.89973 9.9743 3.91132C10.0408 3.92373 10.1061 3.94114 10.1697 3.96339C10.1893 3.96864 10.2098 3.97016 10.23 3.96787C10.2502 3.96559 10.2698 3.95953 10.2875 3.95006C10.3052 3.9406 10.3207 3.92791 10.3331 3.91274C10.3455 3.89757 10.3546 3.88023 10.3598 3.86172C10.397 3.82987 10.4206 3.78628 10.4259 3.73921C10.4313 3.69214 10.4181 3.64486 10.3888 3.60633V3.60633Z" fill="#090E3F"/>
<path d="M6.15145 3.66584C6.2336 3.57371 6.3429 3.50643 6.46562 3.47243C6.67769 3.40277 6.90951 3.40806 7.11772 3.48731C7.25237 3.53938 7.39493 3.61625 7.40549 3.7675C7.40832 3.80079 7.40287 3.83425 7.38959 3.86523C7.3763 3.89621 7.35554 3.92387 7.32893 3.94603C7.29676 3.9712 7.25868 3.98883 7.21782 3.99745C7.17696 4.00608 7.13451 4.00545 7.09396 3.99562C7.03324 3.99562 6.97516 3.96587 6.9118 3.95347H6.88276H6.83524H6.73491C6.67467 3.95465 6.61462 3.96046 6.55539 3.97082C6.48882 3.98408 6.42349 4.00232 6.36002 4.02538C6.32047 4.03529 6.27835 4.03018 6.24278 4.01115C6.20721 3.99213 6.18104 3.96072 6.16993 3.92371V3.92371C6.13503 3.88965 6.11404 3.84511 6.11066 3.79794C6.10728 3.75077 6.12172 3.70399 6.15145 3.66584V3.66584Z" fill="#090E3F"/>
<path d="M10.6317 6.69586L9.46213 7.34055C9.43451 7.36295 9.41614 7.39375 9.41023 7.42757C9.40432 7.46139 9.41124 7.49608 9.42978 7.5256C9.44833 7.55512 9.47732 7.57759 9.51169 7.58908C9.54607 7.60058 9.58366 7.60037 9.61789 7.5885L10.7875 6.94382C10.8151 6.92141 10.8334 6.89062 10.8393 6.85679C10.8453 6.82297 10.8383 6.78828 10.8198 6.75876C10.8013 6.72924 10.7723 6.70677 10.7379 6.69528C10.7035 6.68378 10.6659 6.68399 10.6317 6.69586V6.69586Z" fill="#8D3FD0"/>
<path d="M10.6554 7.85133L9.76838 7.83894C9.72776 7.83894 9.68882 7.85409 9.6601 7.88106C9.63138 7.90803 9.61525 7.94461 9.61525 7.98275C9.6159 8.02093 9.63217 8.05742 9.66067 8.08465C9.68918 8.11188 9.72774 8.12778 9.76838 8.12904H10.6607C10.6809 8.12938 10.701 8.12589 10.7197 8.11878C10.7385 8.11167 10.7555 8.10109 10.7698 8.08767C10.7841 8.07425 10.7954 8.05826 10.8029 8.04066C10.8105 8.02306 10.8142 8.00421 10.8139 7.98523C10.8105 7.94819 10.7923 7.91373 10.7628 7.88886C10.7334 7.86399 10.695 7.85057 10.6554 7.85133V7.85133Z" fill="#8D3FD0"/>
<path d="M10.1406 8.90515L9.58621 8.4985C9.5557 8.4726 9.51642 8.45767 9.47532 8.45635C9.43472 8.45636 9.39578 8.47153 9.36708 8.4985C9.33763 8.52521 9.32056 8.56173 9.31956 8.60016C9.31956 8.61964 9.32377 8.63891 9.33194 8.65681C9.34011 8.67471 9.35206 8.69087 9.36708 8.7043L9.9215 9.11095C9.95201 9.13685 9.99128 9.15178 10.0324 9.1531C10.0727 9.15185 10.1112 9.13687 10.1406 9.11095C10.1693 9.08294 10.1853 9.04565 10.1855 9.00681C10.1863 8.98782 10.1827 8.9689 10.1749 8.95135C10.1672 8.9338 10.1555 8.91804 10.1406 8.90515V8.90515Z" fill="#8D3FD0"/>
<path d="M11.5874 7.14466C11.5041 7.08022 11.4019 7.04128 11.2943 7.03308C11.206 7.02873 11.1186 7.0523 11.0462 7.10003C11.0007 7.12987 10.9628 7.16883 10.9353 7.21409C10.9204 7.24342 10.9089 7.27418 10.901 7.30583C10.901 7.30583 10.901 7.30583 10.901 7.31823C10.8749 7.4007 10.8834 7.4894 10.9247 7.56619C10.9654 7.63999 11.0289 7.7005 11.1069 7.73975C11.1819 7.77799 11.2647 7.80081 11.3498 7.8067C11.4363 7.814 11.523 7.79343 11.5954 7.74837C11.6679 7.70331 11.7218 7.63644 11.7484 7.55875C11.7658 7.48249 11.76 7.40316 11.7315 7.3299C11.703 7.25664 11.653 7.19243 11.5874 7.14466V7.14466Z" fill="#8D3FD0"/>
<path d="M11.2785 6.56196C11.241 6.56658 11.2066 6.58384 11.1817 6.61053C11.1567 6.63721 11.143 6.67151 11.143 6.70702C11.143 6.74253 11.1567 6.77682 11.1817 6.80351C11.2066 6.8302 11.241 6.84746 11.2785 6.85207C11.316 6.84746 11.3504 6.8302 11.3754 6.80351C11.4003 6.77682 11.414 6.74253 11.414 6.70702C11.414 6.67151 11.4003 6.63721 11.3754 6.61053C11.3504 6.58384 11.316 6.56658 11.2785 6.56196V6.56196Z" fill="#8D3FD0"/>
<path d="M11.8197 6.43303C11.8118 6.40848 11.7972 6.38627 11.7775 6.36856V6.35616C11.7647 6.34133 11.7471 6.33088 11.7273 6.32641C11.7095 6.31737 11.6894 6.31309 11.6692 6.31401C11.6482 6.31312 11.6273 6.3174 11.6085 6.32641C11.5891 6.33149 11.5716 6.34183 11.5584 6.35616L11.5346 6.38591C11.5208 6.40858 11.5136 6.43421 11.5135 6.4603V6.49749C11.5208 6.52175 11.5344 6.54391 11.5531 6.56196L11.5689 6.57436C11.5811 6.58862 11.5977 6.59901 11.6164 6.60412C11.6355 6.61235 11.6562 6.61661 11.6772 6.61661C11.6981 6.61661 11.7188 6.61235 11.7379 6.60412C11.7566 6.59901 11.7732 6.58862 11.7854 6.57436L11.8118 6.54461C11.8252 6.52271 11.8325 6.49796 11.8329 6.4727L11.8197 6.43303Z" fill="#8D3FD0"/>
<path d="M11.9913 6.79504C11.9846 6.77732 11.9738 6.76123 11.9597 6.74793C11.9455 6.73463 11.9284 6.72447 11.9095 6.71818C11.8917 6.70915 11.8716 6.70486 11.8514 6.70578H11.8092C11.7833 6.71261 11.7598 6.7254 11.7405 6.74297L11.7168 6.77273C11.703 6.7954 11.6957 6.82102 11.6956 6.84711V6.85951C11.6947 6.87927 11.6993 6.89893 11.7088 6.91654C11.7162 6.93364 11.7272 6.94909 11.7413 6.96191C11.7554 6.97472 11.7723 6.98461 11.7907 6.99093C11.8092 7.0008 11.8301 7.00593 11.8514 7.0058H11.891C11.9177 7.00096 11.9418 6.98787 11.9597 6.96861L11.9834 6.93886C11.998 6.91743 12.0054 6.89237 12.0045 6.86695V6.85455C12.0077 6.83388 12.003 6.81282 11.9913 6.79504V6.79504Z" fill="#8D3FD0"/>
<path d="M11.2838 8.58776C11.2681 8.53752 11.241 8.49102 11.2046 8.45139C11.163 8.41102 11.111 8.38154 11.0535 8.36588C10.9961 8.35023 10.9353 8.34893 10.8772 8.36212C10.8393 8.37307 10.8037 8.38982 10.7716 8.41171C10.7481 8.41893 10.7265 8.43077 10.7082 8.44643C10.6683 8.48587 10.6385 8.53337 10.6211 8.58528C10.6092 8.63843 10.6092 8.69331 10.6211 8.74646C10.6298 8.79348 10.65 8.83794 10.6803 8.87627C10.7106 8.91459 10.75 8.94572 10.7954 8.96714C10.8464 8.99049 10.9023 9.00317 10.9591 9.00433C11.0169 9.00229 11.0736 8.98877 11.1254 8.96466C11.1749 8.93963 11.2174 8.90394 11.2495 8.86051C11.2752 8.82683 11.2916 8.78761 11.297 8.74646C11.3058 8.69332 11.3013 8.63897 11.2838 8.58776Z" fill="#8D3FD0"/>
<path d="M11.5029 8.1836C11.4654 8.18821 11.431 8.20547 11.4061 8.23216C11.3811 8.25885 11.3674 8.29314 11.3674 8.32865C11.3674 8.36416 11.3811 8.39845 11.4061 8.42514C11.431 8.45183 11.4654 8.46909 11.5029 8.4737C11.5404 8.46909 11.5748 8.45183 11.5998 8.42514C11.6247 8.39845 11.6384 8.36416 11.6384 8.32865C11.6384 8.29314 11.6247 8.25885 11.5998 8.23216C11.5748 8.20547 11.5404 8.18821 11.5029 8.1836V8.1836Z" fill="#8D3FD0"/>
<path d="M10.5446 9.24237C10.5071 9.24698 10.4727 9.26424 10.4477 9.29093C10.4228 9.31762 10.409 9.35191 10.409 9.38742C10.409 9.42293 10.4228 9.45722 10.4477 9.48391C10.4727 9.5106 10.5071 9.52786 10.5446 9.53247C10.5821 9.52786 10.6165 9.5106 10.6414 9.48391C10.6663 9.45722 10.6801 9.42293 10.6801 9.38742C10.6801 9.35191 10.6663 9.31762 10.6414 9.29093C10.6165 9.26424 10.5821 9.24698 10.5446 9.24237V9.24237Z" fill="#8D3FD0"/>
<path d="M11.1148 9.35891C11.0735 9.35891 11.0339 9.37432 11.0047 9.40175C10.9755 9.42919 10.9591 9.4664 10.9591 9.5052C10.9591 9.544 10.9755 9.58121 11.0047 9.60865C11.0339 9.63608 11.0735 9.65149 11.1148 9.65149C11.1561 9.65149 11.1958 9.63608 11.225 9.60865C11.2542 9.58121 11.2706 9.544 11.2706 9.5052C11.2706 9.4664 11.2542 9.42919 11.225 9.40175C11.1958 9.37432 11.1561 9.35891 11.1148 9.35891V9.35891Z" fill="#8D3FD0"/>
<path d="M10.769 9.70108C10.7315 9.7057 10.6971 9.72296 10.6721 9.74965C10.6472 9.77634 10.6334 9.81063 10.6334 9.84614C10.6334 9.88165 10.6472 9.91594 10.6721 9.94263C10.6971 9.96932 10.7315 9.98658 10.769 9.99119C10.8065 9.98658 10.8409 9.96932 10.8658 9.94263C10.8908 9.91594 10.9045 9.88165 10.9045 9.84614C10.9045 9.81063 10.8908 9.77634 10.8658 9.74965C10.8409 9.72296 10.8065 9.7057 10.769 9.70108V9.70108Z" fill="#8D3FD0"/>
<path opacity="0.31" d="M8.7361 4.93041C8.1868 4.96885 7.67523 5.2073 7.31045 5.59494C7.27635 5.62902 7.25018 5.66939 7.23358 5.71349C7.21699 5.75758 7.21034 5.80444 7.21407 5.85108C7.21779 5.89771 7.2318 5.94311 7.25522 5.98439C7.27863 6.02567 7.31092 6.06192 7.35005 6.09085C7.407 6.12656 7.46929 6.15414 7.53486 6.17267C7.88071 6.29913 8.21336 6.01894 8.5513 5.89992C8.88923 5.7809 9.18492 5.95943 9.51757 5.82553C9.58263 5.79571 9.63926 5.75186 9.68285 5.69756C9.72644 5.64327 9.75574 5.58006 9.76838 5.51311C9.86606 4.99984 9.16644 4.88578 8.7361 4.93041Z" fill="#E23D69"/>
<path d="M8.36121 4.46426C8.27463 4.765 8.2602 5.08004 8.31897 5.38665C8.36649 5.63461 8.46417 5.99414 8.75986 6.07597C8.91563 6.11812 9.05291 6.04869 9.20604 6.05861C9.309 6.05861 9.41988 6.13052 9.40932 6.23962C9.39876 6.34872 9.243 6.41071 9.14531 6.44046C9.09244 6.46674 9.03353 6.48047 8.97371 6.48047C8.91389 6.48047 8.85498 6.46674 8.8021 6.44046C8.77043 6.41311 8.72897 6.39792 8.68594 6.39792C8.64291 6.39792 8.60145 6.41311 8.56977 6.44046C8.53946 6.46964 8.52249 6.5088 8.52249 6.54956C8.52249 6.59033 8.53946 6.62949 8.56977 6.65867C8.70457 6.74542 8.8653 6.78955 9.02862 6.78465C9.19195 6.77974 9.34935 6.72606 9.47797 6.63139C9.55401 6.59381 9.61808 6.53796 9.66364 6.46953C9.7092 6.4011 9.73462 6.32255 9.7373 6.24188C9.73998 6.16122 9.71984 6.08133 9.67892 6.01036C9.638 5.9394 9.57776 5.8799 9.50437 5.83793C9.35881 5.75733 9.18579 5.73247 9.02123 5.7685C8.95787 5.7685 8.87338 5.8057 8.8153 5.7685C8.77009 5.72618 8.73813 5.673 8.7229 5.61477C8.59127 5.27402 8.57468 4.90345 8.67538 4.55352C8.68693 4.51406 8.68132 4.47191 8.65978 4.43634C8.63825 4.40077 8.60255 4.37468 8.56053 4.36383C8.51852 4.35298 8.47364 4.35825 8.43577 4.37848C8.39789 4.39871 8.37012 4.43224 8.35857 4.4717L8.36121 4.46426Z" fill="#FF7900"/>
<path d="M2.87246 5.85281C2.91489 5.81365 2.96082 5.77798 3.00974 5.74619L3.08103 5.70652L3.11535 5.70404C3.11535 5.70404 3.17607 5.70404 3.13647 5.70404H3.16815C3.18135 5.70404 3.19983 5.70404 3.16815 5.70404C3.18042 5.70264 3.19283 5.70264 3.20511 5.70404C3.21831 5.70404 3.23679 5.71644 3.20511 5.70404C3.21837 5.71 3.23079 5.7175 3.24207 5.72635C3.22359 5.71148 3.24207 5.72635 3.24207 5.72635V5.71396V5.73875L3.28431 5.58998C3.0203 5.8057 2.69293 6.03134 2.71405 6.39583C2.71335 6.4843 2.74266 6.57067 2.79772 6.64244C2.85278 6.71422 2.93074 6.76766 3.0203 6.79504C3.06651 6.80546 3.11462 6.80598 3.16107 6.79657C3.20752 6.78716 3.25112 6.76805 3.28864 6.74067C3.32617 6.71329 3.35665 6.67833 3.37784 6.63838C3.39902 6.59843 3.41037 6.55452 3.41104 6.50989C3.40906 6.46929 3.39082 6.4309 3.35998 6.40239C3.32914 6.37388 3.28797 6.35737 3.24471 6.35616C3.2013 6.35616 3.15966 6.37236 3.12897 6.40119C3.09827 6.43002 3.08103 6.46912 3.08103 6.50989C3.08103 6.53221 3.08103 6.50989 3.08103 6.50989C3.08103 6.50989 3.08103 6.47766 3.08103 6.49254C3.08103 6.50741 3.08103 6.49254 3.08103 6.49254C3.08103 6.49254 3.09951 6.49254 3.08103 6.49254H3.09687C3.08535 6.48869 3.07527 6.4818 3.06782 6.4727C3.05148 6.44884 3.04151 6.42162 3.03878 6.39335C3.03546 6.34598 3.04358 6.29851 3.06254 6.2545C3.13647 6.07349 3.35295 5.94208 3.51136 5.8057C3.53195 5.78617 3.54688 5.76203 3.55474 5.73555C3.56259 5.70908 3.56311 5.68116 3.55624 5.65445C3.52909 5.5767 3.47745 5.50853 3.40815 5.45894C3.33885 5.40936 3.25516 5.38069 3.16815 5.37674C2.96578 5.39596 2.77793 5.48417 2.64013 5.62469C2.61462 5.65459 2.6017 5.69225 2.60383 5.73051C2.60595 5.76877 2.62298 5.80496 2.65166 5.8322C2.68034 5.85945 2.71868 5.87584 2.75939 5.87827C2.8001 5.8807 2.84034 5.86899 2.87246 5.84537V5.85281Z" fill="#FF7900"/>
<path d="M42.0711 1.645C40.7173 3.3343 38.9273 4.67156 36.8701 5.53047L36.8543 5.54287C36.7777 5.45112 36.6959 5.36434 36.6114 5.28003C36.4975 5.15431 36.355 5.0543 36.1943 4.98744C36.0388 4.94507 35.873 4.95008 35.7207 5.00176C35.5684 5.05344 35.4375 5.14913 35.3468 5.27507C35.2605 5.40361 35.2047 5.54812 35.1833 5.69875C35.1619 5.84938 35.1753 6.00258 35.2227 6.14788C35.3204 6.43834 35.4864 6.70443 35.7085 6.92646C35.8341 7.07301 35.9882 7.19586 36.1626 7.28848C36.2476 7.33373 36.3414 7.36253 36.4384 7.37318C36.5354 7.38382 36.6338 7.3761 36.7276 7.35046C36.6484 8.2679 36.5287 9.17707 36.3685 10.078C36.37 10.0837 36.37 10.0896 36.3685 10.0953C36.239 10.1212 36.1224 10.187 36.0373 10.2823C35.9522 10.3775 35.9033 10.4967 35.8986 10.621C35.8999 10.7565 35.933 10.8901 35.9955 11.0122C36.058 11.1344 36.1484 11.2421 36.2603 11.3277C36.0804 11.3905 35.9279 11.5076 35.8266 11.6606C35.7253 11.8136 35.681 11.9939 35.7006 12.1732C35.7106 12.2597 35.7374 12.3438 35.7798 12.4212C35.5178 12.4137 35.2609 12.3519 35.0274 12.2402C34.5785 12.017 34.2696 11.4715 34.4993 11.04C33.8024 10.7375 33.1239 10.2342 33.0103 9.53C32.9258 8.98697 33.1925 8.45387 33.5067 7.99515C33.8208 7.53643 34.1931 7.09507 34.3594 6.57188C34.5574 5.95943 34.4492 5.30235 34.4756 4.66262C34.5127 3.86328 34.7564 3.08443 35.1855 2.39326C35.6146 1.70209 36.2164 1.11936 36.9388 0.695327C37.67 0.286525 38.496 0.0504065 39.3457 0.00722003C40.1955 -0.0359665 41.0437 0.115068 41.8177 0.447371C42.2136 0.613389 42.5721 0.849055 42.8737 1.14165C43.5126 1.79129 43.7053 2.71865 43.7502 3.59889C43.8123 4.44004 43.723 5.28499 43.4862 6.09829H43.4677C43.398 4.54427 42.9337 3.02843 42.1134 1.67723L42.0711 1.645Z" fill="#090E3F"/>
<path d="M41.7068 10.1028C41.6092 10.1251 41.5036 10.1028 41.4085 10.1251L41.4323 10.0953C41.8827 10.0045 42.2841 9.76637 42.5649 9.42337C42.8633 9.04856 43.0779 8.62095 43.1959 8.16624C43.2648 7.93801 43.3194 7.70618 43.3595 7.47196C43.8612 8.11169 44.3549 8.79605 44.442 9.58455C44.4754 9.90013 44.4409 10.2188 44.3407 10.5216C44.2405 10.8245 44.0765 11.1053 43.8585 11.3475C43.6349 11.609 43.3275 11.7959 42.982 11.8806C42.8166 11.5654 42.5352 11.317 42.19 11.1814C42.3233 11.0964 42.4187 10.9684 42.4581 10.8216C42.4976 10.6749 42.4782 10.5197 42.4038 10.3854C42.3322 10.2772 42.2271 10.1921 42.1025 10.1416C41.9779 10.091 41.8399 10.0775 41.7068 10.1028V10.1028Z" fill="#090E3F"/>
<path d="M43.3595 7.47444C43.3194 7.70866 43.2648 7.94048 43.1959 8.16872C43.0776 8.62256 42.863 9.0493 42.5649 9.42338C42.2766 9.77683 41.8656 10.0242 41.4032 10.1226V10.1226C41.1841 10.1697 41.0231 10.0656 40.7987 10.0358C39.8625 9.87558 38.946 9.62635 38.0635 9.29196C38.0803 9.66422 38.1745 10.0298 38.3407 10.3681C37.6926 10.349 37.0484 10.2659 36.4187 10.1201L36.3659 10.1053C36.5279 9.19774 36.6476 8.28856 36.725 7.37774C36.6297 7.399 36.5308 7.40205 36.4342 7.38671C36.3376 7.37138 36.2452 7.33797 36.1627 7.28847C35.9892 7.1956 35.836 7.07277 35.7112 6.92646C35.4891 6.70443 35.3231 6.43834 35.2254 6.14788C35.178 6.00258 35.1646 5.84938 35.186 5.69875C35.2074 5.54812 35.2632 5.40361 35.3495 5.27507C35.4402 5.14913 35.5711 5.05344 35.7234 5.00176C35.8757 4.95008 36.0415 4.94507 36.197 4.98744C36.3577 5.0543 36.5002 5.15431 36.6141 5.28003C36.6986 5.36434 36.7804 5.45112 36.857 5.54287L36.8728 5.53047C38.929 4.67121 40.7181 3.33397 42.0712 1.645L42.1134 1.67723C42.9311 3.02739 43.3936 4.54141 43.4625 6.09333C43.4745 6.55572 43.44 7.01814 43.3595 7.47444V7.47444Z" fill="#FFC33E"/>
<path d="M42.982 11.8831C43.0683 12.0251 43.0947 12.1923 43.0559 12.3517C43.0455 12.3845 43.0295 12.4155 43.0084 12.4435C41.6224 12.9642 40.07 13.0411 38.5678 12.984C37.6742 12.9717 36.7863 12.8474 35.9277 12.6146C35.8645 12.5545 35.8111 12.486 35.7693 12.4112C35.7269 12.3339 35.7001 12.2498 35.6901 12.1633C35.6704 11.984 35.7148 11.8037 35.8161 11.6507C35.9174 11.4976 36.0699 11.3805 36.2498 11.3178C36.1412 11.2323 36.0536 11.1257 35.993 11.0055C35.9324 10.8852 35.9002 10.7541 35.8986 10.621C35.9059 10.4996 35.9553 10.3837 36.0392 10.2911C36.123 10.1984 36.2369 10.134 36.3633 10.1077H36.4267C37.0563 10.2535 37.7005 10.3366 38.3486 10.3557C39.3763 10.3868 40.4043 10.3036 41.4112 10.1077C41.5062 10.0904 41.6118 10.1077 41.7095 10.0854C41.8439 10.0587 41.9839 10.0718 42.1101 10.1229C42.2363 10.174 42.3426 10.2605 42.4144 10.3706C42.4888 10.5048 42.5081 10.66 42.4687 10.8067C42.4293 10.9535 42.3338 11.0815 42.2005 11.1665C42.545 11.3084 42.8227 11.5631 42.982 11.8831V11.8831Z" fill="#7D57C9"/>
<path d="M40.8937 7.50916C40.9965 7.30268 41.1771 7.13927 41.4006 7.05044C41.5672 7.02018 41.7399 7.04611 41.8881 7.12368C42.0364 7.20124 42.1508 7.32545 42.2111 7.47444C42.265 7.62545 42.2812 7.7861 42.2583 7.94392C42.2354 8.10174 42.1741 8.25248 42.0791 8.38444C42.0349 8.45191 41.9836 8.51505 41.926 8.57289C41.8356 8.49286 41.7691 8.39198 41.7332 8.2803C41.6504 8.11071 41.5249 7.96255 41.3677 7.84853C41.2104 7.73451 41.026 7.65804 40.8303 7.62569C40.8488 7.58563 40.87 7.5467 40.8937 7.50916V7.50916Z" fill="#252849"/>
<path d="M41.7332 8.2803C41.7691 8.39198 41.8356 8.49286 41.926 8.57289C41.8137 8.68983 41.6694 8.7756 41.5088 8.82084C41.3883 8.85575 41.2595 8.85624 41.1387 8.82225C41.0179 8.78826 40.9106 8.72131 40.8303 8.62992C40.758 8.52865 40.7144 8.41173 40.7036 8.29022C40.6786 8.06033 40.7225 7.82844 40.8303 7.62074C41.0265 7.65358 41.2113 7.7308 41.3686 7.84572C41.5259 7.96063 41.6511 8.10978 41.7332 8.2803V8.2803Z" fill="#A02758"/>
<path d="M41.4032 10.1251C40.3964 10.3209 39.3684 10.4042 38.3407 10.373C38.1745 10.0347 38.0803 9.66917 38.0635 9.29692C38.946 9.6313 39.8625 9.88054 40.7987 10.0408L41.4032 10.1276V10.1251Z" fill="#FF9E10"/>
<path d="M39.8931 4.53616L39.5288 4.28821C39.4928 4.26964 39.4506 4.2647 39.4108 4.27438C39.3711 4.28405 39.3368 4.30763 39.3149 4.34028C39.2958 4.37421 39.2909 4.41364 39.3011 4.45081C39.3114 4.48798 39.3361 4.52019 39.3704 4.54112L39.6766 4.75436L39.7954 4.83867C39.6159 4.96513 39.4311 5.08663 39.2463 5.2106C39.2122 5.23108 39.1876 5.26286 39.1773 5.29961C39.167 5.33637 39.1719 5.37541 39.1908 5.40897C39.2012 5.42562 39.215 5.44018 39.2313 5.45181C39.2477 5.46345 39.2664 5.47193 39.2862 5.47677C39.3061 5.48161 39.3268 5.48271 39.3471 5.48001C39.3675 5.47731 39.387 5.47086 39.4047 5.46104L39.7769 5.21308L39.9565 5.09158C40.0323 5.05296 40.0953 4.99548 40.1386 4.92545C40.2205 4.73205 40.0198 4.62543 39.8931 4.53616Z" fill="#090E3F"/>
<path d="M43.0507 4.69486L42.7629 4.6527L42.6705 4.63783L42.7418 4.52377L42.8923 4.28821C42.9118 4.25411 42.9166 4.21428 42.9058 4.17691C42.895 4.13955 42.8694 4.1075 42.8342 4.08737C42.7983 4.06916 42.7563 4.06466 42.7169 4.07483C42.6776 4.08499 42.6439 4.10902 42.623 4.14192L42.4514 4.41467L42.3642 4.55104C42.319 4.60531 42.2965 4.6732 42.3009 4.74197C42.3246 4.89818 42.5015 4.90562 42.6309 4.92298L42.9662 4.97505C43.0039 4.98038 43.0424 4.97254 43.0743 4.95301C43.1063 4.93348 43.1295 4.90362 43.1396 4.86909C43.1497 4.83455 43.1459 4.79775 43.129 4.76563C43.1122 4.73352 43.0833 4.70834 43.048 4.69486H43.0507Z" fill="#090E3F"/>
<path d="M43.3833 3.60633C43.3036 3.51164 43.1934 3.44378 43.0691 3.41292C42.8571 3.34327 42.6252 3.34855 42.417 3.4278C42.285 3.47987 42.153 3.55674 42.1319 3.70799C42.1291 3.74129 42.1345 3.77474 42.1478 3.80572C42.1611 3.8367 42.1819 3.86436 42.2085 3.88652C42.2406 3.9117 42.2787 3.92932 42.3196 3.93794C42.3604 3.94657 42.4029 3.94594 42.4434 3.93611C42.5042 3.93611 42.5649 3.90636 42.6256 3.89396H42.6546H42.689H42.7893C42.8496 3.89391 42.9098 3.89973 42.9688 3.91132C43.0353 3.92373 43.1007 3.94114 43.1642 3.96339C43.1838 3.96864 43.2043 3.97016 43.2245 3.96787C43.2447 3.96559 43.2643 3.95953 43.282 3.95006C43.2997 3.9406 43.3152 3.92791 43.3276 3.91274C43.34 3.89757 43.3491 3.88023 43.3543 3.86172C43.3915 3.82987 43.4151 3.78628 43.4204 3.73921C43.4258 3.69214 43.4126 3.64486 43.3833 3.60633V3.60633Z" fill="#090E3F"/>
<path d="M39.146 3.66584C39.2281 3.57371 39.3374 3.50643 39.4601 3.47243C39.6722 3.40277 39.904 3.40806 40.1122 3.48731C40.2469 3.53938 40.3894 3.61625 40.4 3.7675C40.4028 3.80079 40.3974 3.83425 40.3841 3.86523C40.3708 3.89621 40.35 3.92387 40.3234 3.94603C40.2913 3.9712 40.2532 3.98883 40.2123 3.99745C40.1715 4.00608 40.129 4.00545 40.0885 3.99562C40.0278 3.99562 39.9697 3.96587 39.9063 3.95347H39.8773H39.8297H39.7294C39.6692 3.95465 39.6091 3.96046 39.5499 3.97082C39.4833 3.98408 39.418 4.00232 39.3545 4.02538C39.315 4.03529 39.2729 4.03018 39.2373 4.01115C39.2017 3.99213 39.1756 3.96072 39.1644 3.92371V3.92371C39.1295 3.88965 39.1086 3.84511 39.1052 3.79794C39.1018 3.75077 39.1162 3.70399 39.146 3.66584V3.66584Z" fill="#090E3F"/>
<path d="M43.6262 6.69586L42.4566 7.34055C42.429 7.36295 42.4106 7.39375 42.4047 7.42757C42.3988 7.46139 42.4057 7.49608 42.4243 7.5256C42.4428 7.55512 42.4718 7.57759 42.5062 7.58908C42.5406 7.60058 42.5782 7.60037 42.6124 7.5885L43.782 6.94382C43.8096 6.92141 43.8279 6.89062 43.8339 6.85679C43.8398 6.82297 43.8328 6.78828 43.8143 6.75876C43.7958 6.72924 43.7668 6.70677 43.7324 6.69528C43.698 6.68378 43.6604 6.68399 43.6262 6.69586V6.69586Z" fill="#8D3FD0"/>
<path d="M43.65 7.85133L42.7629 7.83894C42.7223 7.83894 42.6833 7.85409 42.6546 7.88106C42.6259 7.90803 42.6098 7.94461 42.6098 7.98275C42.6104 8.02093 42.6267 8.05742 42.6552 8.08465C42.6837 8.11188 42.7222 8.12778 42.7629 8.12904H43.6552C43.6754 8.12938 43.6955 8.12589 43.7143 8.11878C43.733 8.11167 43.75 8.10109 43.7643 8.08767C43.7786 8.07425 43.7899 8.05826 43.7974 8.04066C43.805 8.02306 43.8087 8.00421 43.8084 7.98523C43.805 7.94819 43.7868 7.91373 43.7574 7.88886C43.7279 7.86399 43.6895 7.85057 43.65 7.85133V7.85133Z" fill="#8D3FD0"/>
<path d="M43.1351 8.90515L42.5807 8.4985C42.5502 8.4726 42.5109 8.45767 42.4698 8.45635C42.4292 8.45636 42.3903 8.47153 42.3616 8.4985C42.3321 8.52521 42.3151 8.56173 42.3141 8.60016C42.3141 8.61964 42.3183 8.63891 42.3264 8.65681C42.3346 8.67471 42.3466 8.69087 42.3616 8.7043L42.916 9.11095C42.9465 9.13685 42.9858 9.15178 43.0269 9.1531C43.0672 9.15185 43.1057 9.13687 43.1351 9.11095C43.1638 9.08294 43.1799 9.04565 43.18 9.00681C43.1808 8.98782 43.1772 8.9689 43.1695 8.95135C43.1617 8.9338 43.15 8.91804 43.1351 8.90515V8.90515Z" fill="#8D3FD0"/>
<path d="M44.5819 7.14466C44.4986 7.08022 44.3964 7.04128 44.2889 7.03308C44.2005 7.02873 44.1131 7.0523 44.0407 7.10003C43.9952 7.12987 43.9573 7.16883 43.9298 7.21409C43.9149 7.24342 43.9034 7.27418 43.8955 7.30583C43.8955 7.30583 43.8955 7.30583 43.8955 7.31823C43.8694 7.4007 43.8779 7.4894 43.9192 7.56619C43.9599 7.63999 44.0234 7.7005 44.1014 7.73975C44.1764 7.77799 44.2592 7.80081 44.3443 7.8067C44.4308 7.814 44.5175 7.79343 44.5899 7.74837C44.6624 7.70331 44.7163 7.63644 44.7429 7.55875C44.7603 7.48249 44.7545 7.40316 44.726 7.3299C44.6975 7.25664 44.6475 7.19243 44.5819 7.14466V7.14466Z" fill="#8D3FD0"/>
<path d="M44.273 6.56196C44.2355 6.56658 44.2011 6.58384 44.1762 6.61053C44.1512 6.63721 44.1375 6.67151 44.1375 6.70702C44.1375 6.74253 44.1512 6.77682 44.1762 6.80351C44.2011 6.8302 44.2355 6.84746 44.273 6.85207C44.3105 6.84746 44.3449 6.8302 44.3699 6.80351C44.3948 6.77682 44.4085 6.74253 44.4085 6.70702C44.4085 6.67151 44.3948 6.63721 44.3699 6.61053C44.3449 6.58384 44.3105 6.56658 44.273 6.56196V6.56196Z" fill="#8D3FD0"/>
<path d="M44.8142 6.43303C44.8063 6.40848 44.7918 6.38627 44.772 6.36856V6.35616C44.7592 6.34133 44.7416 6.33088 44.7218 6.32641C44.704 6.31737 44.684 6.31309 44.6638 6.31401C44.6427 6.31312 44.6218 6.3174 44.603 6.32641C44.5836 6.33149 44.5661 6.34183 44.5529 6.35616L44.5291 6.38591C44.5154 6.40858 44.5081 6.43421 44.508 6.4603V6.49749C44.5153 6.52175 44.5289 6.54391 44.5476 6.56196L44.5634 6.57436C44.5756 6.58862 44.5922 6.59901 44.611 6.60412C44.63 6.61235 44.6507 6.61661 44.6717 6.61661C44.6926 6.61661 44.7133 6.61235 44.7324 6.60412C44.7511 6.59901 44.7677 6.58862 44.7799 6.57436L44.8063 6.54461C44.8197 6.52271 44.827 6.49796 44.8274 6.4727L44.8142 6.43303Z" fill="#8D3FD0"/>
<path d="M44.9858 6.79504C44.9791 6.77732 44.9683 6.76123 44.9542 6.74793C44.94 6.73463 44.9229 6.72447 44.904 6.71818C44.8862 6.70915 44.8661 6.70486 44.8459 6.70578H44.8037C44.7779 6.71261 44.7543 6.7254 44.735 6.74297L44.7113 6.77273C44.6975 6.7954 44.6902 6.82102 44.6902 6.84711V6.85951C44.6892 6.87927 44.6938 6.89893 44.7034 6.91654C44.7107 6.93364 44.7218 6.94909 44.7359 6.96191C44.75 6.97472 44.7668 6.98461 44.7852 6.99093C44.8037 7.0008 44.8246 7.00593 44.8459 7.0058H44.8855C44.9122 7.00096 44.9364 6.98787 44.9542 6.96861L44.9779 6.93886C44.9925 6.91743 44.9999 6.89237 44.999 6.86695V6.85455C45.0022 6.83388 44.9975 6.81282 44.9858 6.79504V6.79504Z" fill="#8D3FD0"/>
<path d="M44.2783 8.58776C44.2626 8.53752 44.2356 8.49102 44.1991 8.45139C44.1575 8.41102 44.1055 8.38154 44.048 8.36588C43.9906 8.35023 43.9298 8.34893 43.8717 8.36212C43.8338 8.37307 43.7982 8.38982 43.7661 8.41171C43.7426 8.41893 43.721 8.43077 43.7028 8.44643C43.6628 8.48587 43.633 8.53337 43.6156 8.58528C43.6037 8.63843 43.6037 8.69331 43.6156 8.74646C43.6243 8.79348 43.6445 8.83794 43.6748 8.87627C43.7051 8.91459 43.7445 8.94572 43.7899 8.96714C43.8409 8.99049 43.8968 9.00317 43.9536 9.00433C44.0114 9.00229 44.0681 8.98877 44.1199 8.96466C44.1694 8.93963 44.2119 8.90394 44.244 8.86051C44.2697 8.82683 44.2861 8.78761 44.2915 8.74646C44.3003 8.69332 44.2958 8.63897 44.2783 8.58776Z" fill="#8D3FD0"/>
<path d="M44.4974 8.1836C44.4599 8.18821 44.4255 8.20547 44.4006 8.23216C44.3756 8.25885 44.3619 8.29314 44.3619 8.32865C44.3619 8.36416 44.3756 8.39845 44.4006 8.42514C44.4255 8.45183 44.4599 8.46909 44.4974 8.4737C44.5349 8.46909 44.5693 8.45183 44.5943 8.42514C44.6192 8.39845 44.6329 8.36416 44.6329 8.32865C44.6329 8.29314 44.6192 8.25885 44.5943 8.23216C44.5693 8.20547 44.5349 8.18821 44.4974 8.1836V8.1836Z" fill="#8D3FD0"/>
<path d="M43.5391 9.24237C43.5016 9.24698 43.4672 9.26424 43.4422 9.29093C43.4173 9.31762 43.4035 9.35191 43.4035 9.38742C43.4035 9.42293 43.4173 9.45722 43.4422 9.48391C43.4672 9.5106 43.5016 9.52786 43.5391 9.53247C43.5766 9.52786 43.611 9.5106 43.6359 9.48391C43.6608 9.45722 43.6746 9.42293 43.6746 9.38742C43.6746 9.35191 43.6608 9.31762 43.6359 9.29093C43.611 9.26424 43.5766 9.24698 43.5391 9.24237V9.24237Z" fill="#8D3FD0"/>
<path d="M44.1093 9.35891C44.068 9.35891 44.0284 9.37432 43.9992 9.40175C43.97 9.42919 43.9536 9.4664 43.9536 9.5052C43.9536 9.544 43.97 9.58121 43.9992 9.60865C44.0284 9.63608 44.068 9.65149 44.1093 9.65149C44.1506 9.65149 44.1903 9.63608 44.2195 9.60865C44.2487 9.58121 44.2651 9.544 44.2651 9.5052C44.2651 9.4664 44.2487 9.42919 44.2195 9.40175C44.1903 9.37432 44.1506 9.35891 44.1093 9.35891V9.35891Z" fill="#8D3FD0"/>
<path d="M43.7635 9.70108C43.726 9.7057 43.6916 9.72296 43.6666 9.74965C43.6417 9.77634 43.6279 9.81063 43.6279 9.84614C43.6279 9.88165 43.6417 9.91594 43.6666 9.94263C43.6916 9.96932 43.726 9.98658 43.7635 9.99119C43.801 9.98658 43.8354 9.96932 43.8603 9.94263C43.8853 9.91594 43.899 9.88165 43.899 9.84614C43.899 9.81063 43.8853 9.77634 43.8603 9.74965C43.8354 9.72296 43.801 9.7057 43.7635 9.70108V9.70108Z" fill="#8D3FD0"/>
<path opacity="0.31" d="M41.7306 4.93041C41.1813 4.96885 40.6697 5.2073 40.305 5.59494C40.2709 5.62902 40.2447 5.66939 40.2281 5.71349C40.2115 5.75758 40.2049 5.80444 40.2086 5.85108C40.2123 5.89771 40.2263 5.94311 40.2497 5.98439C40.2731 6.02567 40.3054 6.06192 40.3446 6.09085C40.4015 6.12656 40.4638 6.15414 40.5294 6.17267C40.8752 6.29913 41.2079 6.01894 41.5458 5.89992C41.8837 5.7809 42.1794 5.95943 42.5121 5.82553C42.5771 5.79571 42.6338 5.75186 42.6774 5.69756C42.7209 5.64327 42.7503 5.58006 42.7629 5.51311C42.8606 4.99984 42.1609 4.88578 41.7306 4.93041Z" fill="#E23D69"/>
<path d="M41.3557 4.46426C41.2691 4.765 41.2547 5.08004 41.3135 5.38665C41.361 5.63461 41.4587 5.99414 41.7544 6.07597C41.9101 6.11812 42.0474 6.04869 42.2005 6.05861C42.3035 6.05861 42.4144 6.13052 42.4038 6.23962C42.3933 6.34872 42.2375 6.41071 42.1398 6.44046C42.0869 6.46674 42.028 6.48047 41.9682 6.48047C41.9084 6.48047 41.8495 6.46674 41.7966 6.44046C41.7649 6.41311 41.7235 6.39792 41.6804 6.39792C41.6374 6.39792 41.5959 6.41311 41.5643 6.44046C41.534 6.46964 41.517 6.5088 41.517 6.54956C41.517 6.59033 41.534 6.62949 41.5643 6.65867C41.6991 6.74542 41.8598 6.78955 42.0231 6.78465C42.1864 6.77974 42.3439 6.72606 42.4725 6.63139C42.5485 6.59381 42.6126 6.53796 42.6581 6.46953C42.7037 6.4011 42.7291 6.32255 42.7318 6.24188C42.7345 6.16122 42.7143 6.08133 42.6734 6.01036C42.6325 5.9394 42.5723 5.8799 42.4989 5.83793C42.3533 5.75733 42.1803 5.73247 42.0157 5.7685C41.9524 5.7685 41.8679 5.8057 41.8098 5.7685C41.7646 5.72618 41.7326 5.673 41.7174 5.61477C41.5858 5.27402 41.5692 4.90345 41.6699 4.55352C41.6814 4.51406 41.6758 4.47191 41.6543 4.43634C41.6328 4.40077 41.597 4.37468 41.555 4.36383C41.513 4.35298 41.4681 4.35825 41.4303 4.37848C41.3924 4.39871 41.3646 4.43224 41.3531 4.4717L41.3557 4.46426Z" fill="#FF7900"/>
<path d="M35.867 5.85281C35.9094 5.81365 35.9553 5.77798 36.0043 5.74619L36.0755 5.70652L36.1099 5.70404C36.1099 5.70404 36.1706 5.70404 36.131 5.70404H36.1627C36.1759 5.70404 36.1943 5.70404 36.1627 5.70404C36.1749 5.70264 36.1873 5.70264 36.1996 5.70404C36.2128 5.70404 36.2313 5.71644 36.1996 5.70404C36.2129 5.71 36.2253 5.7175 36.2366 5.72635C36.2181 5.71148 36.2366 5.72635 36.2366 5.72635V5.71396V5.73875L36.2788 5.58998C36.0148 5.8057 35.6874 6.03134 35.7086 6.39583C35.7079 6.4843 35.7372 6.57067 35.7922 6.64244C35.8473 6.71422 35.9252 6.76766 36.0148 6.79504C36.061 6.80546 36.1091 6.80598 36.1556 6.79657C36.202 6.78716 36.2456 6.76805 36.2831 6.74067C36.3207 6.71329 36.3512 6.67833 36.3723 6.63838C36.3935 6.59843 36.4049 6.55452 36.4055 6.50989C36.4036 6.46929 36.3853 6.4309 36.3545 6.40239C36.3236 6.37388 36.2825 6.35737 36.2392 6.35616C36.1958 6.35616 36.1542 6.37236 36.1235 6.40119C36.0928 6.43002 36.0755 6.46912 36.0755 6.50989C36.0755 6.53221 36.0755 6.50989 36.0755 6.50989C36.0755 6.50989 36.0755 6.47766 36.0755 6.49254C36.0755 6.50741 36.0755 6.49254 36.0755 6.49254C36.0755 6.49254 36.094 6.49254 36.0755 6.49254H36.0914C36.0799 6.48869 36.0698 6.4818 36.0623 6.4727C36.046 6.44884 36.036 6.42162 36.0333 6.39335C36.03 6.34598 36.0381 6.29851 36.0571 6.2545C36.131 6.07349 36.3475 5.94208 36.5059 5.8057C36.5265 5.78617 36.5414 5.76203 36.5492 5.73555C36.5571 5.70908 36.5576 5.68116 36.5507 5.65445C36.5236 5.5767 36.472 5.50853 36.4027 5.45894C36.3334 5.40936 36.2497 5.38069 36.1627 5.37674C35.9603 5.39596 35.7724 5.48417 35.6346 5.62469C35.6091 5.65459 35.5962 5.69225 35.5983 5.73051C35.6005 5.76877 35.6175 5.80496 35.6462 5.8322C35.6748 5.85945 35.7132 5.87584 35.7539 5.87827C35.7946 5.8807 35.8348 5.86899 35.867 5.84537V5.85281Z" fill="#FF7900"/>
<path d="M32.9945 7.26287L29.128 5.16626L29.128 9.35948L32.9945 7.26287Z" fill="#7D57C9"/>
<path d="M12.3987 7.31121L16.2874 9.37137L16.2427 5.17836L12.3987 7.31121Z" fill="#7D57C9"/>
<rect x="15.4662" y="6.77868" width="16.4973" height="0.968384" fill="#7D57C9"/>
</svg>
