<svg width="188" height="192" viewBox="0 0 188 192" fill="none" xmlns="http://www.w3.org/2000/svg">
<path d="M187.872 97.9653C187.898 113.656 183.989 129.104 176.501 142.893C169.014 156.683 158.188 168.375 145.015 176.899L144.024 177.532C142.807 178.295 141.575 179.038 140.317 179.753C139.058 180.469 137.751 181.17 136.444 181.817C129.304 185.452 121.723 188.148 113.891 189.837C101.013 192.638 87.6895 192.697 74.7869 190.012C61.8842 187.326 49.6912 181.955 39.0004 174.248C28.3096 166.541 19.3603 156.671 12.7343 145.278C6.10832 133.886 1.95393 121.226 0.541205 108.123C-0.871518 95.0199 0.489047 81.766 4.53446 69.2231C8.57987 56.6802 15.2196 45.1289 24.0219 35.3203C32.8243 25.5117 43.5923 17.6653 55.626 12.2911C67.6596 6.91685 80.6895 4.13519 93.8687 4.12689C97.2209 4.12852 100.571 4.3076 103.904 4.66339L104.764 4.7528C105.451 4.83534 106.139 4.92476 106.827 5.02105C112.082 5.73778 117.267 6.90212 122.324 8.50139C123.672 8.937 125.006 9.39554 126.327 9.87701L128.129 10.5648H128.17C145.751 17.4471 160.851 29.467 171.501 45.0573C182.15 60.6476 187.855 79.0849 187.872 97.9653Z" fill="#D6D1F2"/>
<path d="M152.484 51.4553C152.147 55.9258 150.981 60.2944 149.045 64.3381C149.097 64.5138 149.107 64.699 149.074 64.8792C149.042 65.0595 148.969 65.2297 148.859 65.3767C148.378 66.0645 147.876 66.8142 147.367 67.5227C145.353 70.9597 142.887 74.1106 140.035 76.8907C139.891 77.0412 139.712 77.1539 139.514 77.2187C139.316 77.2834 139.105 77.2984 138.9 77.2621C138.391 77.7367 137.882 78.2044 137.366 78.6377C129.525 85.5159 119.889 90.3306 109.413 91.2454C103.278 91.7985 97.0977 90.9519 91.3375 88.7692C91.4888 90.248 91.6539 91.7199 91.7984 93.1919C92.1973 97.2637 92.3693 101.7 90.072 105.084C89.1792 106.374 88.0027 107.442 86.6329 108.207C84.5125 109.386 82.1703 110.112 79.7547 110.339C78.5944 110.463 77.4273 110.511 76.2607 110.483C74.7372 110.45 73.22 110.277 71.728 109.968L70.8269 109.768C68.2683 109.142 65.7302 108.062 63.9488 106.123C62.904 104.93 62.1459 103.514 61.7322 101.984C61.3185 100.453 61.2603 98.8478 61.5621 97.2912C62.2105 94.1575 63.9753 91.3661 66.5281 89.4364C63.7107 88.8031 61.1381 87.3646 59.1233 85.2961C57.1084 83.2275 55.7381 80.6179 55.1792 77.7848C54.7592 75.262 54.9072 72.6773 55.6125 70.2189C56.1126 68.4124 56.8043 66.6646 57.6759 65.0053C58.8528 62.6179 60.4539 60.4644 62.4012 58.6499C65.2969 56.0706 68.9973 54.6262 72.6703 53.395C76.3432 52.1638 80.1055 51.0702 83.4139 49.0617C85.4523 47.8467 87.2029 46.204 88.545 44.247C88.9508 43.2428 89.3497 42.2386 89.7556 41.2482C91.5072 36.7271 94.0976 32.5778 97.3903 29.0188C103.342 22.7729 111.424 18.9921 120.033 18.4265C128.424 18.1283 136.595 21.1452 142.779 26.8247C146.157 29.9265 148.786 33.7556 150.468 38.0225C152.149 42.2895 152.839 46.8828 152.484 51.4553Z" fill="#090E3F"/>
<path d="M163.902 111.171C164.115 111.378 164.335 111.646 164.266 111.928C164.233 112.049 164.157 112.154 164.053 112.224C160.111 111.33 156.112 110.705 152.085 110.353C148.076 110.007 144.038 110.427 140.186 111.591C142.594 110.25 145.068 109.033 147.601 107.945L147.786 108.372C150.461 108.224 153.142 108.252 155.813 108.454C158.702 108.675 161.777 109.197 163.902 111.171Z" fill="#FF9E10"/>
<path d="M151.418 114.322L141.452 115.883V116.041C146.911 116.227 152.345 116.867 157.698 117.953C157.291 118.273 156.823 118.507 156.322 118.641C153.777 119.239 141.479 121.805 132.84 123.745C130.089 124.357 127.737 124.907 126.155 125.313C124.222 121.775 121.828 118.509 119.036 115.601C118.517 115.035 117.943 114.521 117.323 114.067C121.671 107.435 128.005 102.347 135.42 99.5335L136.073 99.2859C137.45 98.7745 138.893 98.4618 140.358 98.3573C140.816 98.3255 141.276 98.3255 141.734 98.3573C141.995 98.3573 142.291 98.4399 142.387 98.6737C142.432 98.7983 142.432 98.9344 142.387 99.0589C142.148 99.8122 141.691 100.478 141.073 100.971C139.938 102.065 138.742 103.103 137.552 104.135L132.998 108.076C139.452 102.429 146.621 97.6562 154.321 93.8797C154.286 94.0008 154.24 94.1182 154.183 94.2305C153.575 95.2581 152.746 96.137 151.755 96.8029C149.05 98.9214 146.321 101.012 143.57 103.076C141.479 104.658 139.37 106.221 137.242 107.767L137.332 107.959C143.202 105.274 149.396 103.36 155.758 102.264C157.367 101.95 159.003 101.795 160.642 101.803C160.759 101.803 160.91 101.803 160.937 101.948H161.102C161.098 102.197 161.039 102.443 160.929 102.667C160.82 102.892 160.663 103.09 160.47 103.248C159.914 103.652 159.275 103.927 158.599 104.052C152.159 105.775 145.956 108.286 140.131 111.529C143.983 110.365 148.021 109.945 152.03 110.291C156.057 110.643 160.056 111.268 163.998 112.162C163.811 112.279 163.599 112.35 163.379 112.368L151.418 114.322Z" fill="#FFC33E"/>
<path d="M161.157 102.01H160.992C160.992 101.893 160.814 101.872 160.697 101.865C159.058 101.857 157.422 102.012 155.813 102.326C149.453 103.41 143.259 105.313 137.387 107.987L137.297 107.794C139.42 106.253 141.53 104.69 143.625 103.103L143.811 103.351C146.75 102.16 149.773 101.187 152.856 100.441C155.38 99.8293 158.241 99.4235 160.422 100.861C160.668 101.008 160.878 101.211 161.034 101.453C161.119 101.626 161.162 101.817 161.157 102.01Z" fill="#FF9E10"/>
<path d="M158.241 116.495C158.348 116.758 158.355 117.052 158.262 117.32C158.168 117.588 157.98 117.814 157.732 117.953C152.379 116.867 146.945 116.227 141.486 116.041V115.883L151.452 114.322C153.443 114.547 155.397 115.028 157.264 115.752C157.665 115.882 158.009 116.144 158.241 116.495Z" fill="#FF9E10"/>
<path d="M144.1 48.4702C144.944 48.8647 145.715 49.4022 146.376 50.0591C147.744 51.3105 148.956 52.7214 149.987 54.2616H150.207C150.212 52.0496 149.906 49.8478 149.3 47.7205H149.341C151.123 48.9679 152.506 50.7046 153.323 52.7209C153.935 54.1453 154.347 55.6475 154.548 57.1848C154.808 58.9526 154.776 60.7513 154.451 62.5085C153.985 64.5178 153.227 66.4481 152.202 68.238C149.815 72.7049 146.868 76.8492 143.433 80.5705C141.011 83.1979 138.295 85.681 136.843 88.9412L136.424 88.8105C138.804 83.1154 141.032 77.3378 143.116 71.5189C143.295 71.2162 143.46 70.9136 143.618 70.6041L143.488 70.4803C140.666 67.9708 138.299 64.9922 136.492 61.6763C135.92 60.8104 135.642 59.7826 135.701 58.7462C135.733 58.4825 135.824 58.2295 135.968 58.0066C136.113 57.7836 136.306 57.5966 136.534 57.46C136.844 57.3307 137.183 57.2825 137.517 57.3198C137.852 57.3571 138.171 57.4787 138.446 57.6732C138.683 57.8074 138.913 57.9544 139.134 58.1134C141.478 59.8541 143.501 61.9909 145.111 64.4275H145.173C144.329 60.0873 142.139 56.1233 138.914 53.0992L138.982 53.0304C139.67 52.4252 140.771 52.7416 141.569 53.1886L141.809 53.3331C144.045 54.6537 145.764 56.6827 147.442 58.6705H147.614C147.011 54.8166 145.343 51.2076 142.8 48.2501C143.244 48.2171 143.691 48.2926 144.1 48.4702Z" fill="#FFC33E"/>
<path d="M154.114 92.8961C154.264 93.018 154.37 93.1853 154.416 93.3728C154.461 93.5602 154.445 93.7575 154.369 93.9347C146.669 97.7112 139.501 102.484 133.047 108.131L137.6 104.19C138.79 103.158 139.987 102.127 141.121 101.026C141.739 100.533 142.196 99.8672 142.435 99.1139C142.48 98.9894 142.48 98.8533 142.435 98.7288C142.339 98.4949 142.043 98.4261 141.782 98.4124C141.324 98.3805 140.864 98.3805 140.406 98.4124C142.16 97.2981 144.024 96.3145 145.861 95.3654C148.288 94.1204 150.827 92.8686 153.55 92.8411C153.74 92.8129 153.934 92.8318 154.114 92.8961Z" fill="#FF9E10"/>
<path d="M147.236 46.8195C147.977 46.9782 148.679 47.2847 149.3 47.7205C149.906 49.8478 150.212 52.0495 150.208 54.2616H149.987C148.954 52.721 147.739 51.31 146.37 50.0591C145.708 49.4022 144.938 48.8647 144.093 48.4702C144.263 47.9875 144.574 47.5672 144.986 47.2642C145.398 46.9611 145.893 46.7893 146.404 46.7713C146.682 46.7541 146.962 46.7703 147.236 46.8195Z" fill="#FF9E10"/>
<path d="M147.614 58.643H147.442C145.764 56.6552 144.045 54.6262 141.809 53.3056L141.974 53.0304C141.354 51.9985 141.125 50.7782 141.328 49.5914C141.366 49.2982 141.467 49.0168 141.624 48.766C141.764 48.5812 141.947 48.432 142.156 48.3305C142.365 48.2289 142.595 48.1779 142.827 48.1814C145.368 51.1535 147.026 54.7774 147.614 58.643Z" fill="#FF9E10"/>
<path d="M145.592 172.469C145.726 172.614 145.828 172.786 145.889 172.974C145.951 173.161 145.972 173.36 145.95 173.556C145.878 173.715 145.774 173.858 145.645 173.976C145.516 174.095 145.365 174.185 145.2 174.244C137.678 178.341 129.581 181.279 121.182 182.958C120.507 183.164 119.785 183.152 119.118 182.924C118.32 182.553 117.935 181.645 117.633 180.812C115.588 175.14 114.005 169.311 112.9 163.383C114.644 162.09 116.079 160.427 117.103 158.514H117.158C122.392 157.537 126.196 152.894 128.383 148.038C129.806 144.796 130.824 141.391 131.416 137.9C133.61 150.306 138.444 162.095 145.592 172.469Z" fill="#2AACF4"/>
<path d="M138.295 54.8463C138.32 54.5474 138.377 54.2522 138.467 53.9659C138.554 53.645 138.714 53.3485 138.934 53.0992C142.157 56.1334 144.34 60.1074 145.173 64.455H145.118C143.508 62.0184 141.485 59.8816 139.141 58.1409C138.919 57.9819 138.69 57.8349 138.453 57.7007H138.769C138.329 56.8181 138.164 55.8238 138.295 54.8463Z" fill="#FF9E10"/>
<path d="M143.501 70.5146L143.632 70.6385C143.474 70.948 143.309 71.2506 143.13 71.5532L143.501 70.5146Z" fill="#FFC33E"/>
<path d="M140.289 76.306C140.187 76.4286 140.058 76.5252 139.911 76.588C137.023 80.6736 133.636 84.3822 129.828 87.6275C128.81 88.5079 127.764 89.3401 126.691 90.138C125.314 91.2328 123.782 92.116 122.145 92.7585C120.708 93.2327 119.2 93.4538 117.688 93.412C117.309 93.412 116.931 93.412 116.567 93.3501C114.992 93.2264 113.441 92.8886 111.958 92.3459C108.232 91.0171 105.063 88.4708 102.962 85.1186C100.862 81.7663 99.9529 77.8038 100.382 73.8712H100.327C100.21 74.5521 100.014 75.2169 99.7426 75.8521C98.8157 78.7533 98.2407 81.7553 98.03 84.7937C96.7834 82.3495 95.9204 79.7281 95.4713 77.0214C94.7835 73.376 94.6459 69.6618 94.2745 65.9682C95.3882 64.0781 96.8657 62.4276 98.6215 61.1122C97.5244 58.9948 97.0476 56.6106 97.2459 54.2341C97.3635 52.3621 98.0525 50.5712 99.2199 49.103C99.811 48.3801 100.565 47.807 101.419 47.4305C102.274 47.054 103.205 46.8847 104.138 46.9364C104.835 47.0037 105.507 47.2296 106.103 47.5968C106.699 47.964 107.203 48.4628 107.577 49.0549C115.897 48.963 123.934 46.0179 130.343 40.7117C130.515 40.567 130.717 40.4635 130.935 40.4091C131.313 40.0651 143.831 71.8009 140.289 76.306Z" fill="#FFC33E"/>
<path d="M138.797 90.248C138.439 91.7131 136.919 96.8098 136.08 99.2928L135.426 99.5335C128.012 102.347 121.678 107.435 117.33 114.067C117.95 114.521 118.524 115.035 119.043 115.601C121.825 118.506 124.214 121.765 126.148 125.292C127.723 124.886 130.096 124.336 132.826 123.731C132.669 128.478 132.209 133.211 131.451 137.9C130.85 141.399 129.822 144.81 128.39 148.059C127.738 149.505 126.95 150.887 126.038 152.186C125.699 152.677 125.334 153.15 124.944 153.603C122.881 156.051 120.281 157.936 117.165 158.52H117.11C116.083 160.434 114.646 162.097 112.9 163.39C111.528 164.415 109.924 165.085 108.23 165.344C109.36 165.947 110.287 166.869 110.897 167.996C111.507 169.122 111.772 170.403 111.66 171.679C111.548 172.954 111.063 174.169 110.266 175.172C109.469 176.175 108.395 176.921 107.178 177.318C108.029 177.383 108.849 177.661 109.563 178.128C110.278 178.594 110.863 179.234 111.263 179.987C111.951 181.542 111.263 183.715 109.62 184.19C111.315 185.867 112.756 187.784 113.898 189.878C98.0438 193.304 81.5729 192.572 66.0858 187.751C50.5987 182.93 36.622 174.185 25.5138 162.365C23.9318 160.687 22.414 158.949 20.9604 157.152C21.3387 156.581 29.7232 136.586 29.8264 136.318C32.4538 129.646 37.3373 122.073 35.3701 115.078C32.6877 105.517 30.5967 89.3263 37.6606 80.9832C44.0847 73.4172 48.9888 73.658 51.5062 73.3347C53.2602 73.1077 55.1173 72.1379 55.5575 70.4252C53.776 76.8838 56.0045 83.7344 61.6996 87.4486C63.1644 88.4156 64.7975 89.0992 66.5143 89.4639C63.9646 91.3922 62.2022 94.1812 61.5552 97.3119C61.252 98.8679 61.3089 100.473 61.7213 102.004C62.1338 103.534 62.891 104.95 63.935 106.143C65.7234 108.083 68.2614 109.163 70.8132 109.789L71.7142 109.988C72.7084 110.195 73.7146 110.34 74.7268 110.422C75.2289 110.47 75.7379 110.49 76.24 110.504C77.4066 110.532 78.5738 110.483 79.7341 110.36C82.1497 110.133 84.4918 109.407 86.6123 108.227C88.4698 109.8 90.5881 111.036 92.8714 111.88C96.6976 113.336 100.863 113.656 104.867 112.801L105.555 112.629C108.024 111.983 110.417 110.766 111.889 108.695C113.361 106.625 113.733 103.88 113.444 101.308C113.444 101.033 113.375 100.758 113.334 100.483C114.168 100.512 114.991 100.294 115.701 99.8557C116.411 99.4174 116.976 98.7787 117.323 98.0201C117.67 97.2615 117.785 96.417 117.653 95.5932C117.521 94.7694 117.147 94.0032 116.58 93.3913C116.952 93.4257 117.323 93.4395 117.701 93.4464C119.098 93.4826 120.491 93.2969 121.828 92.8961L122.138 92.7929C122.632 92.6221 123.112 92.4152 123.575 92.1739C124.539 91.6636 125.459 91.0746 126.327 90.4131L126.664 90.1724C127.049 89.8904 127.434 89.6015 127.812 89.2988C128.5 88.7692 129.147 88.2258 129.8 87.6687C132.041 87.8296 134.257 88.2355 136.41 88.8793L136.836 89.01C137.359 89.175 137.875 89.3539 138.398 89.5465C138.55 89.5876 138.684 89.6799 138.776 89.8078C138.839 89.9466 138.846 90.104 138.797 90.248Z" fill="#7D57C9"/>
<path d="M136.437 88.8449L136.857 88.9756C137.38 89.1406 137.896 89.3195 138.418 89.512C138.573 89.5518 138.709 89.6442 138.804 89.7734C138.86 89.9266 138.86 90.0948 138.804 90.248C138.439 91.7131 136.919 96.8098 136.052 99.2859L135.399 99.5335C127.984 102.347 121.65 107.435 117.302 114.067C116.769 113.668 116.158 113.386 115.507 113.242C115.391 109.199 115.065 105.165 114.531 101.157L113.403 101.274C113.403 100.999 113.334 100.717 113.286 100.448C114.121 100.479 114.946 100.261 115.658 99.8229C116.369 99.3843 116.934 98.7445 117.282 97.9845C117.63 97.2245 117.744 96.3785 117.61 95.5535C117.477 94.7285 117.102 93.9617 116.532 93.3501C116.904 93.3913 117.282 93.4051 117.653 93.412C119.166 93.4548 120.674 93.2336 122.11 92.7585C123.749 92.1191 125.282 91.2356 126.657 90.138C127.73 89.3401 128.782 88.5078 129.8 87.6274C132.05 87.7933 134.275 88.2014 136.437 88.8449Z" fill="#6648AF"/>
<path d="M129.828 87.6275C135.155 83.0741 139.65 77.6278 143.109 71.5326C141.046 77.3515 138.797 83.1292 136.417 88.8243C134.269 88.1912 132.06 87.79 129.828 87.6275Z" fill="#FF9E10"/>
<path d="M132.833 123.724C132.672 128.473 132.213 133.208 131.458 137.9C130.818 141.394 129.855 148.74 128.383 151.979C126.189 156.835 122.406 157.551 117.172 158.527H117.117C117.644 157.56 118.077 156.544 118.41 155.494C119.717 151.333 119.62 146.896 119.352 142.515C122.31 140.376 125.205 138.14 128.012 135.816C128.692 135.357 129.201 134.684 129.456 133.904C129.53 133.275 129.433 132.638 129.174 132.06C128.354 129.735 127.347 127.481 126.162 125.32C127.73 124.886 130.096 124.336 132.833 123.724Z" fill="#6648AF"/>
<path d="M120.962 78.1081C121.084 77.9908 121.212 77.8806 121.347 77.778L121.457 77.6886C122.3 77.001 123.361 76.6375 124.449 76.6637C125.263 76.6911 126.044 76.9979 126.659 77.5328C127.274 78.0676 127.686 78.7978 127.826 79.6007C127.865 80.7461 127.495 81.868 126.781 82.7646C125.733 84.2902 124.347 85.5521 122.729 86.4513C122.996 85.6324 123.053 84.7598 122.894 83.9133C122.755 83.3728 122.522 82.8608 122.207 82.4001C121.782 81.7231 121.286 81.0936 120.728 80.5223C120.413 80.1422 119.983 79.8744 119.503 79.7589C119.925 79.155 120.415 78.6012 120.962 78.1081Z" fill="#252849"/>
<path d="M122.241 82.3657C122.556 82.8264 122.789 83.3384 122.929 83.8789C123.087 84.7253 123.03 85.598 122.764 86.4169L122.413 86.6095C121.659 87.0755 120.765 87.2607 119.889 87.1322C119.38 86.9829 118.923 86.6923 118.573 86.2942C118.222 85.8962 117.992 85.4069 117.908 84.8831C117.755 83.8336 117.913 82.7625 118.362 81.8017C118.664 81.0694 119.055 80.3765 119.524 79.7382C120.004 79.8537 120.434 80.1216 120.748 80.5017C121.311 81.068 121.811 81.6929 122.241 82.3657Z" fill="#FF7900"/>
<path d="M98.03 84.8143C98.7138 86.1245 99.5646 87.3406 100.561 88.4322C103.422 91.5274 107.866 93.3844 111.951 92.3596C113.432 92.9023 114.98 93.2402 116.553 93.3638C117.108 93.9766 117.471 94.7389 117.597 95.5561C117.723 96.3733 117.606 97.2095 117.261 97.961C116.916 98.7124 116.358 99.3461 115.656 99.7833C114.954 100.221 114.14 100.442 113.313 100.421C113.361 100.689 113.396 100.971 113.43 101.246C113.712 103.825 113.361 106.535 111.876 108.633C110.273 110.882 107.57 112.127 104.867 112.76C101.685 113.441 98.39 113.387 95.2325 112.601C92.075 111.816 89.1384 110.32 86.6467 108.227C88.0173 107.464 89.194 106.396 90.0857 105.105C92.383 101.721 92.2111 97.2844 91.8121 93.2125C91.2412 87.4073 90.3677 81.5609 91.0624 75.7627C91.437 72.3158 92.5313 68.986 94.2745 65.9888C94.6528 69.6824 94.8179 73.3966 95.4713 77.042C95.9228 79.7481 96.7856 82.3692 98.03 84.8143Z" fill="#2AACF4"/>
<path d="M111.958 92.3459C107.873 93.3707 103.429 91.5136 100.568 88.4184C99.5715 87.3269 98.7207 86.1108 98.0368 84.8005C98.2442 81.7618 98.8193 78.7593 99.7495 75.859C100.019 75.2236 100.213 74.5587 100.327 73.8781H100.382C99.9521 77.8117 100.861 81.7754 102.963 85.1281C105.065 88.4807 108.237 91.0262 111.965 92.3527L111.958 92.3459Z" fill="#FF9E10"/>
<path d="M82.4441 128.944V128.986C80.7032 129.732 79.036 130.639 77.4643 131.696C77.5543 130.692 77.4253 129.68 77.086 128.731C76.8972 128.271 76.5701 127.881 76.1499 127.615C75.7297 127.349 75.2373 127.22 74.7406 127.246C73.8396 127.376 73.1999 128.167 72.6771 128.896C71.501 130.464 70.3317 132.04 69.1624 133.608C69.6645 132.232 67.6699 130.967 66.2942 131.544C64.9186 132.122 64.2308 133.642 63.77 135.052C63.1742 136.849 62.7144 138.689 62.3943 140.555C61.8432 129.597 65.1616 118.795 71.7692 110.036C73.2613 110.346 74.7785 110.519 76.3019 110.552C78.9159 116.479 80.9721 122.636 82.4441 128.944Z" fill="#6648AF"/>
<path d="M118.293 142.852C112.263 146.695 106.073 150.264 99.722 153.561C96.5535 155.198 93.3437 156.766 90.0926 158.266C86.9249 159.814 83.6574 161.149 80.3119 162.262C76.976 163.294 73.4337 163.892 69.9259 163.218C66.7871 162.54 63.883 161.045 61.5071 158.885C58.977 156.563 56.7701 153.912 54.9453 151.003C52.9644 148.024 51.1004 144.964 49.2777 141.889C45.1508 134.905 41.306 127.757 37.7431 120.443C37.3992 119.755 36.3331 120.361 36.677 121.069C39.9189 127.759 43.4153 134.319 47.1661 140.747C49.037 143.939 50.9629 147.103 52.9575 150.212C54.775 153.207 56.9104 155.997 59.3267 158.534C61.5362 160.819 64.2198 162.592 67.1884 163.727C70.4126 164.813 73.8703 165.008 77.1961 164.291C80.6706 163.533 84.0468 162.379 87.2588 160.852C90.6199 159.376 93.9421 157.817 97.2252 156.175C104.665 152.461 111.907 148.361 118.919 143.891C119.586 143.492 118.967 142.426 118.293 142.852Z" fill="#6648AF"/>
<path d="M114.311 113.304C103.278 117.001 92.7065 121.952 82.8018 128.057C82.114 128.477 82.7536 129.543 83.4277 129.123C93.2382 123.069 103.711 118.16 114.641 114.493C115.39 114.246 115.067 113.049 114.311 113.304Z" fill="#6648AF"/>
<path d="M116.89 116.172C115.001 117.245 113.166 118.391 111.387 119.611C111.255 119.698 111.162 119.833 111.126 119.987C111.09 120.142 111.115 120.304 111.195 120.44C111.275 120.577 111.405 120.678 111.557 120.722C111.709 120.766 111.872 120.75 112.013 120.677C113.802 119.448 115.636 118.302 117.516 117.238C117.648 117.15 117.741 117.016 117.777 116.861C117.813 116.707 117.788 116.545 117.708 116.408C117.628 116.272 117.498 116.171 117.346 116.127C117.194 116.083 117.031 116.099 116.89 116.172Z" fill="#6648AF"/>
<path d="M118.747 119.728C117.227 121.152 115.592 122.448 113.857 123.6C113.719 123.687 113.62 123.823 113.579 123.98C113.539 124.137 113.559 124.303 113.636 124.446C113.721 124.586 113.857 124.687 114.015 124.728C114.173 124.769 114.341 124.747 114.482 124.666C116.304 123.456 118.023 122.096 119.62 120.601C120.205 120.058 119.332 119.191 118.747 119.728Z" fill="#6648AF"/>
<path d="M122.475 124.109C121.085 125.498 119.531 126.71 117.846 127.72C117.714 127.808 117.62 127.942 117.585 128.097C117.549 128.251 117.574 128.413 117.654 128.55C117.734 128.686 117.863 128.787 118.016 128.831C118.168 128.875 118.331 128.859 118.472 128.786C120.245 127.716 121.884 126.439 123.355 124.983C123.912 124.419 123.039 123.552 122.475 124.109Z" fill="#6648AF"/>
<path d="M126.065 127.995C125.923 127.918 125.756 127.897 125.599 127.938C125.442 127.979 125.306 128.078 125.219 128.215C125.095 128.38 125.02 128.484 124.862 128.669C124.703 128.855 124.593 128.993 124.449 129.151C124.153 129.467 123.85 129.777 123.527 130.072C122.908 130.634 122.235 131.134 121.519 131.565C121.441 131.601 121.371 131.653 121.314 131.718C121.257 131.783 121.215 131.858 121.189 131.941C121.163 132.023 121.154 132.109 121.164 132.195C121.173 132.28 121.2 132.363 121.244 132.438C121.287 132.512 121.345 132.577 121.415 132.627C121.484 132.678 121.564 132.713 121.648 132.732C121.732 132.75 121.819 132.75 121.904 132.733C121.988 132.716 122.068 132.681 122.138 132.631C123.746 131.647 125.148 130.36 126.265 128.841C126.347 128.702 126.373 128.536 126.336 128.378C126.299 128.22 126.202 128.083 126.065 127.995Z" fill="#6648AF"/>
<path d="M129.105 132.851C128.988 132.739 128.831 132.676 128.669 132.676C128.506 132.676 128.35 132.739 128.232 132.851L124.222 136.187C124.108 136.304 124.044 136.461 124.044 136.624C124.044 136.787 124.108 136.944 124.222 137.061C124.34 137.173 124.496 137.236 124.659 137.236C124.821 137.236 124.978 137.173 125.095 137.061L129.105 133.745C129.166 133.688 129.214 133.618 129.247 133.541C129.279 133.465 129.296 133.382 129.296 133.298C129.296 133.215 129.279 133.132 129.247 133.055C129.214 132.978 129.166 132.909 129.105 132.851Z" fill="#6648AF"/>
<path d="M48.7825 87.9507C48.7019 87.4772 48.4587 87.0467 48.0947 86.7333C47.7426 86.3318 47.3634 85.9549 46.9598 85.6053C46.1512 84.9088 45.2594 84.315 44.3048 83.8376C43.617 83.4799 42.9705 84.5254 43.6858 84.9037C44.4158 85.2552 45.1074 85.6817 45.7492 86.1762C46.0838 86.4398 46.403 86.7222 46.7053 87.0222C47.0138 87.2661 47.2829 87.5561 47.5032 87.8819C47.572 88.0401 47.5995 88.0401 47.4275 88.1433C47.2605 88.23 47.0783 88.2837 46.891 88.3015C46.5164 88.3279 46.1401 88.3094 45.7699 88.2465C44.9881 88.0932 44.1863 88.07 43.3969 88.1777C43.2935 88.2074 43.1995 88.2635 43.1244 88.3405C43.0492 88.4175 42.9954 88.5129 42.9684 88.617C42.9413 88.7212 42.9418 88.8306 42.9699 88.9345C42.998 89.0384 43.0528 89.1331 43.1287 89.2094C44.0263 89.9317 44.8531 90.7378 45.5979 91.6168C45.7974 91.8438 45.99 92.0845 46.1688 92.3046C46.2445 92.4009 46.3064 92.5109 46.3889 92.6072C45.9869 92.5269 45.5914 92.4166 45.2059 92.2771C42.959 91.4507 40.8491 90.2914 38.9468 88.838C38.314 88.3565 37.6949 89.4295 38.3277 89.9041C39.5348 90.8195 40.8243 91.6208 42.1795 92.2977C42.8673 92.621 43.4932 92.9167 44.1742 93.185C44.7899 93.472 45.4359 93.6889 46.1 93.8315C46.3697 93.9062 46.6558 93.8968 46.92 93.8046C47.1842 93.7124 47.4141 93.5419 47.5788 93.3157C47.9778 92.6279 47.4825 91.9882 47.0905 91.4723C46.5016 90.7389 45.8578 90.0514 45.1646 89.4158C45.6791 89.5149 46.202 89.5633 46.7259 89.5602C47.6339 89.4983 48.8788 89.0581 48.7825 87.9507Z" fill="#6648AF"/>
<path d="M105.912 164.195C101.506 164.553 97.1152 165.05 92.7407 165.687C92.3211 165.749 92.2111 166.286 92.3693 166.595C92.7682 167.386 93.7036 167.551 94.4808 167.758C95.5126 168.047 96.5443 168.315 97.6035 168.556C98.6628 168.796 99.667 169.03 100.761 169.243C101.459 169.341 102.149 169.493 102.824 169.697C101.125 170.557 98.8622 170.777 97.8511 172.511C97.1633 173.694 98.7247 174.34 99.6051 174.574C100.97 174.894 102.379 174.984 103.773 174.842C104.564 174.801 104.564 173.57 103.773 173.611C102.666 173.717 101.55 173.684 100.451 173.515C99.9384 173.452 99.4455 173.278 99.0067 173.006V172.971C99.0816 172.884 99.162 172.801 99.2474 172.724C99.4031 172.586 99.5686 172.459 99.7426 172.345C101.235 171.389 103.044 171.162 104.468 170.062C104.819 169.794 104.619 169.298 104.344 169.092C103.619 168.605 102.79 168.296 101.923 168.191C100.912 167.998 99.9008 167.799 98.8966 167.572C97.8924 167.345 96.9638 167.125 96.0009 166.884L94.9829 166.609C98.6146 166.114 102.258 165.72 105.912 165.426C106.696 165.364 106.703 164.133 105.912 164.195Z" fill="#6648AF"/>
<path d="M36.3331 151.078C34.3372 148.826 31.9305 146.975 29.2417 145.624C28.5539 145.259 27.9142 146.312 28.6227 146.69C30.7308 147.781 32.6699 149.171 34.3797 150.817C34.8035 151.191 35.1926 151.603 35.5421 152.048C35.6193 152.135 35.6757 152.239 35.7072 152.351C35.7072 152.481 35.7828 152.392 35.7072 152.447C35.412 152.506 35.1082 152.506 34.813 152.447C33.4775 152.427 32.1502 152.233 30.865 151.869C30.2941 151.711 29.792 152.488 30.2666 152.901C31.0988 153.557 31.8912 154.262 32.6395 155.013C32.8115 155.205 33.231 155.7 32.8596 155.879C32.4882 156.058 32.0549 155.838 31.7591 155.742C29.8703 155.128 28.1348 154.117 26.6693 152.777C26.0778 152.241 25.2043 153.114 25.7958 153.651C26.7752 154.548 27.8664 155.316 29.0423 155.934C30.1174 156.599 31.3277 157.015 32.5845 157.152C32.8585 157.174 33.1334 157.121 33.3801 157C33.6268 156.879 33.8362 156.693 33.9863 156.463C34.1363 156.233 34.2214 155.966 34.2325 155.691C34.2437 155.417 34.1804 155.144 34.0495 154.903C33.7572 154.369 33.3594 153.901 32.8803 153.527C33.7481 153.649 34.6251 153.693 35.5008 153.658C36.1474 153.658 36.8008 153.396 36.959 152.688C36.98 152.39 36.9347 152.091 36.8265 151.813C36.7183 151.535 36.5498 151.284 36.3331 151.078Z" fill="#6648AF"/>
<path d="M122.667 57.515C122.621 57.3598 122.516 57.2287 122.375 57.1492C122.234 57.0697 122.068 57.0479 121.911 57.0885C121.753 57.132 121.62 57.2359 121.538 57.3776C121.457 57.5193 121.435 57.6874 121.478 57.8451C121.987 59.3352 122.322 60.8794 122.475 62.4466L118.176 61.7588C118.095 61.7289 118.009 61.7161 117.924 61.7212C117.838 61.7264 117.754 61.7493 117.677 61.7887C117.601 61.828 117.534 61.8828 117.48 61.9497C117.425 62.0165 117.386 62.0939 117.363 62.1769C117.341 62.2598 117.336 62.3466 117.349 62.4316C117.361 62.5166 117.392 62.5981 117.438 62.6707C117.484 62.7433 117.545 62.8055 117.616 62.8534C117.687 62.9012 117.768 62.9337 117.853 62.9487L123.004 63.7534C123.096 63.7763 123.191 63.7781 123.284 63.7588C123.376 63.7395 123.463 63.6996 123.538 63.6421C123.612 63.5845 123.673 63.5108 123.715 63.4265C123.758 63.3422 123.78 63.2494 123.782 63.155C123.661 61.2341 123.286 59.3375 122.667 57.515Z" fill="#090E3F"/>
<path d="M139.429 69.9575C139.005 69.622 138.598 69.2638 138.212 68.8845C138.026 68.692 137.841 68.4994 137.669 68.2999L137.531 68.1486L137.607 68.0936L138.191 67.7359C138.266 67.6973 138.332 67.6439 138.386 67.5789C138.439 67.5139 138.479 67.4387 138.502 67.3579C138.525 67.2771 138.532 67.1924 138.521 67.109C138.511 67.0255 138.484 66.9451 138.441 66.8725C138.398 66.8 138.342 66.7369 138.274 66.6871C138.206 66.6373 138.129 66.6019 138.047 66.5829C137.965 66.5639 137.88 66.5618 137.797 66.5768C137.714 66.5917 137.636 66.6234 137.565 66.6698L136.953 67.0481C136.725 67.1692 136.508 67.312 136.307 67.4745C136.18 67.6009 136.101 67.768 136.085 67.9466C136.068 68.1252 136.115 68.3038 136.217 68.4512C136.355 68.6576 136.534 68.8433 136.692 69.0359C137.264 69.6867 137.895 70.2831 138.577 70.8173C138.692 70.9322 138.849 70.9964 139.012 70.9958C139.175 70.9951 139.332 70.9297 139.447 70.8139C139.562 70.698 139.626 70.5413 139.625 70.3781C139.624 70.2149 139.559 70.0587 139.443 69.9438L139.429 69.9575Z" fill="#090E3F"/>
<path d="M143.687 70.776C142.017 69.0554 140.614 67.094 139.526 64.9571C138.985 63.8974 138.525 62.7983 138.15 61.6694C137.806 60.6239 137.462 59.3927 138.15 58.4366C138.632 57.8039 137.559 57.1917 137.084 57.8107C136.77 58.3109 136.572 58.8754 136.505 59.4623C136.439 60.0493 136.505 60.6437 136.699 61.2017C137.052 62.5091 137.534 63.7785 138.136 64.9915C139.313 67.4477 140.881 69.6964 142.779 71.6495C143.364 72.2204 144.237 71.3469 143.687 70.776Z" fill="#FF9E10"/>
<path d="M126.444 52.1844C124.454 51.4326 122.346 51.039 120.219 51.022C119.734 50.9779 119.25 51.1206 118.867 51.421C118.483 51.7214 118.229 52.1568 118.155 52.6384C118.097 53.1251 118.233 53.6152 118.535 54.0017C118.836 54.3883 119.279 54.6399 119.765 54.7018C121.571 54.693 123.364 55.0051 125.061 55.6235C127.29 56.4489 128.665 53.0167 126.444 52.1844Z" fill="#090E3F"/>
<path opacity="0.31" d="M131.98 66.319C129.539 65.2322 126.1 64.5513 123.403 65.7137C123.152 65.7931 122.92 65.9228 122.721 66.0949C122.521 66.267 122.359 66.4779 122.244 66.7147C122.129 66.9515 122.063 67.2093 122.051 67.4724C122.038 67.7355 122.08 67.9983 122.172 68.2449C122.339 68.5689 122.545 68.8714 122.784 69.1459C124.043 70.7279 126.409 70.2326 128.328 70.5697C130.247 70.9067 131.079 72.6331 133.047 72.8395C133.426 72.868 133.807 72.8077 134.159 72.6632C134.512 72.5187 134.825 72.2941 135.076 72.0072C137.043 69.7443 134.126 67.2613 131.98 66.319Z" fill="#E23D69"/>
<path d="M114.221 55.3621C114.331 54.9769 113.719 54.8669 113.616 55.2452C113.313 56.3732 112.928 57.9964 111.649 58.3679C111.399 58.4536 111.129 58.4592 110.876 58.384C110.624 58.3088 110.401 58.1564 110.239 57.9483C110.103 57.7061 110.022 57.437 110.002 57.16C109.981 56.883 110.022 56.605 110.122 56.3457C110.507 55.032 111.607 54.3992 112.605 53.5944C113.056 53.2939 113.424 52.884 113.674 52.4029C113.924 51.9218 114.049 51.3852 114.035 50.8432C113.994 50.4511 113.348 50.4924 113.416 50.8913C113.554 52.0675 112.522 52.8791 111.683 53.505C110.726 54.1066 109.986 54.9982 109.571 56.0499C109.39 56.4685 109.333 56.9306 109.407 57.3807C109.482 57.8309 109.685 58.25 109.991 58.588C110.351 58.8641 110.792 59.0137 111.246 59.0137C111.7 59.0137 112.141 58.8641 112.502 58.588C113.595 57.8795 113.912 56.552 114.221 55.3621Z" fill="white"/>
<path d="M105.5 64.2349C105.239 64.8873 104.75 65.4226 104.124 65.7412C103.994 65.8035 103.85 65.8328 103.706 65.8265C103.562 65.8202 103.421 65.7786 103.297 65.7052C103.172 65.6318 103.068 65.5289 102.993 65.4057C102.917 65.2824 102.874 65.1425 102.865 64.9984C102.864 64.6892 102.954 64.3864 103.124 64.1282C103.294 63.87 103.537 63.6678 103.821 63.5471C104.31 63.2788 105.018 63.2307 105.28 62.6598C105.486 62.199 105.231 61.7588 105.073 61.3323C104.819 60.6445 105.259 60.1287 105.823 59.7848C106.772 59.2001 108.278 58.6911 108.072 57.2742C108.017 56.8822 107.384 56.9303 107.46 57.3224C107.646 58.6086 105.74 58.9525 105.011 59.6197C104.823 59.7768 104.668 59.9707 104.557 60.1894C104.446 60.4082 104.381 60.6473 104.365 60.8921C104.364 61.129 104.413 61.3633 104.509 61.5799C104.626 61.7939 104.706 62.0267 104.743 62.2678C104.743 62.5842 104.413 62.6667 104.172 62.7561C103.912 62.8443 103.661 62.9572 103.422 63.0931C102.951 63.3476 102.579 63.7551 102.37 64.2487C102.278 64.4519 102.229 64.6722 102.227 64.8955C102.225 65.1187 102.269 65.34 102.358 65.5448C102.447 65.7497 102.578 65.9336 102.742 66.0847C102.907 66.2359 103.101 66.3508 103.312 66.4222C104.626 66.7523 105.486 65.5142 106.029 64.5307C106.249 64.1524 105.692 63.8841 105.5 64.2349Z" fill="white"/>
<path d="M111.621 62.254C111.593 62.2251 111.559 62.2021 111.522 62.1864C111.485 62.1707 111.445 62.1627 111.404 62.1627C111.364 62.1627 111.324 62.1707 111.287 62.1864C111.25 62.2021 111.216 62.2251 111.188 62.254L110.878 62.6117C110.786 62.7082 110.685 62.7957 110.576 62.873C110.471 62.9581 110.349 63.0192 110.218 63.0519H110.184H110.012C110.074 63.0519 110.012 63.0519 109.957 63.0519H109.881H109.819H109.764L109.682 63.0106L109.627 62.9625L109.585 62.9006C109.588 62.887 109.588 62.8729 109.585 62.8593C109.575 62.7978 109.575 62.7351 109.585 62.6736C109.597 62.6156 109.618 62.5599 109.647 62.5085C109.682 62.426 109.723 62.3434 109.764 62.2609L110.356 61.1054C110.376 61.0685 110.388 61.028 110.392 60.9863C110.395 60.9446 110.391 60.9026 110.378 60.8628C110.365 60.8229 110.344 60.7861 110.317 60.7546C110.289 60.723 110.255 60.6974 110.218 60.6792C110.18 60.661 110.139 60.6507 110.097 60.6489C110.055 60.647 110.013 60.6537 109.974 60.6684C109.935 60.6832 109.899 60.7058 109.869 60.7348C109.839 60.7637 109.815 60.7986 109.798 60.8371L109.193 62.027C109.085 62.189 109.013 62.3721 108.981 62.5642C108.949 62.7563 108.958 62.953 109.007 63.1413C109.077 63.2971 109.181 63.4347 109.312 63.5433C109.443 63.6519 109.598 63.7286 109.764 63.7672C110.11 63.8504 110.475 63.7961 110.782 63.6159C111.14 63.4001 111.451 63.1147 111.697 62.7767C111.74 62.744 111.773 62.7005 111.793 62.6506C111.813 62.6008 111.82 62.5465 111.812 62.4932C111.805 62.4399 111.783 62.3897 111.749 62.3477C111.716 62.3056 111.671 62.2733 111.621 62.254Z" fill="white"/>
<path d="M124.098 95.5167C123.828 93.9255 123.564 92.3367 123.307 90.7501C123.241 90.5131 123.084 90.3119 122.87 90.1907C122.656 90.0694 122.402 90.0381 122.165 90.1036C121.934 90.1755 121.738 90.3327 121.618 90.5434C121.498 90.7541 121.463 91.0026 121.519 91.2385C121.787 92.8273 122.048 94.4231 122.31 96.0119C122.379 96.2469 122.536 96.4459 122.75 96.5666C122.963 96.6872 123.215 96.7202 123.452 96.6584C123.684 96.5851 123.879 96.4266 123.999 96.2147C124.119 96.0029 124.155 95.7535 124.098 95.5167Z" fill="white"/>
<path d="M132.716 94.9527L129.793 90.5025C129.669 90.2909 129.466 90.1372 129.229 90.0753C128.991 90.0134 128.739 90.0483 128.528 90.1724C128.316 90.2964 128.162 90.4994 128.1 90.7368C128.039 90.9741 128.073 91.2263 128.197 91.4379L131.114 95.8881C131.243 96.0903 131.445 96.2347 131.678 96.2911C131.911 96.3474 132.157 96.3114 132.365 96.1905C132.572 96.0695 132.724 95.8731 132.79 95.6424C132.855 95.4117 132.829 95.1645 132.716 94.9527Z" fill="white"/>
<path d="M134.635 85.4677L129.587 83.8032C129.35 83.7415 129.098 83.7744 128.885 83.8951C128.672 84.0158 128.514 84.2147 128.445 84.4498C128.387 84.6866 128.421 84.9368 128.542 85.1491C128.662 85.3613 128.859 85.5196 129.092 85.5915L134.14 87.256C134.377 87.3178 134.629 87.2848 134.842 87.1641C135.055 87.0435 135.213 86.8445 135.282 86.6095C135.34 86.3726 135.306 86.1224 135.185 85.9102C135.065 85.6979 134.868 85.5396 134.635 85.4677Z" fill="white"/>
<path d="M137.607 25.7655C135.157 29.1993 132.047 32.1104 128.459 34.3288C124.736 36.6032 120.597 38.1115 116.285 38.7652C111.545 39.5149 106.614 39.5974 102.088 41.3376C98.5114 42.7132 95.0861 45.1068 93.5523 48.7385C92.0185 52.3701 92.7751 56.5039 92.1767 60.3557C91.9591 62.194 91.1392 63.9087 89.845 65.2323C88.5167 66.3536 86.9848 67.2083 85.3329 67.7497C82.2378 68.9671 78.6474 70.1226 77.4299 73.5754C76.7421 75.5976 77.0792 77.8124 77.6707 79.807C78.3585 82.0424 79.3421 84.154 80.0643 86.3756C81.5087 90.8396 81.997 95.8468 79.8648 100.18C78.9553 102.113 77.4989 103.737 75.676 104.85C73.9297 105.87 71.9012 106.299 69.8915 106.075C68.8943 105.949 67.9314 105.629 67.0577 105.132C66.9801 105.097 66.8923 105.092 66.8112 105.118C66.7301 105.144 66.6616 105.199 66.6188 105.273C66.576 105.346 66.562 105.433 66.5796 105.517C66.5971 105.6 66.6449 105.674 66.7138 105.724C70.2767 107.787 74.8919 106.811 77.8289 104.101C81.0891 101.088 82.279 96.4384 81.9557 92.1326C81.7296 89.6236 81.1555 87.1583 80.25 84.8074C79.3329 82.6672 78.5743 80.4626 77.9802 78.2113C77.54 76.1066 77.6363 73.8368 79.0325 72.0898C80.1514 70.8361 81.5719 69.8891 83.1594 69.3385C86.2959 68.0248 89.9275 67.0894 91.709 63.891C93.628 60.452 92.8989 56.2081 93.3253 52.4389C93.5225 50.4564 94.2337 48.5597 95.3887 46.9364C96.6075 45.3483 98.1563 44.0436 99.9283 43.1122C104.055 40.8217 108.87 40.4091 113.485 39.8451C115.891 39.5867 118.273 39.1429 120.611 38.5176C122.629 37.9456 124.587 37.1785 126.457 36.2272C130.222 34.3151 133.579 31.6893 136.341 28.4961C137.011 27.7258 137.639 26.9233 138.226 26.0888C138.48 25.7449 137.882 25.401 137.607 25.7655Z" fill="#242C6B"/>
<path d="M132.696 21.8793C131.169 25.0983 128.17 27.2787 124.889 28.4755C120.879 29.9405 116.546 29.8924 112.35 29.6104C108.024 29.3284 103.677 28.785 99.3437 29.2871C95.531 29.6173 91.9111 31.108 88.9715 33.5584C86.3549 35.8426 84.4837 38.8591 83.5996 42.218C83.0975 44.1576 83.1044 46.1798 82.6986 48.1401C82.3441 49.9254 81.4197 51.5473 80.0643 52.7622C77.4987 55.1007 74.0803 56.2494 71.164 58.0652C68.0511 59.957 65.3459 62.4495 63.206 65.3973C61.1556 68.263 59.9628 71.6529 59.7669 75.1711C59.556 78.5849 60.4851 81.972 62.4081 84.8005C62.8833 85.4702 63.4198 86.0942 64.0107 86.6645C64.334 86.974 64.8223 86.4857 64.4991 86.1762C62.0538 83.7424 60.6085 80.4813 60.4478 77.0351C60.2419 73.5333 61.1081 70.052 62.9308 67.0549C64.8549 63.9464 67.4376 61.298 70.4968 59.2964C71.9557 58.3362 73.4717 57.4656 75.0364 56.6896C76.5912 55.9448 78.082 55.0729 79.4934 54.0828C80.7995 53.1652 81.8696 51.9514 82.6161 50.5405C83.5171 48.7041 83.5996 46.6406 83.8404 44.646C84.2624 41.1185 85.7942 37.8164 88.2149 35.216C90.8277 32.4902 94.2691 30.7054 98.0025 30.14C102.191 29.4109 106.469 29.8305 110.679 30.14C114.888 30.4495 119.311 30.7246 123.472 29.6035C126.814 28.8017 129.807 26.9387 132.001 24.2936C132.503 23.6359 132.937 22.9283 133.294 22.182C133.48 21.8312 132.888 21.4804 132.696 21.8793Z" fill="#242C6B"/>
<path d="M155.084 21.8243C152.666 21.1348 150.127 20.9787 147.642 21.3671C145.158 21.7554 142.787 22.6789 140.695 24.0735C140.324 24.3211 140.695 24.9195 141.039 24.6719C143.054 23.3287 145.338 22.4403 147.731 22.0686C150.125 21.6968 152.57 21.8505 154.898 22.519C154.991 22.5437 155.089 22.5307 155.171 22.483C155.254 22.4352 155.314 22.3567 155.339 22.2645C155.363 22.1724 155.35 22.0743 155.303 21.9917C155.255 21.9092 155.176 21.849 155.084 21.8243Z" fill="#242C6B"/>
<path d="M154.802 27.3956C151.46 25.7204 147.783 24.8199 144.045 24.7613C143.953 24.7613 143.866 24.7975 143.801 24.862C143.737 24.9265 143.701 25.014 143.701 25.1052C143.701 25.1964 143.737 25.2839 143.801 25.3484C143.866 25.4129 143.953 25.4491 144.045 25.4491C147.663 25.5023 151.223 26.3722 154.458 27.994C154.857 28.2004 155.201 27.5951 154.802 27.3956Z" fill="#242C6B"/>
<path d="M155.394 38.8271C154.026 35.367 151.666 32.3879 148.612 30.2638C146.895 29.0147 145.051 27.9518 143.109 27.093C142.71 26.9073 142.36 27.5057 142.765 27.6845C146.044 29.0801 149.004 31.1277 151.466 33.7029C153.925 36.3314 155.386 39.7387 155.593 43.3323C155.695 45.363 155.258 47.3846 154.328 49.1924C154.121 49.5845 154.72 49.9353 154.926 49.5432C155.738 47.8856 156.198 46.078 156.279 44.234C156.359 42.3899 156.058 40.5492 155.394 38.8271Z" fill="#242C6B"/>
<path d="M144.12 45.9391C140.827 41.1311 139.525 35.234 140.489 29.4866C140.557 29.0532 139.897 28.8675 139.801 29.3009C138.792 35.228 140.121 41.3154 143.508 46.283C143.797 46.6475 144.375 46.3036 144.12 45.9391Z" fill="#242C6B"/>
<path d="M133.356 20.1323C129.147 17.2146 124.379 15.2006 119.352 14.2171C114.753 13.3441 110 13.8096 105.658 15.5584C101.546 17.1924 98.1285 20.2018 95.9872 24.0735C93.6211 28.5649 93.1809 33.7029 92.3349 38.6208C91.5645 43.1466 90.3471 47.9681 87.0731 51.3728C84.1705 54.3854 80.1055 55.651 76.1093 56.4558C71.9825 57.2811 67.7318 57.6732 63.7287 59.0832C61.7938 59.74 59.9827 60.7164 58.3706 61.972C55.847 64.0023 53.9879 66.7405 53.032 69.8351C52.076 72.9298 52.0668 76.2395 53.0057 79.3393C54.3709 83.3887 57.2497 86.7531 61.0393 88.728C61.9493 89.1963 62.9031 89.5741 63.8869 89.856C63.9781 89.8797 64.075 89.8662 64.1563 89.8185C64.2375 89.7708 64.2965 89.6927 64.3202 89.6015C64.3439 89.5103 64.3304 89.4134 64.2827 89.3321C64.235 89.2509 64.1569 89.1919 64.0657 89.1682C62.0638 88.5677 60.2021 87.5733 58.5898 86.2433C56.9775 84.9133 55.6472 83.2746 54.6771 81.4234C53.6949 79.5377 53.1256 77.4644 53.007 75.3416C52.8884 73.2187 53.2232 71.0949 53.9893 69.1115C54.7289 67.1421 55.866 65.3459 57.3298 63.8348C58.7935 62.3238 60.5526 61.1301 62.4975 60.3281C66.2599 58.6843 70.4142 58.2028 74.4173 57.4944C78.2828 56.8065 82.2997 55.9399 85.5461 53.6151C89.2122 50.9876 91.1449 46.8676 92.2179 42.6101C93.401 37.9398 93.5936 33.0701 94.9692 28.4411C95.6137 26.1448 96.6694 23.9845 98.085 22.0651C99.4173 20.3533 101.049 18.8969 102.9 17.7662C106.702 15.4445 111.111 14.3093 115.562 14.506C120.606 14.7981 125.51 16.2756 129.876 18.8186C130.949 19.417 131.994 20.0635 133.019 20.7445C133.377 20.9783 133.721 20.3799 133.356 20.1323Z" fill="#242C6B"/>
<path d="M98.2982 60.9884C98.6215 60.6858 98.1331 60.1974 97.8167 60.5001C94.9143 63.2762 92.8524 66.8136 91.8671 70.7072C90.8848 74.6854 91.0325 78.8589 92.2936 82.7577C93.5798 86.9259 95.6639 90.8602 96.4205 95.1865C96.8106 97.2412 96.7306 99.3575 96.1866 101.377C95.6147 103.329 94.5705 105.11 93.1465 106.563C91.4449 108.26 89.281 109.419 86.9249 109.893C84.5689 110.368 82.1252 110.138 79.8992 109.232C79.4865 109.067 79.3146 109.734 79.7135 109.919C81.6416 110.706 83.7325 111.011 85.805 110.807C87.8775 110.603 89.8689 109.896 91.6064 108.748C93.3439 107.6 94.7751 106.046 95.7758 104.219C96.7765 102.393 97.3166 100.35 97.349 98.2679C97.4591 93.8246 95.5401 89.6634 94.0062 85.5915C93.1797 83.5387 92.5554 81.4102 92.1423 79.2361C91.8042 77.2041 91.7857 75.1317 92.0873 73.0939C92.7471 68.4782 94.9336 64.2164 98.2982 60.9884Z" fill="#242C6B"/>
<path d="M112.694 94.0723C112.371 93.7696 111.883 94.258 112.213 94.5537C112.568 94.9491 112.774 95.4555 112.796 95.9862C112.819 96.517 112.656 97.0391 112.336 97.4632C111.649 98.4949 110.452 99.0658 109.372 99.5954C109.328 99.623 109.291 99.6599 109.263 99.7035C109.236 99.747 109.218 99.7962 109.211 99.8475C109.205 99.8987 109.21 99.9508 109.225 100C109.241 100.049 109.268 100.094 109.303 100.132C109.868 100.821 110.226 101.657 110.333 102.542C110.441 103.427 110.295 104.324 109.912 105.129C109.529 105.933 108.925 106.613 108.171 107.087C107.416 107.562 106.542 107.812 105.651 107.808C105.56 107.808 105.472 107.844 105.408 107.909C105.343 107.973 105.307 108.061 105.307 108.152C105.307 108.243 105.343 108.33 105.408 108.395C105.472 108.459 105.56 108.496 105.651 108.496C106.638 108.501 107.608 108.234 108.453 107.724C109.298 107.214 109.986 106.48 110.442 105.604C110.897 104.728 111.101 103.743 111.033 102.758C110.964 101.773 110.625 100.826 110.053 100.022C111.236 99.4303 112.495 98.7219 113.1 97.5113C113.413 96.9712 113.543 96.3442 113.469 95.7243C113.396 95.1043 113.124 94.5247 112.694 94.0723Z" fill="#0894C4"/>
<path d="M106.318 93.4189C105.919 93.2469 105.568 93.8384 105.974 94.0104C106.437 94.2652 106.799 94.6715 106.998 95.1611C107.197 95.6508 107.222 96.194 107.068 96.6997C106.772 97.9997 105.637 98.9076 104.605 99.6298C103.46 100.314 102.416 101.154 101.503 102.127C101.112 102.586 100.818 103.119 100.637 103.695C100.457 104.423 100.399 105.176 100.465 105.923C100.593 106.787 100.491 107.67 100.169 108.482C100.022 108.81 99.7588 109.073 99.4299 109.219C99.1011 109.365 98.7298 109.384 98.3876 109.273C97.9749 109.115 97.7961 109.775 98.2019 109.961C99.5775 110.511 100.816 109.218 101.077 107.952C101.414 106.308 100.733 104.568 101.689 103.062C103.237 100.6 107.192 99.9187 107.749 96.7685C107.989 95.4617 107.584 93.9691 106.318 93.4189Z" fill="#0894C4"/>
<path d="M97.7136 106.556C97.6816 106.524 97.6436 106.498 97.6017 106.481C97.5597 106.463 97.5148 106.454 97.4694 106.454C97.424 106.454 97.379 106.463 97.3371 106.481C97.2952 106.498 97.2572 106.524 97.2252 106.556C96.6145 107.208 95.8834 107.736 95.0724 108.111C95.033 108.133 94.9985 108.162 94.9709 108.198C94.9432 108.234 94.9231 108.275 94.9115 108.318C94.9 108.362 94.8973 108.407 94.9037 108.452C94.91 108.497 94.9253 108.54 94.9486 108.578C94.9945 108.656 95.0694 108.713 95.157 108.736C95.2445 108.759 95.3377 108.747 95.4163 108.702C96.2792 108.298 97.0585 107.736 97.7136 107.044C97.7458 107.012 97.7714 106.974 97.7888 106.933C97.8063 106.891 97.8153 106.846 97.8153 106.8C97.8153 106.755 97.8063 106.71 97.7888 106.668C97.7714 106.626 97.7458 106.588 97.7136 106.556Z" fill="#0894C4"/>
<path d="M96.2692 106.081C96.2049 106.018 96.1184 105.983 96.0284 105.983C95.9384 105.983 95.852 106.018 95.7877 106.081L94.2745 107.56C94.2106 107.624 94.1748 107.711 94.1748 107.801C94.1748 107.891 94.2106 107.978 94.2745 108.042C94.3383 108.106 94.4249 108.141 94.5152 108.141C94.6055 108.141 94.6921 108.106 94.756 108.042L96.2485 106.57C96.2821 106.539 96.3094 106.502 96.3286 106.461C96.3479 106.42 96.3588 106.375 96.3607 106.33C96.3626 106.285 96.3555 106.239 96.3398 106.197C96.3241 106.154 96.3001 106.115 96.2692 106.081Z" fill="#0894C4"/>
<path d="M116.849 166.829L115.831 163.858C115.803 163.772 115.745 163.7 115.668 163.656C115.59 163.611 115.498 163.597 115.411 163.617C115.323 163.643 115.249 163.702 115.204 163.781C115.159 163.861 115.147 163.955 115.17 164.044L116.181 167.015C116.208 167.101 116.268 167.174 116.347 167.218C116.427 167.261 116.52 167.272 116.608 167.249C116.652 167.238 116.693 167.218 116.728 167.191C116.764 167.163 116.794 167.129 116.817 167.09C116.839 167.051 116.854 167.008 116.859 166.963C116.865 166.918 116.861 166.873 116.849 166.829Z" fill="#0894C4"/>
<path d="M119.6 165.908C119.208 165.041 118.809 164.174 118.417 163.301C118.37 163.221 118.294 163.164 118.205 163.141C118.116 163.117 118.022 163.13 117.942 163.177C117.863 163.223 117.805 163.3 117.782 163.389C117.759 163.478 117.772 163.572 117.818 163.651L119.008 166.251C119.028 166.295 119.057 166.334 119.093 166.367C119.129 166.399 119.171 166.423 119.217 166.437C119.263 166.452 119.311 166.457 119.359 166.452C119.407 166.446 119.453 166.431 119.495 166.407C119.536 166.383 119.572 166.35 119.6 166.311C119.629 166.272 119.648 166.228 119.658 166.181C119.668 166.134 119.668 166.085 119.658 166.038C119.648 165.991 119.628 165.946 119.6 165.908Z" fill="#0894C4"/>
<path d="M122.936 164.057L121.821 161.457C121.775 161.379 121.701 161.323 121.613 161.299C121.525 161.276 121.432 161.288 121.354 161.334C121.275 161.381 121.218 161.457 121.195 161.546C121.172 161.634 121.184 161.729 121.23 161.808L122.344 164.401C122.364 164.445 122.393 164.484 122.429 164.516C122.465 164.548 122.507 164.572 122.553 164.587C122.599 164.602 122.647 164.607 122.695 164.601C122.743 164.596 122.789 164.581 122.83 164.557C122.872 164.533 122.908 164.5 122.936 164.461C122.964 164.422 122.984 164.378 122.994 164.33C123.004 164.283 123.004 164.235 122.994 164.188C122.984 164.141 122.964 164.096 122.936 164.057Z" fill="#0894C4"/>
<path d="M119.593 170.275C119.352 169.622 119.105 168.975 118.864 168.322C118.837 168.235 118.777 168.162 118.698 168.117C118.619 168.072 118.526 168.059 118.437 168.081C118.35 168.107 118.275 168.166 118.23 168.245C118.185 168.325 118.173 168.419 118.197 168.507C118.444 169.154 118.685 169.807 118.933 170.454C118.956 170.545 119.015 170.623 119.097 170.671C119.178 170.719 119.275 170.732 119.366 170.708C119.457 170.685 119.535 170.626 119.583 170.545C119.631 170.463 119.644 170.366 119.62 170.275H119.593Z" fill="#0894C4"/>
<path d="M123.025 168.514L121.931 166.451C121.912 166.407 121.883 166.368 121.847 166.336C121.811 166.304 121.769 166.28 121.723 166.265C121.677 166.25 121.629 166.245 121.581 166.251C121.533 166.256 121.487 166.271 121.445 166.295C121.404 166.319 121.368 166.352 121.339 166.391C121.311 166.43 121.292 166.475 121.282 166.522C121.272 166.569 121.272 166.617 121.282 166.664C121.292 166.711 121.312 166.756 121.34 166.795L122.434 168.858C122.484 168.927 122.558 168.975 122.641 168.992C122.724 169.01 122.811 168.996 122.885 168.953C122.958 168.91 123.013 168.842 123.039 168.761C123.065 168.68 123.06 168.592 123.025 168.514Z" fill="#0894C4"/>
<path d="M122.647 172.779L121.718 170.825C121.671 170.748 121.596 170.693 121.508 170.671C121.421 170.649 121.328 170.663 121.251 170.708C121.174 170.756 121.118 170.83 121.095 170.918C121.072 171.005 121.083 171.097 121.127 171.176L122.055 173.123C122.077 173.162 122.107 173.197 122.143 173.224C122.178 173.252 122.219 173.272 122.263 173.284C122.307 173.295 122.352 173.298 122.397 173.291C122.441 173.285 122.484 173.27 122.523 173.246C122.6 173.199 122.655 173.124 122.678 173.037C122.701 172.95 122.69 172.858 122.647 172.779Z" fill="#0894C4"/>
<path d="M122.963 185.235C122.153 183.781 121.511 182.24 121.051 180.64C121.039 180.595 121.019 180.553 120.991 180.516C120.963 180.478 120.927 180.447 120.887 180.423C120.847 180.4 120.802 180.384 120.756 180.378C120.71 180.372 120.663 180.374 120.618 180.386C120.573 180.398 120.53 180.418 120.493 180.446C120.456 180.475 120.424 180.51 120.401 180.55C120.377 180.59 120.362 180.635 120.355 180.681C120.349 180.727 120.352 180.774 120.363 180.819C120.837 182.478 121.499 184.078 122.337 185.586C122.585 185.971 123.163 185.62 122.963 185.235Z" fill="#0894C4"/>
<path d="M125.996 183.811L124.325 179.643C124.301 179.552 124.242 179.474 124.161 179.426C124.08 179.378 123.983 179.365 123.892 179.389C123.801 179.412 123.722 179.471 123.675 179.553C123.627 179.634 123.614 179.731 123.637 179.822C124.188 181.198 124.745 182.608 125.302 183.997C125.314 184.042 125.335 184.084 125.363 184.122C125.392 184.159 125.428 184.19 125.468 184.213C125.509 184.236 125.553 184.251 125.6 184.257C125.646 184.263 125.693 184.26 125.739 184.248C125.784 184.236 125.826 184.215 125.863 184.186C125.9 184.158 125.931 184.122 125.954 184.082C125.978 184.041 125.993 183.996 125.999 183.95C126.005 183.904 126.002 183.856 125.99 183.811H125.996Z" fill="#0894C4"/>
<path d="M129.896 183.013L127.909 178.536C127.863 178.458 127.788 178.401 127.7 178.378C127.613 178.355 127.519 178.367 127.441 178.412C127.362 178.459 127.305 178.535 127.282 178.624C127.259 178.713 127.272 178.807 127.317 178.887C128.005 180.379 128.638 181.865 129.305 183.357C129.327 183.397 129.357 183.431 129.392 183.459C129.428 183.486 129.469 183.507 129.513 183.518C129.556 183.53 129.602 183.532 129.646 183.526C129.691 183.52 129.734 183.504 129.773 183.481C129.851 183.435 129.907 183.36 129.931 183.273C129.954 183.185 129.941 183.092 129.896 183.013Z" fill="#0894C4"/>
<path d="M134.092 181.253C133.288 180.001 132.597 178.68 132.029 177.305C132.002 177.219 131.943 177.147 131.866 177.103C131.788 177.058 131.696 177.044 131.609 177.064C131.521 177.09 131.447 177.148 131.402 177.228C131.357 177.308 131.345 177.402 131.368 177.49C131.94 178.928 132.645 180.31 133.473 181.617C133.734 181.968 134.333 181.624 134.092 181.253Z" fill="#0894C4"/>
<path d="M137.387 179.519L135.44 176.08C135.393 176.004 135.317 175.948 135.23 175.927C135.142 175.905 135.05 175.919 134.972 175.965C134.894 176.011 134.838 176.086 134.815 176.173C134.792 176.26 134.804 176.353 134.849 176.431C135.495 177.573 136.149 178.715 136.795 179.87C136.842 179.947 136.918 180.002 137.006 180.024C137.093 180.045 137.186 180.031 137.263 179.985C137.341 179.939 137.397 179.865 137.42 179.778C137.443 179.69 137.431 179.598 137.387 179.519Z" fill="#0894C4"/>
<path d="M140.778 177.992L139.044 174.361C139.024 174.317 138.996 174.278 138.96 174.246C138.924 174.214 138.882 174.19 138.836 174.175C138.79 174.16 138.742 174.155 138.694 174.16C138.646 174.166 138.6 174.181 138.558 174.205C138.516 174.229 138.48 174.262 138.452 174.301C138.424 174.34 138.404 174.384 138.394 174.431C138.384 174.479 138.385 174.527 138.395 174.574C138.405 174.621 138.424 174.666 138.453 174.705L140.186 178.336C140.208 178.376 140.238 178.41 140.274 178.438C140.309 178.465 140.35 178.486 140.394 178.497C140.437 178.509 140.483 178.511 140.528 178.505C140.572 178.499 140.615 178.483 140.654 178.46C140.732 178.414 140.789 178.339 140.812 178.252C140.835 178.164 140.823 178.071 140.778 177.992Z" fill="#0894C4"/>
<path d="M144.217 175.681L142.153 172.861C142.105 172.786 142.03 172.731 141.943 172.708C141.857 172.685 141.765 172.696 141.685 172.738C141.608 172.786 141.552 172.862 141.529 172.95C141.506 173.038 141.518 173.132 141.562 173.212C142.249 174.148 142.937 175.09 143.625 176.025C143.675 176.094 143.749 176.142 143.832 176.16C143.916 176.177 144.003 176.163 144.076 176.12C144.15 176.078 144.205 176.009 144.231 175.928C144.257 175.847 144.252 175.759 144.217 175.681Z" fill="#0894C4"/>
<path d="M136.843 164.608L135.557 162.75C135.51 162.672 135.434 162.615 135.345 162.592C135.256 162.569 135.162 162.581 135.082 162.627C135.004 162.673 134.948 162.747 134.924 162.835C134.901 162.923 134.914 163.016 134.959 163.094L136.252 164.958C136.3 165.036 136.377 165.091 136.465 165.113C136.554 165.135 136.648 165.121 136.726 165.075C136.803 165.028 136.859 164.953 136.88 164.865C136.902 164.778 136.889 164.685 136.843 164.608Z" fill="#0894C4"/>
<path d="M134.209 165.557C133.858 164.821 133.521 164.078 133.17 163.342C133.148 163.303 133.118 163.268 133.082 163.241C133.046 163.213 133.005 163.193 132.961 163.181C132.917 163.169 132.872 163.166 132.827 163.172C132.782 163.178 132.738 163.192 132.699 163.215C132.66 163.237 132.625 163.267 132.598 163.303C132.57 163.339 132.55 163.38 132.538 163.424C132.526 163.468 132.523 163.513 132.529 163.558C132.535 163.603 132.549 163.647 132.572 163.686L133.611 165.908C133.658 165.986 133.734 166.043 133.823 166.066C133.911 166.089 134.006 166.077 134.085 166.031C134.162 165.983 134.218 165.907 134.241 165.819C134.264 165.73 134.253 165.637 134.209 165.557Z" fill="#0894C4"/>
<path d="M133.219 160.721L132.104 158.885C132.058 158.806 131.982 158.748 131.893 158.725C131.804 158.702 131.709 158.715 131.63 158.761C131.55 158.808 131.493 158.884 131.469 158.973C131.446 159.062 131.459 159.156 131.506 159.236L132.62 161.093C132.667 161.172 132.743 161.23 132.832 161.253C132.921 161.276 133.015 161.263 133.095 161.217C133.174 161.17 133.232 161.094 133.255 161.005C133.278 160.916 133.265 160.821 133.219 160.742V160.721Z" fill="#0894C4"/>
<path d="M98.3532 87.5243C98.2736 87.4788 98.1794 87.4663 98.0907 87.4894C98.002 87.5126 97.9259 87.5695 97.8786 87.6481L97.0533 89.3057C97.0095 89.3857 96.998 89.4794 97.021 89.5676C97.044 89.6558 97.0998 89.7319 97.1771 89.7803C97.2567 89.8258 97.3509 89.8383 97.4396 89.8151C97.5283 89.792 97.6044 89.7351 97.6517 89.6565L98.477 87.9989C98.5208 87.9189 98.5323 87.8252 98.5093 87.737C98.4863 87.6488 98.4304 87.5727 98.3532 87.5243Z" fill="#0894C4"/>
<path d="M100.651 89.1957C100.629 89.1562 100.6 89.1217 100.564 89.0944C100.529 89.0671 100.488 89.0477 100.444 89.0375C100.401 89.025 100.355 89.0214 100.311 89.0268C100.266 89.0323 100.223 89.0466 100.183 89.0691C100.144 89.0915 100.11 89.1216 100.083 89.1575C100.056 89.1935 100.036 89.2345 100.025 89.2782C99.9822 89.513 99.9177 89.7433 99.832 89.966L99.7701 90.138L99.7289 90.2274C99.6761 90.3432 99.6164 90.4558 99.55 90.5644C99.5049 90.643 99.4926 90.7361 99.5158 90.8237C99.539 90.9113 99.5958 90.9862 99.6738 91.0321C99.7538 91.0759 99.8475 91.0874 99.9357 91.0644C100.024 91.0414 100.1 90.9855 100.148 90.9083C100.42 90.4455 100.607 89.9376 100.699 89.4089C100.704 89.3347 100.687 89.2606 100.651 89.1957Z" fill="#0894C4"/>
<path d="M98.8553 90.248C98.7764 90.2047 98.6838 90.1933 98.5967 90.2164C98.5096 90.2394 98.4348 90.2951 98.3876 90.3718L97.576 91.8575C97.5304 91.9369 97.5182 92.0311 97.542 92.1194C97.5659 92.2078 97.6239 92.2831 97.7032 92.3287C97.7826 92.3743 97.8768 92.3865 97.9652 92.3626C98.0535 92.3388 98.1288 92.2808 98.1744 92.2014L98.9791 90.7226C99.0246 90.643 99.0371 90.5488 99.014 90.4601C98.9908 90.3714 98.9339 90.2953 98.8553 90.248Z" fill="#0894C4"/>
<path d="M94.4052 94.5813C94.3665 94.558 94.3236 94.5427 94.2789 94.5364C94.2342 94.53 94.1887 94.5327 94.1451 94.5442C94.1015 94.5558 94.0606 94.5759 94.025 94.6036C93.9893 94.6312 93.9595 94.6657 93.9375 94.7051C93.7036 95.1728 93.4697 95.6474 93.2496 96.1151C93.2042 96.1947 93.1917 96.2889 93.2148 96.3776C93.238 96.4663 93.2949 96.5424 93.3735 96.5897C93.452 96.6348 93.5452 96.6471 93.6328 96.6239C93.7203 96.6007 93.7952 96.5439 93.8412 96.4659L94.529 95.049C94.5723 94.97 94.5837 94.8774 94.5606 94.7904C94.5376 94.7033 94.4819 94.6284 94.4052 94.5813Z" fill="#0894C4"/>
<path d="M95.6983 96.2939C95.6076 96.2957 95.5212 96.3325 95.457 96.3966C95.3929 96.4607 95.3561 96.5472 95.3544 96.6378V96.686V96.8029C95.3544 96.8786 95.32 96.9473 95.3062 97.023C95.2925 97.0987 95.2168 97.2981 95.1687 97.4288V97.477C95.1498 97.51 95.1337 97.5445 95.1205 97.5801L95.0242 97.759C94.9458 97.8892 94.8608 98.0155 94.7697 98.1373C94.7465 98.1759 94.7312 98.2189 94.7248 98.2635C94.7184 98.3082 94.7211 98.3537 94.7327 98.3973C94.7442 98.4409 94.7644 98.4818 94.792 98.5175C94.8197 98.5531 94.8542 98.5829 94.8935 98.605C94.9725 98.6483 95.0651 98.6597 95.1521 98.6366C95.2392 98.6136 95.3141 98.5579 95.3612 98.4812C95.765 97.9431 96.0168 97.3065 96.0903 96.6378C96.0908 96.5883 96.0806 96.5393 96.0604 96.4941C96.0402 96.4489 96.0104 96.4085 95.9732 96.3759C95.936 96.3432 95.8922 96.319 95.8447 96.3049C95.7973 96.2907 95.7473 96.287 95.6983 96.2939Z" fill="#0894C4"/>
<path d="M94.1576 98.7219C94.078 98.6764 93.9837 98.6639 93.895 98.6871C93.8063 98.7102 93.7302 98.7671 93.683 98.8457C93.3115 99.5335 92.9401 100.283 92.5756 101.005C92.5301 101.085 92.5176 101.179 92.5408 101.268C92.5639 101.357 92.6208 101.433 92.6994 101.48C92.778 101.525 92.8711 101.537 92.9587 101.514C93.0463 101.491 93.1212 101.434 93.1671 101.356L94.2814 99.1896C94.3247 99.1106 94.3361 99.018 94.313 98.931C94.29 98.8439 94.2343 98.769 94.1576 98.7219Z" fill="#0894C4"/>
<path d="M108.437 101.549C108.388 101.472 108.312 101.416 108.224 101.393C108.136 101.37 108.042 101.381 107.962 101.425C107.885 101.473 107.829 101.55 107.806 101.638C107.783 101.726 107.794 101.82 107.838 101.9C107.857 101.926 107.873 101.953 107.886 101.982C107.909 102.033 107.925 102.086 107.934 102.14C107.941 102.172 107.941 102.205 107.934 102.237C107.938 102.296 107.938 102.356 107.934 102.415C107.941 102.475 107.941 102.535 107.934 102.594C107.934 102.539 107.934 102.539 107.934 102.594C107.934 102.61 107.934 102.626 107.934 102.642C107.938 102.667 107.938 102.693 107.934 102.718C107.937 102.746 107.937 102.773 107.934 102.801C107.938 102.83 107.938 102.86 107.934 102.89C107.934 102.849 107.934 102.842 107.934 102.89V102.931L107.886 103.014C107.841 103.093 107.828 103.188 107.851 103.276C107.875 103.365 107.932 103.441 108.01 103.488C108.089 103.532 108.182 103.543 108.269 103.52C108.356 103.497 108.431 103.441 108.478 103.365C108.623 103.083 108.696 102.769 108.688 102.451C108.681 102.134 108.595 101.824 108.437 101.549Z" fill="#0894C4"/>
<path d="M107.776 104.3C107.689 104.28 107.597 104.294 107.52 104.339C107.442 104.383 107.384 104.455 107.357 104.541V104.603L107.309 104.706C107.274 104.772 107.235 104.837 107.192 104.898L107.13 104.995V105.05L106.978 105.215C106.929 105.273 106.873 105.326 106.813 105.373L106.731 105.442L106.69 105.476C106.558 105.565 106.42 105.643 106.277 105.71C106.199 105.756 106.142 105.83 106.119 105.916C106.107 105.96 106.104 106.006 106.11 106.051C106.116 106.095 106.13 106.139 106.153 106.178C106.2 106.256 106.276 106.313 106.365 106.336C106.454 106.36 106.548 106.347 106.628 106.302C107.296 105.989 107.815 105.425 108.072 104.733C108.085 104.685 108.088 104.635 108.08 104.586C108.071 104.536 108.053 104.489 108.025 104.448C107.996 104.407 107.96 104.372 107.917 104.347C107.874 104.321 107.826 104.305 107.776 104.3Z" fill="#0894C4"/>
<path d="M28.9322 105.744C27.6085 102.899 27.1676 99.7223 27.6666 96.624C27.7423 96.1907 27.0751 96.005 26.9788 96.4383C26.447 99.7093 26.9119 103.065 28.3132 106.068C28.5333 106.494 29.1317 106.143 28.9322 105.744Z" fill="#090E3F"/>
<path d="M27.5153 107.657C25.8786 105.851 24.9079 103.541 24.7641 101.109C24.7641 100.668 24.0762 100.668 24.0762 101.109C24.2299 103.724 25.2763 106.208 27.0407 108.145C27.3296 108.468 27.8111 107.987 27.5153 107.657Z" fill="#090E3F"/>
<path d="M161.371 47.0258L156.804 50.1279C156.439 50.3755 156.804 50.9739 157.154 50.7263L161.721 47.6242C162.079 47.3766 161.735 46.7713 161.371 47.0258Z" fill="#090E3F"/>
<path d="M163.31 51.813C161.578 52.3875 159.796 52.7997 157.987 53.0442C157.899 53.0683 157.825 53.1259 157.78 53.2045C157.735 53.2831 157.723 53.3762 157.746 53.4638C157.773 53.5506 157.832 53.6238 157.911 53.6686C157.991 53.7133 158.084 53.7261 158.172 53.7045C159.979 53.4623 161.759 53.0525 163.489 52.4802C163.909 52.3426 163.744 51.6754 163.31 51.813Z" fill="#090E3F"/>
<path d="M162.258 58.3541L157.443 57.3705C157.01 57.288 156.831 57.9483 157.264 58.0583L162.079 59.0419C162.506 59.1107 162.691 58.4642 162.258 58.3541Z" fill="#090E3F"/>
<path d="M167.575 111.742C167.645 113.62 167.029 115.459 165.842 116.915C165.56 117.252 166.041 117.74 166.323 117.396C167.639 115.812 168.329 113.801 168.263 111.742C168.249 111.302 167.561 111.302 167.575 111.742Z" fill="#090E3F"/>
<path d="M170.787 113.228C170.809 115.083 170.159 116.884 168.957 118.297C168.668 118.627 169.157 119.116 169.446 118.779C170.786 117.241 171.52 115.268 171.509 113.228C171.509 113.132 171.471 113.04 171.403 112.973C171.336 112.905 171.244 112.867 171.148 112.867C171.052 112.867 170.96 112.905 170.893 112.973C170.825 113.04 170.787 113.132 170.787 113.228Z" fill="#090E3F"/>
<path d="M146.645 124.914C145.438 125.521 144.076 125.746 142.738 125.56C142.552 125.56 142.394 125.739 142.394 125.904C142.396 125.995 142.432 126.081 142.497 126.146C142.561 126.21 142.647 126.246 142.738 126.248C144.199 126.436 145.684 126.177 146.995 125.505C147.387 125.306 147.044 124.707 146.645 124.914Z" fill="#090E3F"/>
<path d="M148.027 128.965C148.001 128.877 147.943 128.803 147.863 128.758C147.783 128.713 147.689 128.701 147.601 128.724C146.486 129.152 145.3 129.357 144.107 129.33C144.015 129.33 143.928 129.366 143.863 129.43C143.799 129.495 143.763 129.582 143.763 129.674C143.763 129.765 143.799 129.852 143.863 129.917C143.928 129.981 144.015 130.017 144.107 130.017C145.362 130.051 146.612 129.838 147.786 129.391C147.872 129.363 147.945 129.304 147.989 129.225C148.034 129.146 148.047 129.053 148.027 128.965Z" fill="#090E3F"/>
<path d="M71.6248 42.8989C71.6281 44.6237 71.1838 46.3198 70.3353 47.8214C69.4868 49.323 68.2631 50.5786 66.7839 51.4656C65.3047 52.3526 63.6206 52.8406 61.8964 52.8818C60.1721 52.923 58.4667 52.516 56.9468 51.7006C55.427 50.8852 54.1447 49.6894 53.2255 48.23C52.3062 46.7707 51.7815 45.0977 51.7024 43.3748C51.6234 41.6519 51.9929 39.9379 52.7747 38.4005C53.5565 36.8631 54.7239 35.555 56.1627 34.6039L55.0691 4.48455C55.0479 3.90381 55.1438 3.32474 55.3513 2.78191C55.5587 2.23907 55.8734 1.74359 56.2766 1.32504C56.6797 0.906495 57.163 0.573454 57.6977 0.345798C58.2324 0.118141 58.8075 0.000535919 59.3886 6.72357e-07H63.8456C64.4261 -0.00032295 65.0008 0.116183 65.5353 0.342578C66.0698 0.568974 66.5533 0.90063 66.957 1.31779C67.3607 1.73496 67.6763 2.22909 67.885 2.77078C68.0938 3.31246 68.1914 3.89061 68.172 4.47079L67.1403 34.5901C68.5176 35.4951 69.6485 36.7282 70.4313 38.1785C71.2141 39.6288 71.6242 41.2509 71.6248 42.8989Z" fill="white"/>
<path d="M68.7429 42.8989C68.7427 44.1236 68.4251 45.3274 67.8211 46.3927C67.217 47.4581 66.347 48.3486 65.2961 48.9775C64.2452 49.6063 63.0492 49.952 61.8249 49.9808C60.6005 50.0096 59.3896 49.7205 58.3103 49.1417C57.231 48.5629 56.3202 47.7143 55.6667 46.6785C55.0132 45.6427 54.6394 44.4552 54.5818 43.2319C54.5241 42.0085 54.7845 40.7912 55.3377 39.6985C55.8908 38.6058 56.7178 37.6752 57.7378 36.9975L56.9744 15.5996C56.9596 15.1873 57.028 14.7762 57.1754 14.3908C57.3229 14.0055 57.5464 13.6537 57.8326 13.3566C58.1189 13.0594 58.462 12.8229 58.8416 12.6612C59.2212 12.4994 59.6294 12.4157 60.042 12.415H63.2128C63.6251 12.4158 64.0331 12.4992 64.4126 12.6605C64.7921 12.8217 65.1353 13.0575 65.422 13.3538C65.7087 13.6501 65.933 14.001 66.0817 14.3855C66.2303 14.7701 66.3002 15.1806 66.2874 15.5927L65.5514 36.9906C66.5301 37.6351 67.3339 38.512 67.8908 39.5431C68.4477 40.5741 68.7405 41.7271 68.7429 42.8989Z" fill="#7D57C9"/>
<path d="M61.7616 9.25108L54.3813 9.57435C53.6935 9.57435 53.6935 10.6611 54.3813 10.6267L61.7616 10.3172C62.4425 10.2759 62.4425 9.22357 61.7616 9.25108Z" fill="#090E3F"/>
<path d="M59.141 15.9298L54.5808 15.9986C54.4516 16.0134 54.3324 16.0752 54.2458 16.1722C54.1593 16.2692 54.1114 16.3947 54.1114 16.5247C54.1114 16.6548 54.1593 16.7803 54.2458 16.8773C54.3324 16.9743 54.4516 17.0361 54.5808 17.0509L59.141 16.9821C59.2702 16.9673 59.3894 16.9055 59.4759 16.8085C59.5625 16.7115 59.6103 16.586 59.6103 16.456C59.6103 16.3259 59.5625 16.2004 59.4759 16.1034C59.3894 16.0064 59.2702 15.9446 59.141 15.9298Z" fill="#090E3F"/>
<path d="M61.3489 19.9466L54.23 20.4349C53.5422 20.4831 53.5422 21.5423 54.23 21.4942L61.3489 20.9989C62.0229 20.9852 62.0298 19.9466 61.3489 19.9466Z" fill="#090E3F"/>
<path d="M58.7902 24.7613L54.9453 24.9883C54.806 24.9901 54.6731 25.0467 54.5753 25.1458C54.4774 25.2449 54.4226 25.3786 54.4226 25.5179C54.4244 25.656 54.48 25.7879 54.5777 25.8855C54.6753 25.9832 54.8072 26.0388 54.9453 26.0406L58.7902 25.8136C58.8643 25.8221 58.9395 25.8149 59.0106 25.7923C59.0817 25.7697 59.1473 25.7324 59.203 25.6827C59.2587 25.633 59.3033 25.5721 59.3338 25.504C59.3643 25.4359 59.3801 25.3621 59.3801 25.2875C59.3801 25.2128 59.3643 25.139 59.3338 25.0709C59.3033 25.0028 59.2587 24.9419 59.203 24.8922C59.1473 24.8426 59.0817 24.8052 59.0106 24.7826C58.9395 24.7601 58.8643 24.7528 58.7902 24.7613Z" fill="#090E3F"/>
<path d="M60.3584 29.4109L54.5945 29.7067C53.9067 29.7479 53.9067 30.8003 54.5945 30.7659L60.3584 30.4633C61.0393 30.4289 61.0393 29.3696 60.3584 29.4109Z" fill="#090E3F"/>
<path d="M58.7971 33.0632H55.7569C55.6165 33.0632 55.4818 33.119 55.3824 33.2183C55.2831 33.3176 55.2273 33.4524 55.2273 33.5928C55.2273 33.7333 55.2831 33.868 55.3824 33.9673C55.4818 34.0666 55.6165 34.1224 55.7569 34.1224H58.8177C58.8873 34.1224 58.9561 34.1087 59.0204 34.0821C59.0846 34.0555 59.143 34.0165 59.1922 33.9673C59.2414 33.9181 59.2804 33.8597 59.307 33.7955C59.3336 33.7312 59.3473 33.6624 59.3473 33.5928C59.3464 33.5218 59.3314 33.4516 59.3032 33.3864C59.275 33.3212 59.2341 33.2622 59.1829 33.213C59.1317 33.1637 59.0713 33.1251 59.005 33.0994C58.9388 33.0737 58.8681 33.0614 58.7971 33.0632Z" fill="#090E3F"/>
<path d="M66.4593 39.735C66.1813 39.4268 65.8386 39.1837 65.4557 39.0232C65.0729 38.8627 64.6593 38.7887 64.2446 38.8065C64.0512 38.8135 63.8612 38.8587 63.6853 38.9393C63.5094 39.0199 63.3512 39.1344 63.2196 39.2762C63.088 39.418 62.9856 39.5844 62.9184 39.7658C62.8511 39.9472 62.8203 40.1401 62.8277 40.3334C62.8827 41.1932 63.6462 41.826 63.6049 42.6926C63.562 42.881 63.5021 43.0652 63.4261 43.2429C63.0409 44.1301 62.2155 44.5428 61.624 45.2581C61.3202 45.5639 61.1248 45.9607 61.0676 46.3879C61.0105 46.8152 61.0948 47.2494 61.3076 47.6242C61.5612 47.9705 61.9105 48.2351 62.3126 48.3855C62.7147 48.5358 63.1519 48.5652 63.5705 48.4702C67.3604 47.8306 69.1693 42.4863 66.4593 39.735Z" fill="#CDA4FC"/>
<path d="M65.008 16.143C65.008 16.0025 64.9522 15.8678 64.8529 15.7685C64.7536 15.6692 64.6189 15.6134 64.4784 15.6134C64.338 15.6134 64.2032 15.6692 64.1039 15.7685C64.0046 15.8678 63.9488 16.0025 63.9488 16.143C64.0671 22.7443 63.8375 29.3473 63.261 35.9245C63.1991 36.6123 64.2583 36.6123 64.3202 35.9245C64.8933 29.3471 65.1229 22.7443 65.008 16.143Z" fill="#CDA4FC"/>
</svg>


