<svg width="61" height="47" viewBox="0 0 61 47" fill="none" xmlns="http://www.w3.org/2000/svg">
<path d="M27.9096 35.0391C29.8464 28.8999 26.4398 22.3531 20.3006 20.4162C14.1615 18.4794 7.61466 21.886 5.67782 28.0252C3.74098 34.1643 7.14761 40.7111 13.2867 42.648C19.4259 44.5848 25.9727 41.1782 27.9096 35.0391Z" fill="#8D3FD0"/>
<path d="M21.6786 22.0816C22.0689 22.0816 22.4504 22.1973 22.7749 22.4142C23.0994 22.631 23.3523 22.9392 23.5016 23.2997C23.651 23.6603 23.6901 24.0571 23.6139 24.4399C23.5378 24.8226 23.3499 25.1742 23.0739 25.4502C22.7979 25.7262 22.4463 25.9141 22.0635 25.9903C21.6808 26.0664 21.284 26.0273 20.9234 25.878C20.5629 25.7286 20.2547 25.4757 20.0378 25.1512C19.821 24.8267 19.7053 24.4452 19.7053 24.0549C19.7074 23.5322 19.916 23.0315 20.2856 22.6619C20.6552 22.2923 21.1559 22.0837 21.6786 22.0816Z" fill="#A158ED"/>
<path d="M34.1334 29.9428C34.1508 30.6138 33.9565 31.2732 33.578 31.8275C33.1996 32.3819 32.6562 32.803 32.0249 33.0311C31.3936 33.2592 30.7066 33.2827 30.0612 33.0983C29.4158 32.914 28.8448 32.5311 28.4293 32.0039C28.1616 31.6849 27.9606 31.3155 27.8381 30.9174C27.4307 31.1331 27.0392 31.3488 26.5998 31.5486C26.3156 31.1777 26.1429 30.7335 26.1019 30.2681C26.0608 29.8026 26.1532 29.3351 26.3681 28.9202C26.8155 29.072 27.2709 29.2158 27.7183 29.3756C27.7719 29.0668 27.8715 28.7679 28.0139 28.4888C28.323 27.8181 28.855 27.2751 29.5192 26.9523C30.1835 26.6295 30.939 26.5468 31.6574 26.7181C32.3758 26.8895 33.0127 27.3044 33.4597 27.8923C33.9067 28.4802 34.1363 29.2047 34.1095 29.9428H34.1334Z" fill="#A158ED"/>
<path d="M18.6428 16.9846C18.6428 16.5864 18.7608 16.1972 18.9821 15.8661C19.2033 15.535 19.5177 15.277 19.8856 15.1246C20.2534 14.9722 20.6582 14.9324 21.0488 15.0101C21.4393 15.0877 21.798 15.2795 22.0796 15.561C22.3611 15.8426 22.5529 16.2013 22.6305 16.5918C22.7082 16.9824 22.6683 17.3872 22.516 17.755C22.3636 18.1229 22.1056 18.4373 21.7745 18.6585C21.4434 18.8798 21.0542 18.9978 20.656 18.9978H20.4483C20.3604 19.4612 20.2805 19.9325 20.1926 20.3959C20.1287 20.7314 20.0728 21.059 20.0089 21.3865H19.8411C19.5849 21.4078 19.3279 21.3581 19.0981 21.2427C18.9566 21.1652 18.8402 21.0487 18.7626 20.9072C18.8824 20.6436 19.0023 20.3799 19.1141 20.1083C19.3138 19.6529 19.4976 19.1976 19.6733 18.7262C19.3626 18.5534 19.1033 18.301 18.9222 17.9949C18.7411 17.6889 18.6447 17.3402 18.6428 16.9846Z" fill="#A158ED"/>
<path d="M25.4574 23.4717C25.1265 22.7748 25.0631 21.9808 25.2791 21.2402C25.4952 20.4997 25.9756 19.8643 26.6292 19.4546C27.2829 19.0449 28.0642 18.8895 28.8248 19.018C29.5855 19.1464 30.2725 19.5496 30.7554 20.1512C31.2383 20.7527 31.4835 21.5106 31.4445 22.281C31.4054 23.0515 31.0848 23.7807 30.5436 24.3303C30.0023 24.88 29.278 25.2117 28.5083 25.2625C27.7386 25.3134 26.977 25.0798 26.3681 24.6061C25.9799 24.3045 25.668 23.9159 25.4574 23.4717Z" fill="#A158ED"/>
<path d="M20.7119 42.5094C20.9302 42.8531 21.044 43.2528 21.0395 43.6599C21.0576 43.9601 21.0141 44.2608 20.9116 44.5435C20.8092 44.8263 20.65 45.0851 20.4439 45.304C20.2377 45.523 19.9889 45.6975 19.7129 45.8167C19.4368 45.936 19.1392 45.9975 18.8385 45.9975C18.5378 45.9975 18.2402 45.936 17.9641 45.8167C17.688 45.6975 17.4393 45.523 17.2331 45.304C17.027 45.0851 16.8678 44.8263 16.7654 44.5435C16.6629 44.2608 16.6194 43.9601 16.6375 43.6599C16.6359 43.501 16.6547 43.3426 16.6934 43.1885C16.7916 42.767 17.0121 42.3838 17.3273 42.0872C17.6425 41.7905 18.0382 41.5935 18.4649 41.521C18.8916 41.4485 19.3303 41.5036 19.7258 41.6794C20.1212 41.8553 20.456 42.144 20.6879 42.5094H20.7119Z" fill="#A158ED"/>
<path d="M24.4588 23.9191C24.7168 23.7793 24.9836 23.6565 25.2577 23.5516C25.619 23.9299 25.9502 24.3359 26.2483 24.7659C26.0506 25.0029 25.8665 25.2509 25.697 25.5089C25.3395 25.4264 25.0212 25.2233 24.7957 24.9338C24.5702 24.6443 24.4512 24.286 24.4588 23.9191Z" fill="#A158ED"/>
<path d="M31.2574 40.9996C31.2574 41.703 30.978 42.3776 30.4805 42.875C29.9831 43.3725 29.3085 43.6519 28.605 43.6519C27.9016 43.6519 27.227 43.3725 26.7296 42.875C26.2321 42.3776 25.9527 41.703 25.9527 40.9996C25.9517 40.7281 25.9948 40.4582 26.0805 40.2007L25.2257 39.6334C24.3629 39.0502 23.5161 38.4431 22.6852 37.8199C22.9144 37.281 23.2242 36.7799 23.6039 36.334C23.8785 36.0278 24.2166 35.7851 24.5946 35.623C25.2736 36.3739 25.9287 37.1329 26.5599 37.9158L27.191 38.7147V38.7626C27.6111 38.4879 28.1031 38.3434 28.605 38.3472C29.3085 38.3472 29.9831 38.6266 30.4805 39.1241C30.978 39.6215 31.2574 40.2961 31.2574 40.9996Z" fill="#A158ED"/>
<path d="M23.0048 32.4273C22.6429 32.4273 22.2892 32.32 21.9884 32.119C21.6875 31.918 21.453 31.6323 21.3145 31.298C21.1761 30.9637 21.1398 30.5958 21.2104 30.2409C21.281 29.8861 21.4553 29.5601 21.7111 29.3042C21.967 29.0484 22.293 28.8741 22.6478 28.8035C23.0027 28.7329 23.3706 28.7692 23.7049 28.9076C24.0392 29.0461 24.3249 29.2806 24.5259 29.5814C24.7269 29.8823 24.8342 30.236 24.8342 30.5979C24.8353 30.8384 24.7887 31.0768 24.6971 31.2992C24.6056 31.5217 24.4708 31.7238 24.3008 31.8939C24.1307 32.0639 23.9286 32.1987 23.7061 32.2902C23.4837 32.3818 23.2453 32.4284 23.0048 32.4273Z" fill="#A158ED"/>
<path d="M1.76201 28.8003C1.762 28.4024 1.84064 28.0084 1.9934 27.641C2.14616 27.2736 2.37003 26.9399 2.65214 26.6593C2.93425 26.3787 3.26905 26.1566 3.63728 26.0058C4.00551 25.855 4.39991 25.7784 4.79783 25.7805C5.36634 25.785 5.92135 25.9543 6.39563 26.2678C6.80113 26.5267 7.13792 26.8799 7.37721 27.2973C7.6165 27.7147 7.75118 28.1838 7.76974 28.6645H8.79233C8.87498 29.6109 8.58874 30.5526 7.99343 31.2929L7.93751 31.3488C7.68985 31.0612 7.46615 30.7736 7.25045 30.47C7.01245 30.8263 6.69984 31.1266 6.33429 31.3501C5.96873 31.5735 5.55896 31.7149 5.13337 31.7643C5.01101 31.7725 4.88823 31.7725 4.76587 31.7643C3.97607 31.7643 3.21802 31.4533 2.65582 30.8986C2.09362 30.3439 1.77251 29.5901 1.76201 28.8003Z" fill="#A158ED"/>
<path d="M7.0667 37.9637C6.7072 38.0436 6.34769 38.1235 5.99617 38.2194C6.1219 38.952 5.973 39.7053 5.57797 40.335C5.18294 40.9646 4.56954 41.4265 3.85521 41.6321C3.14087 41.8378 2.37579 41.7727 1.70644 41.4494C1.03709 41.1261 0.510487 40.5673 0.22746 39.88C-0.0555665 39.1926 -0.0751363 38.425 0.172498 37.7241C0.420132 37.0232 0.91757 36.4383 1.56958 36.0813C2.22159 35.7244 2.98236 35.6204 3.70624 35.7893C4.43013 35.9583 5.06627 36.3883 5.49287 36.9971L6.18791 36.3739C6.37965 36.2061 6.56339 36.0304 6.73915 35.8546C7.05754 36.0746 7.3211 36.3647 7.50949 36.7027C7.69789 37.0407 7.80606 37.4175 7.82566 37.8039L7.0667 37.9637Z" fill="#A158ED"/>
<path d="M4.43832 17.5758C4.43698 17.1281 4.55 16.6875 4.76667 16.2957C4.98335 15.904 5.29649 15.5741 5.67642 15.3373C6.05635 15.1005 6.49046 14.9646 6.9376 14.9427C7.38474 14.9207 7.83009 15.0133 8.23142 15.2116C8.63274 15.41 8.97675 15.7076 9.23081 16.0762C9.48488 16.4448 9.64058 16.8722 9.68316 17.3179C9.72574 17.7635 9.65378 18.2127 9.47411 18.6227C9.29444 19.0328 9.01302 19.3901 8.65652 19.6609C9.19676 20.4119 9.7754 21.1346 10.3901 21.8259C10.5978 22.0656 10.8215 22.3053 11.0372 22.5449C10.8976 22.8276 10.6774 23.0626 10.4045 23.2204C10.1315 23.3782 9.81799 23.4517 9.50335 23.4317C9.40748 23.192 9.31161 22.9524 9.20776 22.7207C8.84026 21.8259 8.40886 20.9392 8.0174 20.0604C7.72461 20.1742 7.41279 20.2312 7.09866 20.2281C6.74849 20.2335 6.4008 20.1686 6.07614 20.0373C5.75147 19.906 5.45642 19.711 5.20841 19.4637C4.9604 19.2165 4.76448 18.922 4.63221 18.5977C4.49994 18.2735 4.43401 17.926 4.43832 17.5758Z" fill="#A158ED"/>
<path d="M9.59122 34.7202C9.59122 34.4374 9.67509 34.1609 9.83222 33.9257C9.98935 33.6905 10.2127 33.5073 10.474 33.399C10.7353 33.2908 11.0228 33.2625 11.3002 33.3176C11.5776 33.3728 11.8324 33.509 12.0324 33.709C12.2324 33.909 12.3686 34.1638 12.4238 34.4412C12.479 34.7186 12.4507 35.0061 12.3424 35.2674C12.2342 35.5287 12.0509 35.7521 11.8157 35.9092C11.5806 36.0664 11.3041 36.1502 11.0212 36.1502C10.642 36.1502 10.2782 35.9996 10.0101 35.7314C9.74188 35.4632 9.59122 35.0995 9.59122 34.7202Z" fill="#A158ED"/>
<path d="M12.5392 18.4626C12.5392 18.1893 12.6477 17.9271 12.841 17.7339C13.0343 17.5406 13.2964 17.432 13.5697 17.432C13.8431 17.432 14.1052 17.5406 14.2985 17.7339C14.4917 17.9271 14.6003 18.1893 14.6003 18.4626C14.6017 18.6712 14.5388 18.8751 14.4202 19.0467C14.3015 19.2182 14.1329 19.349 13.9372 19.4213C14.0012 19.6769 14.0651 19.9326 14.137 20.2202C14.2541 20.6835 14.382 21.1469 14.5204 21.6103C14.3542 21.6422 14.1834 21.6422 14.0171 21.6103C13.7361 21.542 13.4876 21.3782 13.3141 21.1469V20.4518C13.3141 20.1323 13.3141 19.8127 13.3141 19.4932C13.087 19.4351 12.8864 19.3014 12.7455 19.114C12.6047 18.9267 12.5319 18.6969 12.5392 18.4626Z" fill="#A158ED"/>
<path d="M14.8959 28.0973C14.4879 28.0989 14.0886 27.9794 13.7486 27.7538C13.4086 27.5283 13.1432 27.207 12.986 26.8305C12.8287 26.454 12.7868 26.0393 12.8654 25.639C12.944 25.2386 13.1397 24.8706 13.4276 24.5815C13.7156 24.2925 14.0828 24.0954 14.4829 24.0152C14.8829 23.935 15.2978 23.9754 15.6748 24.1311C16.0519 24.2869 16.3743 24.5511 16.6012 24.8902C16.828 25.2293 16.9491 25.6282 16.9491 26.0362C16.9491 26.5814 16.733 27.1045 16.3482 27.4908C15.9634 27.8771 15.4412 28.0952 14.8959 28.0973Z" fill="#A158ED"/>
<path d="M16.4857 39.6174C16.1697 39.6174 15.8608 39.5237 15.598 39.3482C15.3353 39.1726 15.1305 38.9231 15.0096 38.6311C14.8886 38.3391 14.857 38.0179 14.9186 37.7079C14.9803 37.398 15.1325 37.1133 15.3559 36.8898C15.5794 36.6664 15.8641 36.5142 16.174 36.4525C16.484 36.3909 16.8052 36.4225 17.0972 36.5435C17.3892 36.6644 17.6387 36.8692 17.8143 37.132C17.9898 37.3947 18.0835 37.7036 18.0835 38.0196C18.0835 38.4434 17.9152 38.8498 17.6156 39.1495C17.3159 39.4491 16.9095 39.6174 16.4857 39.6174Z" fill="#A158ED"/>
<path d="M14.0731 32.2436C14.0731 31.6479 14.2497 31.0656 14.5806 30.5703C14.9116 30.075 15.382 29.689 15.9323 29.461C16.4827 29.2331 17.0882 29.1734 17.6725 29.2896C18.2567 29.4058 18.7934 29.6927 19.2146 30.1139C19.6358 30.5351 19.9227 31.0718 20.0389 31.656C20.1551 32.2403 20.0955 32.8458 19.8675 33.3962C19.6395 33.9465 19.2535 34.4169 18.7582 34.7479C18.2629 35.0788 17.6806 35.2555 17.0849 35.2555C16.6891 35.2565 16.297 35.1793 15.9311 35.0283C15.5652 34.8774 15.2327 34.6555 14.9529 34.3757C14.673 34.0958 14.4512 33.7633 14.3002 33.3974C14.1492 33.0315 14.072 32.6394 14.0731 32.2436Z" fill="#A158ED"/>
<path d="M12.8348 30.1664C12.8348 30.4509 12.7504 30.7289 12.5924 30.9654C12.4344 31.2018 12.2098 31.3862 11.9471 31.495C11.6843 31.6038 11.3951 31.6323 11.1162 31.5768C10.8373 31.5213 10.581 31.3844 10.3799 31.1833C10.1788 30.9822 10.0418 30.7259 9.98636 30.447C9.93087 30.168 9.95935 29.8789 10.0682 29.6161C10.177 29.3534 10.3613 29.1288 10.5978 28.9708C10.8343 28.8128 11.1123 28.7284 11.3967 28.7284C11.7775 28.7305 12.142 28.8827 12.4113 29.1519C12.6805 29.4212 12.8327 29.7857 12.8348 30.1664Z" fill="#A158ED"/>
<path d="M12.6989 39.5855L12.627 39.6414C12.2766 40.0664 11.8918 40.4618 11.4766 40.8238V40.8717C11.7713 41.2431 11.9492 41.6935 11.9879 42.1659C11.9962 42.267 11.9962 42.3685 11.9879 42.4695C11.9855 42.9299 11.8549 43.3805 11.6106 43.7707C11.3664 44.161 11.0182 44.4754 10.6051 44.6787C10.1921 44.882 9.73056 44.9662 9.27233 44.9218C8.8141 44.8773 8.37733 44.7061 8.01105 44.4272C7.64476 44.1483 7.36347 43.7728 7.19874 43.3429C7.03401 42.913 6.99237 42.4457 7.0785 41.9935C7.16462 41.5412 7.3751 41.1219 7.6863 40.7826C7.9975 40.4434 8.39711 40.1976 8.84026 40.0728C9.05896 40.0125 9.28447 39.9803 9.51133 39.977C9.80379 39.976 10.0938 40.0302 10.3662 40.1367V40.0888C10.5499 39.6015 10.7416 39.1141 10.9254 38.6188V38.499C11.2798 38.5485 11.6202 38.6706 11.9253 38.8575C12.2305 39.0445 12.4938 39.2923 12.6989 39.5855Z" fill="#A158ED"/>
<path d="M54.4923 26.5042C58.0864 22.9101 58.0864 17.0829 54.4923 13.4888C50.8981 9.89463 45.0709 9.89463 41.4768 13.4888C37.8827 17.0829 37.8827 22.9101 41.4768 26.5042C45.0709 30.0983 50.8981 30.0983 54.4923 26.5042Z" fill="#A158ED"/>
<path d="M49.9676 20.4918C50.3971 20.4934 50.8164 20.6222 51.1727 20.8619C51.529 21.1016 51.8063 21.4415 51.9695 21.8387C52.1328 22.2359 52.1747 22.6726 52.0899 23.0936C52.0052 23.5146 51.7976 23.901 51.4934 24.2041C51.1891 24.5072 50.8019 24.7134 50.3806 24.7966C49.9593 24.8798 49.5228 24.8363 49.1262 24.6716C48.7296 24.5069 48.3907 24.2284 48.1523 23.8712C47.9139 23.514 47.7866 23.0942 47.7866 22.6648C47.7856 22.3785 47.8413 22.0948 47.9506 21.8301C48.06 21.5655 48.2207 21.3251 48.4235 21.123C48.6264 20.9209 48.8673 20.7611 49.1323 20.6527C49.3974 20.5444 49.6813 20.4897 49.9676 20.4918Z" fill="#8D3FD0"/>
<path d="M47.7684 18.4277C48.5787 16.8251 47.9363 14.8691 46.3337 14.0589C44.7311 13.2486 42.7752 13.891 41.9649 15.4936C41.1547 17.0962 41.797 19.0521 43.3996 19.8624C45.0022 20.6726 46.9582 20.0303 47.7684 18.4277Z" fill="#8D3FD0"/>
<path d="M44.8467 22.0097C45.1264 22.0097 45.3997 22.0926 45.6323 22.248C45.8648 22.4034 46.0461 22.6242 46.1531 22.8826C46.2601 23.141 46.2881 23.4253 46.2336 23.6996C46.179 23.9739 46.0443 24.2259 45.8466 24.4236C45.6488 24.6214 45.3968 24.7561 45.1225 24.8106C44.8482 24.8652 44.5639 24.8372 44.3055 24.7302C44.0472 24.6231 43.8263 24.4419 43.6709 24.2094C43.5156 23.9768 43.4326 23.7034 43.4326 23.4238C43.4326 23.2381 43.4692 23.0542 43.5403 22.8826C43.6113 22.7111 43.7155 22.5552 43.8468 22.4239C43.9781 22.2926 44.134 22.1884 44.3055 22.1173C44.4771 22.0463 44.661 22.0097 44.8467 22.0097Z" fill="#8D3FD0"/>
<path d="M38.4395 6.80664C35.7951 6.80664 35.7872 10.929 38.4395 10.929C41.0918 10.929 41.0998 6.80664 38.4395 6.80664Z" fill="#A158ED"/>
<path d="M29.2761 0C26.6238 0 26.6158 4.12232 29.2761 4.12232C31.9365 4.12232 31.9604 0 29.2761 0Z" fill="#A158ED"/>
<path d="M40.245 32.5072C37.6007 32.5072 37.5927 36.6216 40.245 36.6216C42.8974 36.6216 42.9053 32.5072 40.245 32.5072Z" fill="#A158ED"/>
<path d="M38.5833 42.6453C35.931 42.6453 35.923 46.7676 38.5833 46.7676C41.2436 46.7676 41.2357 42.6453 38.5833 42.6453Z" fill="#A158ED"/>
<path d="M46.9158 42.3417C44.2635 42.3417 44.2635 46.464 46.9158 46.464C49.5682 46.464 49.5762 42.3417 46.9158 42.3417Z" fill="#A158ED"/>
</svg>
