<svg width="24" height="14" viewBox="0 0 24 14" fill="none" xmlns="http://www.w3.org/2000/svg">
<path d="M8.80303 1.69871C7.49 3.44316 5.75393 4.82409 3.75881 5.71103L3.74345 5.72384C3.6692 5.6291 3.58982 5.53948 3.50788 5.45242C3.39744 5.32259 3.25916 5.21932 3.10332 5.15028C2.95252 5.10652 2.79172 5.1117 2.64404 5.16507C2.49636 5.21843 2.36939 5.31724 2.2814 5.4473C2.19769 5.58003 2.1436 5.72927 2.12283 5.88481C2.10206 6.04036 2.1151 6.19855 2.16105 6.3486C2.25581 6.64854 2.41683 6.92333 2.63219 7.1526C2.75403 7.30394 2.90348 7.4308 3.0726 7.52644C3.15502 7.57317 3.24598 7.60291 3.34009 7.6139C3.43421 7.6249 3.52957 7.61692 3.62055 7.59045C3.54373 8.53784 3.42765 9.4767 3.27232 10.407C3.27373 10.4129 3.27373 10.419 3.27232 10.4249C3.14672 10.4517 3.03365 10.5196 2.95107 10.618C2.8685 10.7163 2.82115 10.8394 2.81655 10.9678C2.81782 11.1077 2.84991 11.2456 2.91054 11.3718C2.97117 11.4979 3.05885 11.6091 3.16734 11.6975C2.99291 11.7624 2.84495 11.8833 2.7467 12.0413C2.64845 12.1994 2.60547 12.3855 2.62451 12.5707C2.63418 12.66 2.66022 12.7468 2.70132 12.8267C2.44727 12.819 2.19806 12.7551 1.97158 12.6398C1.53629 12.4093 1.23671 11.846 1.45947 11.4005C0.783497 11.0881 0.125445 10.5683 0.0153429 9.84114C-0.0665935 9.28039 0.192018 8.72988 0.49672 8.25618C0.801421 7.78249 1.16245 7.32672 1.32377 6.78645C1.5158 6.154 1.41082 5.47546 1.43643 4.81485C1.47245 3.98942 1.70875 3.18514 2.12494 2.4714C2.54114 1.75766 3.12474 1.1559 3.82539 0.718029C4.53461 0.29588 5.33564 0.0520523 6.15978 0.00745576C6.98392 -0.0371408 7.80659 0.118825 8.55722 0.461978C8.94124 0.633416 9.2889 0.876776 9.58142 1.17892C10.2011 1.84978 10.388 2.80741 10.4315 3.71639C10.4917 4.585 10.4051 5.45754 10.1755 6.29739H10.1575C10.0899 4.69263 9.63957 3.1273 8.844 1.73199L8.80303 1.69871Z" fill="#090E3F"/>
<path d="M8.44974 10.4326C8.355 10.4557 8.25258 10.4326 8.1604 10.4557L8.18344 10.4249C8.62027 10.3312 9.00958 10.0852 9.2819 9.73104C9.57132 9.34399 9.77947 8.90241 9.89387 8.43286C9.9607 8.19717 10.0137 7.95778 10.0526 7.71591C10.5391 8.37653 11.0179 9.08323 11.1024 9.89747C11.1348 10.2234 11.1014 10.5524 11.0042 10.8652C10.907 11.1779 10.748 11.4679 10.5366 11.718C10.3196 11.988 10.0216 12.181 9.68647 12.2685C9.52599 11.943 9.25314 11.6865 8.91831 11.5464C9.0476 11.4587 9.14016 11.3265 9.17839 11.1749C9.21663 11.0234 9.19788 10.8631 9.12571 10.7245C9.05625 10.6127 8.95427 10.5249 8.83345 10.4727C8.71262 10.4205 8.57873 10.4065 8.44974 10.4326V10.4326Z" fill="#090E3F"/>
<path d="M10.0526 7.71847C10.0137 7.96034 9.9607 8.19973 9.89387 8.43542C9.77915 8.90408 9.57101 9.34475 9.2819 9.73104C9.00232 10.096 8.60368 10.3515 8.15528 10.4531V10.4531C7.94276 10.5018 7.78656 10.3942 7.56892 10.3635C6.66094 10.198 5.77214 9.94064 4.91623 9.59533C4.93251 9.97974 5.02385 10.3573 5.18508 10.7066C4.55647 10.6869 3.93167 10.6011 3.32103 10.4505L3.26982 10.4352C3.42686 9.49803 3.54294 8.55918 3.61805 7.61861C3.5256 7.64057 3.42969 7.64372 3.336 7.62788C3.24231 7.61205 3.15276 7.57755 3.07266 7.52644C2.90445 7.43053 2.7559 7.30369 2.63481 7.1526C2.41945 6.92333 2.25843 6.64854 2.16368 6.3486C2.11772 6.19855 2.10468 6.04036 2.12545 5.88481C2.14622 5.72927 2.20031 5.58003 2.28402 5.4473C2.37202 5.31724 2.49898 5.21843 2.64666 5.16507C2.79434 5.1117 2.95514 5.10652 3.10594 5.15028C3.26179 5.21932 3.40007 5.32259 3.51051 5.45242C3.59244 5.53948 3.67182 5.6291 3.74607 5.72383L3.76144 5.71103C5.75562 4.82372 7.49077 3.44282 8.80309 1.69871L8.84406 1.73199C9.63705 3.12623 10.0856 4.68968 10.1525 6.29227C10.1641 6.76975 10.1307 7.24727 10.0526 7.71847V7.71847Z" fill="#FFC33E"/>
<path d="M9.68646 12.2711C9.77018 12.4177 9.79577 12.5904 9.75816 12.755C9.74805 12.7889 9.73248 12.8209 9.71207 12.8497C8.3678 13.3875 6.86222 13.4668 5.40528 13.4079C4.53861 13.3952 3.67751 13.2669 2.84477 13.0264C2.78351 12.9644 2.73174 12.8936 2.69114 12.8165C2.65004 12.7365 2.624 12.6497 2.61432 12.5604C2.59529 12.3753 2.63827 12.1891 2.73652 12.0311C2.83477 11.873 2.98273 11.7521 3.15715 11.6873C3.05185 11.599 2.9669 11.489 2.90811 11.3648C2.84933 11.2406 2.81811 11.1052 2.8166 10.9678C2.82368 10.8424 2.87154 10.7227 2.95289 10.627C3.03424 10.5314 3.14463 10.4649 3.26725 10.4377H3.32871C3.93935 10.5883 4.56415 10.6741 5.19276 10.6938C6.18946 10.7259 7.18646 10.64 8.16296 10.4377C8.25514 10.4198 8.35756 10.4377 8.4523 10.4147C8.58271 10.3872 8.71845 10.4007 8.84087 10.4534C8.96328 10.5061 9.06637 10.5955 9.13595 10.7092C9.20812 10.8478 9.22687 11.0081 9.18863 11.1596C9.1504 11.3111 9.05784 11.4433 8.92855 11.5311C9.26262 11.6776 9.53199 11.9406 9.68646 12.2711V12.2711Z" fill="#7D57C9"/>
<path d="M7.6611 7.75432C7.76081 7.5411 7.93594 7.37236 8.15272 7.28063C8.31432 7.24938 8.48177 7.27616 8.62557 7.35626C8.76937 7.43635 8.88029 7.56462 8.93879 7.71847C8.99109 7.87442 9.00675 8.04031 8.98455 8.20328C8.96234 8.36626 8.90288 8.52192 8.81077 8.65818C8.76791 8.72786 8.71815 8.79305 8.66226 8.85278C8.5746 8.77015 8.51015 8.66597 8.47534 8.55064C8.39497 8.37552 8.2733 8.22252 8.12077 8.10478C7.96824 7.98704 7.78941 7.90807 7.59965 7.87467C7.61756 7.83329 7.63809 7.7931 7.6611 7.75432V7.75432Z" fill="#252849"/>
<path d="M8.47534 8.55064C8.51015 8.66597 8.5746 8.77015 8.66226 8.85278C8.55337 8.97354 8.41344 9.06211 8.2577 9.10883C8.14082 9.14489 8.01586 9.14539 7.8987 9.11029C7.78153 9.07518 7.67744 9.00605 7.59964 8.91167C7.5295 8.80711 7.4872 8.68637 7.47674 8.56088C7.45248 8.32349 7.49505 8.08403 7.59964 7.86954C7.78993 7.90347 7.9691 7.9832 8.12167 8.10187C8.27424 8.22054 8.39562 8.37456 8.47534 8.55064V8.55064Z" fill="#A02758"/>
<path d="M8.15528 10.4557C7.17878 10.6579 6.18178 10.7439 5.18508 10.7117C5.02384 10.3624 4.93251 9.98486 4.91623 9.60045C5.77213 9.94576 6.66094 10.2031 7.56892 10.3686L8.15528 10.4582V10.4557Z" fill="#FF9E10"/>
<path d="M6.69066 4.68427L6.33731 4.42821C6.3024 4.40905 6.26149 4.40394 6.22294 4.41393C6.18438 4.42393 6.15111 4.44827 6.12991 4.48198C6.11135 4.51702 6.10658 4.55774 6.11653 4.59612C6.12648 4.63451 6.15043 4.66778 6.18368 4.68939L6.4807 4.90959L6.59592 4.99665C6.42181 5.12723 6.24257 5.2527 6.06333 5.38072C6.03028 5.40187 6.00639 5.43469 5.99643 5.47264C5.98647 5.5106 5.99116 5.55091 6.00956 5.58557C6.01961 5.60276 6.03296 5.61779 6.04883 5.62981C6.06471 5.64182 6.08281 5.65058 6.10208 5.65558C6.12136 5.66058 6.14143 5.66171 6.16115 5.65893C6.18086 5.65614 6.19983 5.64948 6.21697 5.63934L6.578 5.38329L6.75211 5.25782C6.82563 5.21793 6.88675 5.15858 6.92879 5.08627C7.00816 4.88655 6.81356 4.77644 6.69066 4.68427Z" fill="#090E3F"/>
<path d="M9.75304 4.84814L9.47394 4.80461L9.38433 4.78925L9.45346 4.67146L9.59941 4.42821C9.61835 4.393 9.62306 4.35187 9.61258 4.31328C9.6021 4.2747 9.57723 4.2416 9.54308 4.22081C9.50825 4.20201 9.46751 4.19737 9.42935 4.20787C9.39119 4.21836 9.35855 4.24318 9.33824 4.27714L9.1718 4.5588L9.08731 4.69963C9.04348 4.75566 9.02163 4.82578 9.02585 4.89679C9.0489 5.0581 9.22045 5.06578 9.34592 5.08371L9.6711 5.13748C9.70767 5.14298 9.74498 5.13488 9.77598 5.11472C9.80698 5.09455 9.8295 5.06372 9.83928 5.02806C9.84906 4.9924 9.84543 4.95439 9.82906 4.92123C9.8127 4.88807 9.78474 4.86206 9.75048 4.84814H9.75304Z" fill="#090E3F"/>
<path d="M10.0757 3.72407C9.99837 3.62629 9.89146 3.55621 9.77096 3.52435C9.56529 3.45242 9.34045 3.45788 9.13851 3.53972C9.01049 3.59349 8.88246 3.67286 8.86198 3.82905C8.85924 3.86343 8.86452 3.89798 8.87741 3.92997C8.89029 3.96197 8.91043 3.99053 8.93623 4.01341C8.96744 4.03941 9.00437 4.05761 9.044 4.06651C9.08362 4.07542 9.1248 4.07477 9.16412 4.06462C9.22301 4.06462 9.2819 4.0339 9.34079 4.02109H9.36896H9.40225H9.49955C9.55805 4.02104 9.6164 4.02705 9.67366 4.03902C9.73816 4.05183 9.80152 4.06981 9.86314 4.09279C9.88214 4.09821 9.90203 4.09978 9.92164 4.09742C9.94126 4.09506 9.96021 4.08881 9.97737 4.07903C9.99454 4.06925 10.0096 4.05615 10.0216 4.04049C10.0337 4.02482 10.0425 4.00691 10.0475 3.98781C10.0837 3.95491 10.1065 3.9099 10.1117 3.86129C10.1169 3.81269 10.1041 3.76386 10.0757 3.72407V3.72407Z" fill="#090E3F"/>
<path d="M5.96604 3.78553C6.04571 3.69039 6.15172 3.62091 6.27074 3.58581C6.47641 3.51387 6.70125 3.51933 6.90319 3.60117C7.03377 3.65494 7.17204 3.73432 7.18228 3.89051C7.18502 3.92489 7.17974 3.95943 7.16685 3.99143C7.15397 4.02342 7.13383 4.05198 7.10803 4.07486C7.07683 4.10086 7.03989 4.11906 7.00026 4.12797C6.96064 4.13687 6.91947 4.13622 6.88014 4.12608C6.82125 4.12608 6.76492 4.09535 6.70347 4.08255H6.6753H6.62921H6.53191C6.47348 4.08377 6.41525 4.08976 6.3578 4.10047C6.29324 4.11416 6.22987 4.133 6.16832 4.1568C6.12996 4.16704 6.08911 4.16176 6.05461 4.14212C6.02011 4.12247 5.99473 4.09003 5.98396 4.05182V4.05182C5.95011 4.01664 5.92975 3.97065 5.92647 3.92194C5.9232 3.87323 5.93721 3.82492 5.96604 3.78553V3.78553Z" fill="#090E3F"/>
<path d="M10.3112 6.91447L9.17692 7.58021C9.15014 7.60334 9.13232 7.63515 9.12659 7.67007C9.12086 7.705 9.12757 7.74082 9.14555 7.77131C9.16354 7.80179 9.19166 7.82499 9.225 7.83686C9.25834 7.84873 9.29479 7.84852 9.32799 7.83626L10.4623 7.17053C10.4891 7.14739 10.5069 7.11559 10.5126 7.08066C10.5184 7.04574 10.5117 7.00991 10.4937 6.97943C10.4757 6.94894 10.4476 6.92574 10.4142 6.91387C10.3809 6.902 10.3444 6.90222 10.3112 6.91447V6.91447Z" fill="#8D3FD0"/>
<path d="M10.3343 8.10767L9.47394 8.09487C9.43455 8.09487 9.39678 8.11052 9.36893 8.13837C9.34108 8.16622 9.32543 8.20399 9.32543 8.24338C9.32607 8.28281 9.34184 8.32048 9.36948 8.34861C9.39713 8.37673 9.43453 8.39314 9.47394 8.39445H10.3394C10.359 8.3948 10.3785 8.39119 10.3966 8.38385C10.4148 8.37651 10.4313 8.36559 10.4452 8.35173C10.459 8.33787 10.47 8.32136 10.4773 8.30318C10.4846 8.28501 10.4883 8.26554 10.4879 8.24594C10.4847 8.20769 10.467 8.1721 10.4384 8.14642C10.4099 8.12074 10.3727 8.10688 10.3343 8.10767V8.10767Z" fill="#8D3FD0"/>
<path d="M9.83497 9.19589L9.29726 8.77597C9.26768 8.74922 9.22958 8.7338 9.18972 8.73244C9.15034 8.73246 9.11258 8.74811 9.08474 8.77597C9.05618 8.80355 9.03962 8.84126 9.03865 8.88095C9.03865 8.90106 9.04274 8.92096 9.05066 8.93945C9.05858 8.95794 9.07018 8.97462 9.08474 8.98849L9.62245 9.40842C9.65204 9.43516 9.69013 9.45058 9.72999 9.45194C9.76911 9.45065 9.80642 9.43518 9.83497 9.40842C9.86275 9.37949 9.87834 9.34098 9.8785 9.30087C9.87927 9.28127 9.87577 9.26173 9.86826 9.24361C9.86074 9.22548 9.84939 9.2092 9.83497 9.19589V9.19589Z" fill="#8D3FD0"/>
<path d="M11.2381 7.37793C11.1574 7.31139 11.0582 7.27117 10.9539 7.2627C10.8682 7.25821 10.7835 7.28255 10.7132 7.33184C10.6691 7.36265 10.6324 7.40288 10.6057 7.44962C10.5912 7.47991 10.5801 7.51167 10.5724 7.54436C10.5724 7.54436 10.5724 7.54436 10.5724 7.55716C10.5471 7.64233 10.5554 7.73393 10.5954 7.81321C10.6349 7.88942 10.6965 7.95191 10.7721 7.99245C10.8449 8.03193 10.9252 8.0555 11.0077 8.06158C11.0916 8.06912 11.1756 8.04788 11.2459 8.00135C11.3162 7.95481 11.3685 7.88576 11.3943 7.80553C11.4112 7.72678 11.4055 7.64487 11.3779 7.56922C11.3502 7.49357 11.3018 7.42726 11.2381 7.37793V7.37793Z" fill="#8D3FD0"/>
<path d="M10.9386 6.77621C10.9022 6.78097 10.8688 6.79879 10.8446 6.82635C10.8204 6.85391 10.8071 6.88933 10.8071 6.926C10.8071 6.96266 10.8204 6.99808 10.8446 7.02564C10.8688 7.0532 10.9022 7.07102 10.9386 7.07579C10.9749 7.07102 11.0083 7.0532 11.0325 7.02564C11.0567 6.99808 11.07 6.96266 11.07 6.926C11.07 6.88933 11.0567 6.85391 11.0325 6.82635C11.0083 6.79879 10.9749 6.78097 10.9386 6.77621V6.77621Z" fill="#8D3FD0"/>
<path d="M11.4635 6.64306C11.4558 6.61771 11.4417 6.59477 11.4225 6.57648V6.56368C11.4101 6.54837 11.393 6.53757 11.3738 6.53296C11.3566 6.52363 11.3371 6.5192 11.3175 6.52015C11.2971 6.51924 11.2768 6.52365 11.2586 6.53296C11.2397 6.5382 11.2228 6.54889 11.21 6.56368L11.1869 6.59441C11.1736 6.61782 11.1665 6.64428 11.1664 6.67122V6.70963C11.1735 6.73468 11.1867 6.75756 11.2048 6.7762L11.2202 6.78901C11.2321 6.80373 11.2482 6.81446 11.2663 6.81973C11.2848 6.82824 11.3049 6.83264 11.3252 6.83264C11.3455 6.83264 11.3656 6.82824 11.3841 6.81973C11.4022 6.81446 11.4183 6.80373 11.4302 6.78901L11.4558 6.75828C11.4688 6.73567 11.4759 6.71012 11.4763 6.68403L11.4635 6.64306Z" fill="#8D3FD0"/>
<path d="M11.6299 7.01689C11.6234 6.99859 11.6129 6.98197 11.5992 6.96824C11.5854 6.95451 11.5688 6.94402 11.5505 6.93752C11.5333 6.92819 11.5138 6.92377 11.4942 6.92472H11.4532C11.4282 6.93177 11.4053 6.94498 11.3866 6.96312L11.3636 6.99385C11.3503 7.01726 11.3432 7.04372 11.3431 7.07067V7.08347C11.3422 7.10388 11.3466 7.12417 11.3559 7.14236C11.363 7.16001 11.3738 7.17598 11.3874 7.18921C11.4011 7.20244 11.4174 7.21265 11.4353 7.21918C11.4532 7.22937 11.4735 7.23467 11.4942 7.23454H11.5326C11.5585 7.22954 11.5819 7.21602 11.5992 7.19613L11.6222 7.1654C11.6364 7.14328 11.6435 7.1174 11.6427 7.09115V7.07835C11.6457 7.057 11.6412 7.03525 11.6299 7.01689V7.01689Z" fill="#8D3FD0"/>
<path d="M10.9437 8.86815C10.9284 8.81626 10.9022 8.76824 10.8669 8.72732C10.8266 8.68563 10.7761 8.65519 10.7204 8.63902C10.6647 8.62286 10.6057 8.62152 10.5494 8.63514C10.5126 8.64644 10.478 8.66374 10.4469 8.68635C10.4241 8.6938 10.4032 8.70602 10.3855 8.7222C10.3468 8.76293 10.3179 8.81197 10.301 8.86559C10.2895 8.92046 10.2895 8.97714 10.301 9.03202C10.3094 9.08058 10.329 9.12649 10.3584 9.16607C10.3877 9.20565 10.4259 9.23779 10.47 9.2599C10.5195 9.28402 10.5737 9.29712 10.6287 9.29831C10.6848 9.29621 10.7398 9.28225 10.79 9.25734C10.8381 9.2315 10.8793 9.19464 10.9104 9.1498C10.9354 9.11501 10.9512 9.07452 10.9565 9.03202C10.9651 8.97714 10.9607 8.92102 10.9437 8.86815Z" fill="#8D3FD0"/>
<path d="M11.1562 8.45078C11.1198 8.45555 11.0865 8.47337 11.0623 8.50093C11.0381 8.52849 11.0248 8.56391 11.0248 8.60057C11.0248 8.63724 11.0381 8.67266 11.0623 8.70022C11.0865 8.72778 11.1198 8.7456 11.1562 8.75036C11.1926 8.7456 11.2259 8.72778 11.2501 8.70022C11.2743 8.67266 11.2876 8.63724 11.2876 8.60057C11.2876 8.56391 11.2743 8.52849 11.2501 8.50093C11.2259 8.47337 11.1926 8.45555 11.1562 8.45078V8.45078Z" fill="#8D3FD0"/>
<path d="M10.2267 9.54412C10.1904 9.54889 10.157 9.56671 10.1328 9.59427C10.1086 9.62183 10.0953 9.65724 10.0953 9.69391C10.0953 9.73058 10.1086 9.76599 10.1328 9.79355C10.157 9.82111 10.1904 9.83894 10.2267 9.8437C10.2631 9.83894 10.2965 9.82111 10.3207 9.79355C10.3448 9.76599 10.3582 9.73058 10.3582 9.69391C10.3582 9.65724 10.3448 9.62183 10.3207 9.59427C10.2965 9.56671 10.2631 9.54889 10.2267 9.54412V9.54412Z" fill="#8D3FD0"/>
<path d="M10.7798 9.66447C10.7397 9.66447 10.7013 9.68038 10.673 9.70871C10.6446 9.73705 10.6287 9.77547 10.6287 9.81554C10.6287 9.8556 10.6446 9.89403 10.673 9.92236C10.7013 9.95069 10.7397 9.96661 10.7798 9.96661C10.8199 9.96661 10.8583 9.95069 10.8866 9.92236C10.915 9.89403 10.9309 9.8556 10.9309 9.81554C10.9309 9.77547 10.915 9.73705 10.8866 9.70871C10.8583 9.68038 10.8199 9.66447 10.7798 9.66447V9.66447Z" fill="#8D3FD0"/>
<path d="M10.4444 10.0178C10.408 10.0226 10.3746 10.0404 10.3505 10.068C10.3263 10.0955 10.3129 10.1309 10.3129 10.1676C10.3129 10.2043 10.3263 10.2397 10.3505 10.2672C10.3746 10.2948 10.408 10.3126 10.4444 10.3174C10.4807 10.3126 10.5141 10.2948 10.5383 10.2672C10.5625 10.2397 10.5758 10.2043 10.5758 10.1676C10.5758 10.1309 10.5625 10.0955 10.5383 10.068C10.5141 10.0404 10.4807 10.0226 10.4444 10.0178V10.0178Z" fill="#8D3FD0"/>
<path opacity="0.31" d="M8.47278 5.09139C7.94004 5.13108 7.44388 5.37732 7.0901 5.7776C7.05703 5.8128 7.03164 5.85449 7.01555 5.90003C6.99946 5.94556 6.99301 5.99395 6.99662 6.04211C7.00024 6.09027 7.01383 6.13715 7.03653 6.17978C7.05924 6.2224 7.09056 6.25984 7.12851 6.28971C7.18375 6.32659 7.24415 6.35507 7.30775 6.3742C7.64318 6.50479 7.9658 6.21545 8.29355 6.09255C8.62129 5.96964 8.90807 6.154 9.23069 6.01573C9.2938 5.98493 9.34872 5.93965 9.391 5.88358C9.43327 5.82751 9.46169 5.76225 9.47394 5.69311C9.56868 5.16308 8.89015 5.0453 8.47278 5.09139Z" fill="#E23D69"/>
<path d="M8.10919 4.61001C8.02522 4.92057 8.01122 5.2459 8.06822 5.56252C8.11431 5.81857 8.20905 6.18985 8.49582 6.27435C8.64689 6.31787 8.78004 6.24618 8.92855 6.25642C9.02841 6.25642 9.13595 6.33068 9.12571 6.44334C9.11547 6.556 8.9644 6.62001 8.86966 6.65074C8.81838 6.67787 8.76124 6.69205 8.70323 6.69205C8.64521 6.69205 8.58807 6.67787 8.53679 6.65074C8.50607 6.62249 8.46586 6.60681 8.42413 6.60681C8.3824 6.60681 8.34218 6.62249 8.31147 6.65074C8.28206 6.68087 8.2656 6.7213 8.2656 6.7634C8.2656 6.8055 8.28206 6.84594 8.31147 6.87607C8.4422 6.96565 8.59808 7.01123 8.75648 7.00616C8.91489 7.0011 9.06754 6.94566 9.19228 6.8479C9.26604 6.80909 9.32817 6.75142 9.37236 6.68076C9.41655 6.61009 9.4412 6.52898 9.4438 6.44568C9.4464 6.36238 9.42687 6.27988 9.38718 6.2066C9.34749 6.13332 9.28907 6.07187 9.21789 6.02854C9.07672 5.9453 8.90891 5.91963 8.74931 5.95684C8.68786 5.95684 8.60593 5.99525 8.54959 5.95684C8.50574 5.91313 8.47474 5.85822 8.45998 5.79809C8.33231 5.44621 8.31622 5.06354 8.41389 4.70219C8.42509 4.66144 8.41965 4.61792 8.39876 4.58118C8.37788 4.54445 8.34325 4.51752 8.3025 4.50631C8.26176 4.49511 8.21823 4.50055 8.1815 4.52143C8.14476 4.54232 8.11783 4.57695 8.10662 4.61769L8.10919 4.61001Z" fill="#FF7900"/>
<path d="M2.78588 6.0439C2.82703 6.00346 2.87158 5.96662 2.91903 5.9338L2.98816 5.89283L3.02145 5.89027C3.02145 5.89027 3.08034 5.89027 3.04193 5.89027H3.07266C3.08546 5.89027 3.10338 5.89027 3.07266 5.89027C3.08456 5.88882 3.0966 5.88882 3.1085 5.89027C3.12131 5.89027 3.13923 5.90307 3.1085 5.89027C3.12136 5.89643 3.13341 5.90417 3.14435 5.91331C3.12643 5.89795 3.14435 5.91331 3.14435 5.91331V5.90051V5.92612L3.18532 5.77248C2.92927 5.99525 2.61176 6.22826 2.63225 6.60465C2.63157 6.696 2.65999 6.78519 2.71339 6.85931C2.76679 6.93343 2.8424 6.98862 2.92927 7.01689C2.97408 7.02765 3.02074 7.02819 3.06579 7.01847C3.11084 7.00875 3.15313 6.98902 3.18952 6.96075C3.22591 6.93247 3.25548 6.89637 3.27602 6.85512C3.29657 6.81386 3.30758 6.76852 3.30822 6.72244C3.30631 6.68051 3.28862 6.64086 3.25871 6.61142C3.22879 6.58198 3.18886 6.56493 3.14691 6.56368C3.10481 6.56368 3.06443 6.58041 3.03466 6.61018C3.00488 6.63995 2.98816 6.68033 2.98816 6.72244C2.98816 6.74548 2.98816 6.72244 2.98816 6.72244C2.98816 6.72244 2.98816 6.68915 2.98816 6.70451C2.98816 6.71987 2.98816 6.70451 2.98816 6.70451C2.98816 6.70451 3.00608 6.70451 2.98816 6.70451H3.00352C2.99235 6.70054 2.98257 6.69343 2.97536 6.68403C2.9595 6.65938 2.94984 6.63127 2.94719 6.60209C2.94396 6.55317 2.95184 6.50415 2.97024 6.4587C3.04193 6.27178 3.25189 6.13608 3.40552 5.99525C3.42549 5.97509 3.43998 5.95015 3.44759 5.92281C3.45521 5.89548 3.45571 5.86664 3.44905 5.83906C3.42271 5.75878 3.37263 5.68838 3.30542 5.63717C3.23822 5.58597 3.15705 5.55636 3.07266 5.55228C2.87639 5.57213 2.6942 5.66323 2.56055 5.80833C2.53582 5.83921 2.52329 5.87809 2.52535 5.9176C2.52741 5.95711 2.54392 5.99449 2.57173 6.02262C2.59955 6.05075 2.63673 6.06768 2.67622 6.07019C2.7157 6.07269 2.75473 6.06061 2.78588 6.03622V6.0439Z" fill="#FF7900"/>
<path d="M20.803 1.69871C19.49 3.44316 17.7539 4.82409 15.7588 5.71103L15.7435 5.72384C15.6692 5.6291 15.5898 5.53948 15.5079 5.45242C15.3974 5.32259 15.2592 5.21932 15.1033 5.15028C14.9525 5.10652 14.7917 5.1117 14.644 5.16507C14.4964 5.21843 14.3694 5.31724 14.2814 5.4473C14.1977 5.58003 14.1436 5.72927 14.1228 5.88481C14.1021 6.04036 14.1151 6.19855 14.1611 6.3486C14.2558 6.64854 14.4168 6.92333 14.6322 7.1526C14.754 7.30394 14.9035 7.4308 15.0726 7.52644C15.155 7.57317 15.246 7.60291 15.3401 7.6139C15.4342 7.6249 15.5296 7.61692 15.6205 7.59045C15.5437 8.53784 15.4277 9.4767 15.2723 10.407C15.2737 10.4129 15.2737 10.419 15.2723 10.4249C15.1467 10.4517 15.0336 10.5196 14.9511 10.618C14.8685 10.7163 14.8211 10.8394 14.8165 10.9678C14.8178 11.1077 14.8499 11.2456 14.9105 11.3718C14.9712 11.4979 15.0588 11.6091 15.1673 11.6975C14.9929 11.7624 14.845 11.8833 14.7467 12.0413C14.6485 12.1994 14.6055 12.3855 14.6245 12.5707C14.6342 12.66 14.6602 12.7468 14.7013 12.8267C14.4473 12.819 14.1981 12.7551 13.9716 12.6398C13.5363 12.4093 13.2367 11.846 13.4595 11.4005C12.7835 11.0881 12.1254 10.5683 12.0153 9.84114C11.9334 9.28039 12.192 8.72988 12.4967 8.25618C12.8014 7.78249 13.1625 7.32672 13.3238 6.78645C13.5158 6.154 13.4108 5.47546 13.4364 4.81485C13.4724 3.98942 13.7087 3.18514 14.1249 2.4714C14.5411 1.75766 15.1247 1.1559 15.8254 0.718029C16.5346 0.29588 17.3356 0.0520523 18.1598 0.00745576C18.9839 -0.0371408 19.8066 0.118825 20.5572 0.461978C20.9412 0.633416 21.2889 0.876776 21.5814 1.17892C22.2011 1.84978 22.388 2.80741 22.4315 3.71639C22.4917 4.585 22.4051 5.45754 22.1755 6.29739H22.1575C22.0899 4.69263 21.6396 3.1273 20.844 1.73199L20.803 1.69871Z" fill="#090E3F"/>
<path d="M20.4497 10.4326C20.355 10.4557 20.2526 10.4326 20.1604 10.4557L20.1834 10.4249C20.6203 10.3312 21.0096 10.0852 21.2819 9.73104C21.5713 9.34399 21.7795 8.90241 21.8939 8.43286C21.9607 8.19717 22.0137 7.95778 22.0526 7.71591C22.5391 8.37653 23.0179 9.08323 23.1024 9.89747C23.1348 10.2234 23.1014 10.5524 23.0042 10.8652C22.907 11.1779 22.748 11.4679 22.5366 11.718C22.3196 11.988 22.0216 12.181 21.6865 12.2685C21.526 11.943 21.2531 11.6865 20.9183 11.5464C21.0476 11.4587 21.1402 11.3265 21.1784 11.1749C21.2166 11.0234 21.1979 10.8631 21.1257 10.7245C21.0563 10.6127 20.9543 10.5249 20.8334 10.4727C20.7126 10.4205 20.5787 10.4065 20.4497 10.4326V10.4326Z" fill="#090E3F"/>
<path d="M22.0526 7.71847C22.0137 7.96034 21.9607 8.19973 21.8939 8.43542C21.7791 8.90408 21.571 9.34475 21.2819 9.73104C21.0023 10.096 20.6037 10.3515 20.1553 10.4531V10.4531C19.9428 10.5018 19.7866 10.3942 19.5689 10.3635C18.6609 10.198 17.7721 9.94064 16.9162 9.59533C16.9325 9.97974 17.0238 10.3573 17.1851 10.7066C16.5565 10.6869 15.9317 10.6011 15.321 10.4505L15.2698 10.4352C15.4269 9.49803 15.5429 8.55918 15.618 7.61861C15.5256 7.64057 15.4297 7.64372 15.336 7.62788C15.2423 7.61205 15.1528 7.57755 15.0727 7.52644C14.9045 7.43053 14.7559 7.30369 14.6348 7.1526C14.4195 6.92333 14.2584 6.64854 14.1637 6.3486C14.1177 6.19855 14.1047 6.04036 14.1254 5.88481C14.1462 5.72927 14.2003 5.58003 14.284 5.4473C14.372 5.31724 14.499 5.21843 14.6467 5.16507C14.7943 5.1117 14.9551 5.10652 15.1059 5.15028C15.2618 5.21932 15.4001 5.32259 15.5105 5.45242C15.5924 5.53948 15.6718 5.6291 15.7461 5.72383L15.7614 5.71103C17.7556 4.82372 19.4908 3.44282 20.8031 1.69871L20.8441 1.73199C21.6371 3.12623 22.0856 4.68968 22.1525 6.29227C22.1641 6.76975 22.1307 7.24727 22.0526 7.71847V7.71847Z" fill="#FFC33E"/>
<path d="M21.6865 12.2711C21.7702 12.4177 21.7958 12.5904 21.7582 12.755C21.748 12.7889 21.7325 12.8209 21.7121 12.8497C20.3678 13.3875 18.8622 13.4668 17.4053 13.4079C16.5386 13.3952 15.6775 13.2669 14.8448 13.0264C14.7835 12.9644 14.7317 12.8936 14.6911 12.8165C14.65 12.7365 14.624 12.6497 14.6143 12.5604C14.5953 12.3753 14.6383 12.1891 14.7365 12.0311C14.8348 11.873 14.9827 11.7521 15.1572 11.6873C15.0519 11.599 14.9669 11.489 14.9081 11.3648C14.8493 11.2406 14.8181 11.1052 14.8166 10.9678C14.8237 10.8424 14.8715 10.7227 14.9529 10.627C15.0342 10.5314 15.1446 10.4649 15.2673 10.4377H15.3287C15.9394 10.5883 16.5641 10.6741 17.1928 10.6938C18.1895 10.7259 19.1865 10.64 20.163 10.4377C20.2551 10.4198 20.3576 10.4377 20.4523 10.4147C20.5827 10.3872 20.7184 10.4007 20.8409 10.4534C20.9633 10.5061 21.0664 10.5955 21.136 10.7092C21.2081 10.8478 21.2269 11.0081 21.1886 11.1596C21.1504 11.3111 21.0578 11.4433 20.9286 11.5311C21.2626 11.6776 21.532 11.9406 21.6865 12.2711V12.2711Z" fill="#7D57C9"/>
<path d="M19.6611 7.75432C19.7608 7.5411 19.9359 7.37236 20.1527 7.28063C20.3143 7.24938 20.4818 7.27616 20.6256 7.35626C20.7694 7.43635 20.8803 7.56462 20.9388 7.71847C20.9911 7.87442 21.0068 8.04031 20.9845 8.20328C20.9623 8.36626 20.9029 8.52192 20.8108 8.65818C20.7679 8.72786 20.7182 8.79305 20.6623 8.85278C20.5746 8.77015 20.5102 8.66597 20.4753 8.55064C20.395 8.37552 20.2733 8.22252 20.1208 8.10478C19.9682 7.98704 19.7894 7.90807 19.5996 7.87467C19.6176 7.83329 19.6381 7.7931 19.6611 7.75432V7.75432Z" fill="#252849"/>
<path d="M20.4753 8.55064C20.5102 8.66597 20.5746 8.77015 20.6623 8.85278C20.5534 8.97354 20.4134 9.06211 20.2577 9.10883C20.1408 9.14489 20.0159 9.14539 19.8987 9.11029C19.7815 9.07518 19.6774 9.00605 19.5996 8.91167C19.5295 8.80711 19.4872 8.68637 19.4767 8.56088C19.4525 8.32349 19.495 8.08403 19.5996 7.86954C19.7899 7.90347 19.9691 7.9832 20.1217 8.10187C20.2742 8.22054 20.3956 8.37456 20.4753 8.55064V8.55064Z" fill="#A02758"/>
<path d="M20.1553 10.4557C19.1788 10.6579 18.1818 10.7439 17.1851 10.7117C17.0238 10.3624 16.9325 9.98486 16.9162 9.60045C17.7721 9.94576 18.6609 10.2031 19.5689 10.3686L20.1553 10.4582V10.4557Z" fill="#FF9E10"/>
<path d="M18.6907 4.68427L18.3373 4.42821C18.3024 4.40905 18.2615 4.40394 18.2229 4.41393C18.1844 4.42393 18.1511 4.44827 18.1299 4.48198C18.1114 4.51702 18.1066 4.55774 18.1165 4.59612C18.1265 4.63451 18.1504 4.66778 18.1837 4.68939L18.4807 4.90959L18.5959 4.99665C18.4218 5.12723 18.2426 5.2527 18.0633 5.38072C18.0303 5.40187 18.0064 5.43469 17.9964 5.47264C17.9865 5.5106 17.9912 5.55091 18.0096 5.58557C18.0196 5.60276 18.033 5.61779 18.0488 5.62981C18.0647 5.64182 18.0828 5.65058 18.1021 5.65558C18.1214 5.66058 18.1414 5.66171 18.1611 5.65893C18.1809 5.65614 18.1998 5.64948 18.217 5.63934L18.578 5.38329L18.7521 5.25782C18.8256 5.21793 18.8868 5.15858 18.9288 5.08627C19.0082 4.88655 18.8136 4.77644 18.6907 4.68427Z" fill="#090E3F"/>
<path d="M21.753 4.84814L21.4739 4.80461L21.3843 4.78925L21.4535 4.67146L21.5994 4.42821C21.6183 4.393 21.6231 4.35187 21.6126 4.31328C21.6021 4.2747 21.5772 4.2416 21.5431 4.22081C21.5082 4.20201 21.4675 4.19737 21.4293 4.20787C21.3912 4.21836 21.3585 4.24318 21.3382 4.27714L21.1718 4.5588L21.0873 4.69963C21.0435 4.75566 21.0216 4.82578 21.0259 4.89679C21.0489 5.0581 21.2205 5.06578 21.3459 5.08371L21.6711 5.13748C21.7077 5.14298 21.745 5.13488 21.776 5.11472C21.807 5.09455 21.8295 5.06372 21.8393 5.02806C21.8491 4.9924 21.8454 4.95439 21.8291 4.92123C21.8127 4.88807 21.7847 4.86206 21.7505 4.84814H21.753Z" fill="#090E3F"/>
<path d="M22.0757 3.72407C21.9984 3.62629 21.8915 3.55621 21.771 3.52435C21.5653 3.45242 21.3405 3.45788 21.1385 3.53972C21.0105 3.59349 20.8825 3.67286 20.862 3.82905C20.8592 3.86343 20.8645 3.89798 20.8774 3.92997C20.8903 3.96197 20.9104 3.99053 20.9362 4.01341C20.9674 4.03941 21.0044 4.05761 21.044 4.06651C21.0836 4.07542 21.1248 4.07477 21.1641 4.06462C21.223 4.06462 21.2819 4.0339 21.3408 4.02109H21.369H21.4022H21.4995C21.558 4.02104 21.6164 4.02705 21.6737 4.03902C21.7382 4.05183 21.8015 4.06981 21.8631 4.09279C21.8821 4.09821 21.902 4.09978 21.9216 4.09742C21.9413 4.09506 21.9602 4.08881 21.9774 4.07903C21.9945 4.06925 22.0096 4.05615 22.0216 4.04049C22.0337 4.02482 22.0425 4.00691 22.0475 3.98781C22.0837 3.95491 22.1065 3.9099 22.1117 3.86129C22.1169 3.81269 22.1041 3.76386 22.0757 3.72407V3.72407Z" fill="#090E3F"/>
<path d="M17.966 3.78553C18.0457 3.69039 18.1517 3.62091 18.2707 3.58581C18.4764 3.51387 18.7012 3.51933 18.9032 3.60117C19.0338 3.65494 19.172 3.73432 19.1823 3.89051C19.185 3.92489 19.1797 3.95943 19.1669 3.99143C19.154 4.02342 19.1338 4.05198 19.108 4.07486C19.0768 4.10086 19.0399 4.11906 19.0003 4.12797C18.9606 4.13687 18.9195 4.13622 18.8801 4.12608C18.8212 4.12608 18.7649 4.09535 18.7035 4.08255H18.6753H18.6292H18.5319C18.4735 4.08377 18.4152 4.08976 18.3578 4.10047C18.2932 4.11416 18.2299 4.133 18.1683 4.1568C18.13 4.16704 18.0891 4.16176 18.0546 4.14212C18.0201 4.12247 17.9947 4.09003 17.984 4.05182V4.05182C17.9501 4.01664 17.9298 3.97065 17.9265 3.92194C17.9232 3.87323 17.9372 3.82492 17.966 3.78553V3.78553Z" fill="#090E3F"/>
<path d="M22.3112 6.91447L21.1769 7.58021C21.1501 7.60334 21.1323 7.63515 21.1266 7.67007C21.1209 7.705 21.1276 7.74082 21.1456 7.77131C21.1635 7.80179 21.1917 7.82499 21.225 7.83686C21.2583 7.84873 21.2948 7.84852 21.328 7.83626L22.4623 7.17053C22.4891 7.14739 22.5069 7.11559 22.5126 7.08066C22.5184 7.04574 22.5117 7.00991 22.4937 6.97943C22.4757 6.94894 22.4476 6.92574 22.4142 6.91387C22.3809 6.902 22.3444 6.90222 22.3112 6.91447V6.91447Z" fill="#8D3FD0"/>
<path d="M22.3343 8.10767L21.4739 8.09487C21.4346 8.09487 21.3968 8.11052 21.3689 8.13837C21.3411 8.16622 21.3254 8.20399 21.3254 8.24338C21.3261 8.28281 21.3418 8.32048 21.3695 8.34861C21.3971 8.37673 21.4345 8.39314 21.4739 8.39445H22.3394C22.359 8.3948 22.3785 8.39119 22.3966 8.38385C22.4148 8.37651 22.4313 8.36559 22.4452 8.35173C22.459 8.33787 22.47 8.32136 22.4773 8.30318C22.4846 8.28501 22.4883 8.26554 22.4879 8.24594C22.4847 8.20769 22.467 8.1721 22.4384 8.14642C22.4099 8.12074 22.3727 8.10688 22.3343 8.10767V8.10767Z" fill="#8D3FD0"/>
<path d="M21.835 9.19589L21.2973 8.77597C21.2677 8.74922 21.2296 8.7338 21.1897 8.73244C21.1503 8.73246 21.1126 8.74811 21.0847 8.77597C21.0562 8.80355 21.0396 8.84126 21.0387 8.88095C21.0387 8.90106 21.0427 8.92096 21.0507 8.93945C21.0586 8.95794 21.0702 8.97462 21.0847 8.98849L21.6225 9.40842C21.652 9.43516 21.6901 9.45058 21.73 9.45194C21.7691 9.45065 21.8064 9.43518 21.835 9.40842C21.8628 9.37949 21.8783 9.34098 21.8785 9.30087C21.8793 9.28127 21.8758 9.26173 21.8683 9.24361C21.8607 9.22548 21.8494 9.2092 21.835 9.19589V9.19589Z" fill="#8D3FD0"/>
<path d="M23.2381 7.37793C23.1574 7.31139 23.0582 7.27117 22.9539 7.2627C22.8682 7.25821 22.7835 7.28255 22.7132 7.33184C22.6691 7.36265 22.6324 7.40288 22.6057 7.44962C22.5912 7.47991 22.5801 7.51167 22.5724 7.54436C22.5724 7.54436 22.5724 7.54436 22.5724 7.55716C22.5471 7.64233 22.5554 7.73393 22.5954 7.81321C22.6349 7.88942 22.6965 7.95191 22.7721 7.99245C22.8449 8.03193 22.9252 8.0555 23.0077 8.06158C23.0916 8.06912 23.1756 8.04788 23.2459 8.00135C23.3162 7.95481 23.3685 7.88576 23.3943 7.80553C23.4112 7.72678 23.4055 7.64487 23.3779 7.56922C23.3502 7.49357 23.3018 7.42726 23.2381 7.37793V7.37793Z" fill="#8D3FD0"/>
<path d="M22.9386 6.77621C22.9022 6.78097 22.8688 6.79879 22.8446 6.82635C22.8204 6.85391 22.8071 6.88933 22.8071 6.926C22.8071 6.96266 22.8204 6.99808 22.8446 7.02564C22.8688 7.0532 22.9022 7.07102 22.9386 7.07579C22.9749 7.07102 23.0083 7.0532 23.0325 7.02564C23.0567 6.99808 23.07 6.96266 23.07 6.926C23.07 6.88933 23.0567 6.85391 23.0325 6.82635C23.0083 6.79879 22.9749 6.78097 22.9386 6.77621V6.77621Z" fill="#8D3FD0"/>
<path d="M23.4635 6.64306C23.4558 6.61771 23.4417 6.59477 23.4225 6.57648V6.56368C23.4101 6.54837 23.393 6.53757 23.3738 6.53296C23.3566 6.52363 23.3371 6.5192 23.3175 6.52015C23.2971 6.51924 23.2768 6.52365 23.2586 6.53296C23.2397 6.5382 23.2228 6.54889 23.21 6.56368L23.1869 6.59441C23.1736 6.61782 23.1665 6.64428 23.1664 6.67122V6.70963C23.1735 6.73468 23.1867 6.75756 23.2048 6.7762L23.2202 6.78901C23.2321 6.80373 23.2482 6.81446 23.2663 6.81973C23.2848 6.82824 23.3049 6.83264 23.3252 6.83264C23.3455 6.83264 23.3656 6.82824 23.3841 6.81973C23.4022 6.81446 23.4183 6.80373 23.4302 6.78901L23.4558 6.75828C23.4688 6.73567 23.4759 6.71012 23.4763 6.68403L23.4635 6.64306Z" fill="#8D3FD0"/>
<path d="M23.6299 7.01689C23.6234 6.99859 23.6129 6.98197 23.5992 6.96824C23.5854 6.95451 23.5688 6.94402 23.5505 6.93752C23.5333 6.92819 23.5138 6.92377 23.4942 6.92472H23.4532C23.4282 6.93177 23.4053 6.94498 23.3866 6.96312L23.3636 6.99385C23.3503 7.01726 23.3432 7.04372 23.3431 7.07067V7.08347C23.3422 7.10388 23.3466 7.12417 23.3559 7.14236C23.363 7.16001 23.3738 7.17598 23.3874 7.18921C23.4011 7.20244 23.4174 7.21265 23.4353 7.21918C23.4532 7.22937 23.4735 7.23467 23.4942 7.23454H23.5326C23.5585 7.22954 23.5819 7.21602 23.5992 7.19613L23.6222 7.1654C23.6364 7.14328 23.6435 7.1174 23.6427 7.09115V7.07835C23.6458 7.057 23.6412 7.03525 23.6299 7.01689V7.01689Z" fill="#8D3FD0"/>
<path d="M22.9437 8.86815C22.9284 8.81626 22.9022 8.76824 22.8669 8.72732C22.8266 8.68563 22.7761 8.65519 22.7204 8.63902C22.6647 8.62286 22.6057 8.62152 22.5494 8.63514C22.5126 8.64644 22.478 8.66374 22.4469 8.68635C22.4241 8.6938 22.4032 8.70602 22.3855 8.7222C22.3468 8.76293 22.3179 8.81197 22.301 8.86559C22.2895 8.92046 22.2895 8.97714 22.301 9.03202C22.3094 9.08058 22.329 9.12649 22.3584 9.16607C22.3877 9.20565 22.4259 9.23779 22.47 9.2599C22.5195 9.28402 22.5737 9.29712 22.6287 9.29831C22.6848 9.29621 22.7398 9.28225 22.79 9.25734C22.8381 9.2315 22.8793 9.19464 22.9104 9.1498C22.9354 9.11501 22.9512 9.07452 22.9565 9.03202C22.9651 8.97714 22.9607 8.92102 22.9437 8.86815Z" fill="#8D3FD0"/>
<path d="M23.1562 8.45078C23.1198 8.45555 23.0865 8.47337 23.0623 8.50093C23.0381 8.52849 23.0248 8.56391 23.0248 8.60057C23.0248 8.63724 23.0381 8.67266 23.0623 8.70022C23.0865 8.72778 23.1198 8.7456 23.1562 8.75036C23.1926 8.7456 23.2259 8.72778 23.2501 8.70022C23.2743 8.67266 23.2876 8.63724 23.2876 8.60057C23.2876 8.56391 23.2743 8.52849 23.2501 8.50093C23.2259 8.47337 23.1926 8.45555 23.1562 8.45078V8.45078Z" fill="#8D3FD0"/>
<path d="M22.2267 9.54412C22.1904 9.54889 22.157 9.56671 22.1328 9.59427C22.1086 9.62183 22.0953 9.65724 22.0953 9.69391C22.0953 9.73058 22.1086 9.76599 22.1328 9.79355C22.157 9.82111 22.1904 9.83894 22.2267 9.8437C22.2631 9.83894 22.2965 9.82111 22.3207 9.79355C22.3448 9.76599 22.3582 9.73058 22.3582 9.69391C22.3582 9.65724 22.3448 9.62183 22.3207 9.59427C22.2965 9.56671 22.2631 9.54889 22.2267 9.54412V9.54412Z" fill="#8D3FD0"/>
<path d="M22.7798 9.66447C22.7397 9.66447 22.7013 9.68038 22.673 9.70871C22.6446 9.73705 22.6287 9.77547 22.6287 9.81554C22.6287 9.8556 22.6446 9.89403 22.673 9.92236C22.7013 9.95069 22.7397 9.96661 22.7798 9.96661C22.8199 9.96661 22.8583 9.95069 22.8866 9.92236C22.915 9.89403 22.9309 9.8556 22.9309 9.81554C22.9309 9.77547 22.915 9.73705 22.8866 9.70871C22.8583 9.68038 22.8199 9.66447 22.7798 9.66447V9.66447Z" fill="#8D3FD0"/>
<path d="M22.4444 10.0178C22.408 10.0226 22.3746 10.0404 22.3505 10.068C22.3263 10.0955 22.3129 10.1309 22.3129 10.1676C22.3129 10.2043 22.3263 10.2397 22.3505 10.2672C22.3746 10.2948 22.408 10.3126 22.4444 10.3174C22.4807 10.3126 22.5141 10.2948 22.5383 10.2672C22.5625 10.2397 22.5758 10.2043 22.5758 10.1676C22.5758 10.1309 22.5625 10.0955 22.5383 10.068C22.5141 10.0404 22.4807 10.0226 22.4444 10.0178V10.0178Z" fill="#8D3FD0"/>
<path opacity="0.31" d="M20.4728 5.09139C19.94 5.13108 19.4439 5.37732 19.0901 5.7776C19.057 5.8128 19.0316 5.85449 19.0156 5.90003C18.9995 5.94556 18.993 5.99395 18.9966 6.04211C19.0002 6.09027 19.0138 6.13715 19.0365 6.17978C19.0592 6.2224 19.0906 6.25984 19.1285 6.28971C19.1837 6.32659 19.2442 6.35507 19.3077 6.3742C19.6432 6.50479 19.9658 6.21545 20.2935 6.09255C20.6213 5.96964 20.9081 6.154 21.2307 6.01573C21.2938 5.98493 21.3487 5.93965 21.391 5.88358C21.4333 5.82751 21.4617 5.76225 21.4739 5.69311C21.5687 5.16308 20.8901 5.0453 20.4728 5.09139Z" fill="#E23D69"/>
<path d="M20.1092 4.61001C20.0252 4.92057 20.0112 5.2459 20.0682 5.56252C20.1143 5.81857 20.209 6.18985 20.4958 6.27435C20.6469 6.31787 20.78 6.24618 20.9285 6.25642C21.0284 6.25642 21.136 6.33068 21.1257 6.44334C21.1155 6.556 20.9644 6.62001 20.8697 6.65074C20.8184 6.67787 20.7612 6.69205 20.7032 6.69205C20.6452 6.69205 20.5881 6.67787 20.5368 6.65074C20.5061 6.62249 20.4659 6.60681 20.4241 6.60681C20.3824 6.60681 20.3422 6.62249 20.3115 6.65074C20.2821 6.68087 20.2656 6.7213 20.2656 6.7634C20.2656 6.8055 20.2821 6.84594 20.3115 6.87607C20.4422 6.96565 20.5981 7.01123 20.7565 7.00616C20.9149 7.0011 21.0675 6.94566 21.1923 6.8479C21.266 6.80909 21.3282 6.75142 21.3724 6.68076C21.4165 6.61009 21.4412 6.52898 21.4438 6.44568C21.4464 6.36238 21.4269 6.27988 21.3872 6.2066C21.3475 6.13332 21.2891 6.07187 21.2179 6.02854C21.0767 5.9453 20.9089 5.91963 20.7493 5.95684C20.6879 5.95684 20.6059 5.99525 20.5496 5.95684C20.5057 5.91313 20.4747 5.85822 20.46 5.79809C20.3323 5.44621 20.3162 5.06354 20.4139 4.70219C20.4251 4.66144 20.4197 4.61792 20.3988 4.58118C20.3779 4.54445 20.3432 4.51752 20.3025 4.50631C20.2618 4.49511 20.2182 4.50055 20.1815 4.52143C20.1448 4.54232 20.1178 4.57695 20.1066 4.61769L20.1092 4.61001Z" fill="#FF7900"/>
<path d="M14.7859 6.0439C14.827 6.00346 14.8716 5.96662 14.919 5.9338L14.9882 5.89283L15.0214 5.89027C15.0214 5.89027 15.0803 5.89027 15.0419 5.89027H15.0727C15.0855 5.89027 15.1034 5.89027 15.0727 5.89027C15.0846 5.88882 15.0966 5.88882 15.1085 5.89027C15.1213 5.89027 15.1392 5.90307 15.1085 5.89027C15.1214 5.89643 15.1334 5.90417 15.1443 5.91331C15.1264 5.89795 15.1443 5.91331 15.1443 5.91331V5.90051V5.92612L15.1853 5.77248C14.9293 5.99525 14.6118 6.22826 14.6322 6.60465C14.6316 6.696 14.66 6.78519 14.7134 6.85931C14.7668 6.93343 14.8424 6.98862 14.9293 7.01689C14.9741 7.02765 15.0207 7.02819 15.0658 7.01847C15.1108 7.00875 15.1531 6.98902 15.1895 6.96075C15.2259 6.93247 15.2555 6.89637 15.276 6.85512C15.2966 6.81386 15.3076 6.76852 15.3082 6.72244C15.3063 6.68051 15.2886 6.64086 15.2587 6.61142C15.2288 6.58198 15.1889 6.56493 15.1469 6.56368C15.1048 6.56368 15.0644 6.58041 15.0347 6.61018C15.0049 6.63995 14.9882 6.68033 14.9882 6.72244C14.9882 6.74548 14.9882 6.72244 14.9882 6.72244C14.9882 6.72244 14.9882 6.68915 14.9882 6.70451C14.9882 6.71987 14.9882 6.70451 14.9882 6.70451C14.9882 6.70451 15.0061 6.70451 14.9882 6.70451H15.0035C14.9924 6.70054 14.9826 6.69343 14.9754 6.68403C14.9595 6.65938 14.9498 6.63127 14.9472 6.60209C14.944 6.55317 14.9518 6.50415 14.9702 6.4587C15.0419 6.27178 15.2519 6.13608 15.4055 5.99525C15.4255 5.97509 15.44 5.95015 15.4476 5.92281C15.4552 5.89548 15.4557 5.86664 15.4491 5.83906C15.4227 5.75878 15.3726 5.68838 15.3054 5.63717C15.2382 5.58597 15.157 5.55636 15.0727 5.55228C14.8764 5.57213 14.6942 5.66323 14.5606 5.80833C14.5358 5.83921 14.5233 5.87809 14.5253 5.9176C14.5274 5.95711 14.5439 5.99449 14.5717 6.02262C14.5995 6.05075 14.6367 6.06768 14.6762 6.07019C14.7157 6.07269 14.7547 6.06061 14.7859 6.03622V6.0439Z" fill="#FF7900"/>
</svg>
