<svg width="60" height="69" viewBox="0 0 60 69" fill="none" xmlns="http://www.w3.org/2000/svg">
<path d="M45.3662 8.72191C38.5995 17.6846 29.6528 24.7795 19.371 29.3364L19.2918 29.4022C18.9092 28.9154 18.5001 28.455 18.0779 28.0077C17.5087 27.3407 16.7961 26.8101 15.993 26.4554C15.2158 26.2306 14.3871 26.2572 13.626 26.5313C12.865 26.8055 12.2107 27.3132 11.7572 27.9814C11.3258 28.6634 11.0471 29.4301 10.94 30.2292C10.833 31.0284 10.9002 31.8412 11.137 32.6121C11.6253 34.1531 12.4552 35.5649 13.565 36.7429C14.1929 37.5204 14.9631 38.1722 15.8346 38.6636C16.2594 38.9037 16.7281 39.0565 17.2132 39.113C17.6982 39.1694 18.1896 39.1285 18.6585 38.9925C18.2626 43.86 17.6644 48.6836 16.8639 53.4634C16.8712 53.4937 16.8712 53.5252 16.8639 53.5555C16.2166 53.6929 15.6339 54.0419 15.2084 54.5472C14.7828 55.0525 14.5388 55.6851 14.5151 56.3444C14.5216 57.0634 14.687 57.7721 14.9995 58.4201C15.3119 59.0681 15.7638 59.6395 16.3229 60.0937C15.424 60.4268 14.6615 61.0481 14.1551 61.8601C13.6488 62.672 13.4273 63.6286 13.5254 64.5797C13.5753 65.0387 13.7095 65.4846 13.9213 65.8952C12.612 65.8555 11.3277 65.5276 10.1605 64.9349C7.91731 63.7509 6.37344 60.8567 7.52145 58.5677C4.03783 56.9627 0.646583 54.2922 0.079176 50.556C-0.34308 47.675 0.989667 44.8466 2.55993 42.4129C4.1302 39.9791 5.99077 37.6375 6.82208 34.8617C7.81175 31.6123 7.27073 28.1261 7.40269 24.732C7.5883 20.4911 8.80606 16.3589 10.9509 12.6919C13.0958 9.02482 16.1033 5.93309 19.7141 3.6834C23.369 1.51449 27.4971 0.26175 31.7443 0.0326222C35.9915 -0.196505 40.2311 0.604814 44.0994 2.36786C46.0784 3.24867 47.8701 4.49901 49.3776 6.05137C52.5709 9.49808 53.5342 14.4182 53.7585 19.0884C54.0686 23.5511 53.6226 28.034 52.439 32.349H52.3466C51.9982 24.1041 49.6772 16.0617 45.5773 8.89293L45.3662 8.72191Z" fill="#090E3F"/>
<path d="M43.5452 53.595C43.057 53.7134 42.5291 53.595 42.0541 53.7134L42.1729 53.5556C44.4241 53.0738 46.4303 51.8103 47.8337 49.9905C49.3252 48.0019 50.3979 45.7332 50.9875 43.3207C51.3319 42.1098 51.6051 40.8799 51.8056 39.6372C54.3127 43.0313 56.7803 46.6622 57.2157 50.8456C57.3827 52.5199 57.2106 54.2106 56.7096 55.8173C56.2087 57.424 55.3891 58.9141 54.2995 60.199C53.1817 61.5863 51.6456 62.578 49.9186 63.0274C49.0916 61.3549 47.6855 60.0372 45.96 59.3176C46.6263 58.8667 47.1032 58.1874 47.3003 57.4089C47.4973 56.6304 47.4007 55.8069 47.0288 55.0948C46.6709 54.5204 46.1453 54.0689 45.5226 53.8009C44.9 53.5328 44.21 53.461 43.5452 53.595Z" fill="#090E3F"/>
<path d="M51.8056 39.6503C51.6051 40.893 51.3319 42.1229 50.9875 43.3339C50.3963 45.7417 49.3236 48.0058 47.8337 49.9905C46.3929 51.8657 44.3386 53.1784 42.0277 53.7003C40.9325 53.9502 40.1276 53.3977 39.0059 53.2399C34.3267 52.3897 29.7463 51.0673 25.3354 49.2932C25.4193 51.2683 25.89 53.2078 26.7209 55.0027C23.4814 54.9014 20.2615 54.4605 17.1146 53.6871L16.8507 53.6082C17.66 48.7933 18.2582 43.9697 18.6453 39.1373C18.1688 39.2501 17.6745 39.2663 17.1917 39.1849C16.7089 39.1035 16.2474 38.9263 15.8346 38.6637C14.9678 38.1709 14.2022 37.5193 13.5782 36.743C12.4684 35.565 11.6385 34.1533 11.1502 32.6122C10.9134 31.8413 10.8462 31.0285 10.9532 30.2294C11.0603 29.4302 11.339 28.6635 11.7704 27.9815C12.2239 27.3133 12.8782 26.8056 13.6392 26.5315C14.4003 26.2573 15.229 26.2307 16.0062 26.4555C16.8093 26.8102 17.5219 27.3408 18.0911 28.0078C18.5133 28.4551 18.9224 28.9155 19.305 29.4023L19.3842 29.3365C29.6612 24.7777 38.6032 17.6829 45.3662 8.72203L45.5773 8.89305C49.664 16.0564 51.9757 24.089 52.3202 32.3228C52.3803 34.776 52.2079 37.2294 51.8056 39.6503Z" fill="#FFC33E"/>
<path d="M49.9186 63.0406C50.3501 63.7939 50.4819 64.6813 50.2881 65.527C50.236 65.701 50.1558 65.8654 50.0506 66.0137C43.1229 68.7763 35.364 69.1842 27.8557 68.8816C23.3894 68.8161 18.9517 68.1569 14.6602 66.9214C14.3445 66.6026 14.0777 66.2391 13.8685 65.8427C13.6567 65.4321 13.5225 64.9862 13.4726 64.5271C13.3745 63.5761 13.596 62.6195 14.1024 61.8075C14.6087 60.9956 15.3712 60.3743 16.2701 60.0412C15.7274 59.5876 15.2896 59.0225 14.9866 58.3844C14.6837 57.7463 14.5228 57.0504 14.5151 56.3445C14.5515 55.7003 14.7982 55.0856 15.2174 54.594C15.6367 54.1024 16.2055 53.7608 16.8375 53.6213H17.1542C20.3011 54.3947 23.521 54.8356 26.7605 54.9369C31.897 55.1021 37.035 54.6605 42.0673 53.6213C42.5423 53.5292 43.0702 53.6213 43.5584 53.5029C44.2305 53.3614 44.93 53.4309 45.5609 53.7018C46.1917 53.9727 46.723 54.4317 47.0816 55.0158C47.4535 55.728 47.5501 56.5515 47.3531 57.33C47.156 58.1085 46.6791 58.7877 46.0128 59.2387C47.7343 59.9915 49.1226 61.3427 49.9186 63.0406Z" fill="#7D57C9"/>
<path d="M39.481 39.8345C39.9949 38.739 40.8974 37.872 42.0145 37.4008C42.8473 37.2402 43.7103 37.3778 44.4513 37.7893C45.1924 38.2008 45.764 38.8599 46.0655 39.6503C46.3351 40.4515 46.4157 41.3039 46.3013 42.1412C46.1869 42.9785 45.8804 43.7782 45.4058 44.4784C45.1849 44.8363 44.9285 45.1713 44.6404 45.4782C44.1887 45.0536 43.8565 44.5183 43.6771 43.9258C43.263 43.0261 42.6359 42.24 41.8499 41.6351C41.0638 41.0301 40.1422 40.6244 39.1643 40.4528C39.2566 40.2402 39.3624 40.0337 39.481 39.8345Z" fill="#252849"/>
<path d="M43.6771 43.9258C43.8566 44.5183 44.1887 45.0536 44.6404 45.4782C44.0793 46.0986 43.3581 46.5536 42.5555 46.7937C41.9532 46.9789 41.3093 46.9815 40.7055 46.8012C40.1016 46.6208 39.5652 46.2656 39.1643 45.7807C38.8028 45.2435 38.5848 44.6231 38.5309 43.9784C38.4059 42.7587 38.6252 41.5285 39.1643 40.4265C40.1449 40.6008 41.0682 41.0104 41.8545 41.6201C42.6408 42.2298 43.2663 43.0212 43.6771 43.9258Z" fill="#A02758"/>
<path d="M42.0277 53.7134C36.9954 54.7526 31.8574 55.1941 26.7209 55.029C25.89 53.2341 25.4193 51.2946 25.3354 49.3195C29.7463 51.0936 34.3267 52.416 39.0059 53.2661L42.0277 53.7266V53.7134Z" fill="#FF9E10"/>
<path d="M34.4799 24.0612L32.6589 22.7457C32.479 22.6472 32.2681 22.6209 32.0695 22.6723C31.8708 22.7236 31.6993 22.8487 31.5901 23.0219C31.4944 23.202 31.4698 23.4111 31.5211 23.6083C31.5724 23.8055 31.6958 23.9765 31.8672 24.0875L33.3978 25.2189L33.9916 25.6662C33.0943 26.3371 32.1707 26.9817 31.247 27.6395C31.0766 27.7481 30.9535 27.9167 30.9022 28.1117C30.8508 28.3067 30.875 28.5138 30.9699 28.6919C31.0216 28.7802 31.0904 28.8575 31.1722 28.9192C31.2541 28.9809 31.3473 29.0259 31.4467 29.0516C31.546 29.0773 31.6494 29.0831 31.751 29.0688C31.8526 29.0545 31.9504 29.0203 32.0387 28.9682L33.8993 27.6526L34.7966 27.008C35.1754 26.8031 35.4904 26.4981 35.7071 26.1266C36.1161 25.1005 35.1133 24.5348 34.4799 24.0612Z" fill="#090E3F"/>
<path d="M50.2617 24.9031L48.8234 24.6795L48.3616 24.6006L48.7178 23.9954L49.47 22.7457C49.5676 22.5648 49.5919 22.3534 49.5379 22.1552C49.4839 21.9569 49.3557 21.7869 49.1797 21.6801C49.0002 21.5835 48.7903 21.5596 48.5936 21.6136C48.3969 21.6675 48.2287 21.795 48.124 21.9695L47.2663 23.4166L46.8309 24.1401C46.605 24.428 46.4924 24.7882 46.5142 25.1531C46.6329 25.9819 47.517 26.0213 48.1636 26.1134L49.8395 26.3897C50.0279 26.418 50.2202 26.3764 50.3799 26.2728C50.5397 26.1692 50.6557 26.0107 50.7062 25.8275C50.7566 25.6443 50.7378 25.449 50.6535 25.2787C50.5691 25.1083 50.4251 24.9747 50.2485 24.9031H50.2617Z" fill="#090E3F"/>
<path d="M51.9243 19.1279C51.526 18.6255 50.9751 18.2655 50.3541 18.1018C49.2941 17.7322 48.1355 17.7603 47.0948 18.1807C46.435 18.457 45.7752 18.8648 45.6697 19.6673C45.6556 19.8439 45.6828 20.0214 45.7492 20.1858C45.8156 20.3502 45.9194 20.4969 46.0523 20.6145C46.2131 20.748 46.4035 20.8416 46.6077 20.8873C46.8119 20.9331 47.0241 20.9297 47.2267 20.8776C47.5302 20.8776 47.8337 20.7197 48.1372 20.6539H48.2824H48.4539H48.9554C49.2568 20.6537 49.5575 20.6845 49.8526 20.746C50.185 20.8119 50.5116 20.9043 50.8291 21.0223C50.927 21.0501 51.0295 21.0582 51.1306 21.0461C51.2317 21.034 51.3293 21.0018 51.4178 20.9516C51.5063 20.9014 51.5838 20.834 51.6459 20.7536C51.7079 20.6731 51.7533 20.5811 51.7792 20.4829C51.9655 20.3139 52.0832 20.0826 52.11 19.8329C52.1367 19.5832 52.0707 19.3323 51.9243 19.1279Z" fill="#090E3F"/>
<path d="M30.7456 19.4437C31.1562 18.9549 31.7024 18.5979 32.3158 18.4175C33.3757 18.048 34.5344 18.076 35.5751 18.4965C36.2481 18.7727 36.9606 19.1806 37.0134 19.983C37.0275 20.1597 37.0003 20.3372 36.9339 20.5015C36.8675 20.6659 36.7637 20.8127 36.6307 20.9302C36.47 21.0638 36.2796 21.1573 36.0754 21.2031C35.8712 21.2488 35.659 21.2455 35.4563 21.1933C35.1529 21.1933 34.8626 21.0355 34.5459 20.9697H34.4007H34.1632H33.6618C33.3606 20.976 33.0605 21.0068 32.7645 21.0618C32.4318 21.1321 32.1052 21.2289 31.788 21.3512C31.5903 21.4038 31.3798 21.3767 31.202 21.2757C31.0242 21.1748 30.8934 21.0082 30.8379 20.8118C30.6635 20.6311 30.5586 20.3948 30.5417 20.1445C30.5248 19.8943 30.597 19.6461 30.7456 19.4437Z" fill="#090E3F"/>
<path d="M53.1383 35.5195L47.2927 38.9399C47.1547 39.0588 47.0629 39.2222 47.0333 39.4016C47.0038 39.5811 47.0384 39.7652 47.1311 39.9218C47.2237 40.0784 47.3686 40.1976 47.5405 40.2586C47.7123 40.3196 47.9002 40.3185 48.0713 40.2555L53.9169 36.8351C54.0549 36.7162 54.1467 36.5528 54.1763 36.3734C54.2058 36.194 54.1712 36.0099 54.0785 35.8533C53.9859 35.6966 53.841 35.5774 53.6691 35.5165C53.4973 35.4555 53.3094 35.4566 53.1383 35.5195Z" fill="#8D3FD0"/>
<path d="M53.2571 41.6499L48.8234 41.5842C48.6204 41.5842 48.4258 41.6646 48.2822 41.8076C48.1387 41.9507 48.0581 42.1448 48.0581 42.3472C48.0613 42.5498 48.1426 42.7433 48.2851 42.8878C48.4276 43.0323 48.6203 43.1166 48.8234 43.1233H53.2835C53.3845 43.1251 53.4848 43.1066 53.5785 43.0689C53.6721 43.0312 53.7572 42.975 53.8286 42.9038C53.9001 42.8326 53.9564 42.7478 53.9942 42.6544C54.032 42.561 54.0506 42.461 54.0488 42.3603C54.0321 42.1638 53.941 41.981 53.7939 41.849C53.6468 41.7171 53.4549 41.6459 53.2571 41.6499Z" fill="#8D3FD0"/>
<path d="M50.684 47.241L47.9129 45.0835C47.7604 44.9461 47.5641 44.8669 47.3587 44.8599C47.1557 44.86 46.9611 44.9404 46.8177 45.0835C46.6705 45.2252 46.5852 45.419 46.5802 45.6229C46.5802 45.7262 46.6012 45.8285 46.642 45.9235C46.6829 46.0184 46.7426 46.1042 46.8177 46.1754L49.5887 48.3329C49.7412 48.4703 49.9375 48.5495 50.143 48.5565C50.3445 48.5499 50.5368 48.4704 50.684 48.3329C50.8271 48.1843 50.9074 47.9864 50.9083 47.7804C50.9122 47.6796 50.8942 47.5793 50.8555 47.4862C50.8168 47.393 50.7582 47.3094 50.684 47.241Z" fill="#8D3FD0"/>
<path d="M57.9151 37.9007C57.499 37.5588 56.9878 37.3522 56.4504 37.3087C56.0088 37.2856 55.5721 37.4106 55.21 37.6639C54.9826 37.8222 54.7933 38.0289 54.6558 38.269C54.5812 38.4246 54.5237 38.5878 54.4843 38.7558C54.4843 38.7558 54.4843 38.7558 54.4843 38.8215C54.3541 39.2591 54.3966 39.7297 54.603 40.1371C54.8063 40.5286 55.1237 40.8497 55.5135 41.058C55.8884 41.2608 56.3022 41.3819 56.7275 41.4131C57.1601 41.4519 57.593 41.3427 57.9551 41.1037C58.3172 40.8646 58.587 40.5098 58.72 40.0976C58.807 39.693 58.7776 39.2721 58.6352 38.8835C58.4928 38.4948 58.2432 38.1541 57.9151 37.9007Z" fill="#8D3FD0"/>
<path d="M56.3712 34.8091C56.1839 34.8336 56.0118 34.9252 55.8872 35.0668C55.7626 35.2084 55.6938 35.3903 55.6938 35.5787C55.6938 35.7671 55.7626 35.9491 55.8872 36.0907C56.0118 36.2323 56.1839 36.3238 56.3712 36.3483C56.5586 36.3238 56.7306 36.2323 56.8553 36.0907C56.9799 35.9491 57.0486 35.7671 57.0486 35.5787C57.0486 35.3903 56.9799 35.2084 56.8553 35.0668C56.7306 34.9252 56.5586 34.8336 56.3712 34.8091Z" fill="#8D3FD0"/>
<path d="M59.0763 34.1251C59.0367 33.9948 58.964 33.877 58.8652 33.783V33.7172C58.8013 33.6386 58.7132 33.5831 58.6145 33.5594C58.5255 33.5115 58.4251 33.4887 58.3242 33.4936C58.219 33.4889 58.1144 33.5116 58.0207 33.5594C57.9234 33.5863 57.8362 33.6412 57.77 33.7172L57.6512 33.8751C57.5825 33.9954 57.5461 34.1313 57.5456 34.2698V34.4671C57.582 34.5958 57.65 34.7133 57.7436 34.8091L57.8227 34.8749C57.8838 34.9506 57.9667 35.0057 58.0603 35.0328C58.1554 35.0765 58.259 35.0991 58.3638 35.0991C58.4685 35.0991 58.5721 35.0765 58.6673 35.0328C58.7608 35.0057 58.8437 34.9506 58.9048 34.8749L59.0367 34.7171C59.1038 34.6009 59.1402 34.4696 59.1423 34.3355L59.0763 34.1251Z" fill="#8D3FD0"/>
<path d="M59.934 36.0457C59.9005 35.9517 59.8465 35.8663 59.7757 35.7958C59.7049 35.7252 59.6193 35.6713 59.525 35.6379C59.436 35.59 59.3356 35.5673 59.2347 35.5722H59.0235C58.8945 35.6084 58.7765 35.6762 58.6805 35.7695L58.5617 35.9273C58.4929 36.0476 58.4566 36.1836 58.4561 36.322V36.3878C58.4514 36.4926 58.4742 36.5969 58.5221 36.6904C58.5587 36.7811 58.6141 36.8631 58.6845 36.9311C58.755 36.999 58.839 37.0515 58.9312 37.085C59.0236 37.1374 59.1283 37.1646 59.2347 37.1639H59.4326C59.5659 37.1383 59.6867 37.0688 59.7757 36.9666L59.8944 36.8088C59.9673 36.6951 60.0041 36.5621 60 36.4272V36.3615C60.0157 36.2518 59.9924 36.14 59.934 36.0457Z" fill="#8D3FD0"/>
<path d="M56.3976 45.5571C56.319 45.2905 56.184 45.0438 56.0018 44.8336C55.794 44.6194 55.5338 44.463 55.2468 44.3799C54.9598 44.2969 54.656 44.29 54.3655 44.36C54.1762 44.418 53.9979 44.5069 53.8377 44.6231C53.7202 44.6614 53.6123 44.7241 53.521 44.8072C53.3214 45.0165 53.1725 45.2685 53.0856 45.5439C53.0261 45.8259 53.0261 46.1171 53.0856 46.3991C53.1287 46.6485 53.23 46.8844 53.3813 47.0878C53.5325 47.2911 53.7295 47.4562 53.9565 47.5699C54.2117 47.6938 54.4908 47.7611 54.7746 47.7672C55.0635 47.7564 55.3468 47.6847 55.6059 47.5567C55.8535 47.4239 56.066 47.2346 56.2261 47.0042C56.3548 46.8255 56.4364 46.6174 56.4636 46.3991C56.5078 46.1171 56.4852 45.8288 56.3976 45.5571Z" fill="#8D3FD0"/>
<path d="M57.4928 43.4128C57.3055 43.4373 57.1334 43.5288 57.0088 43.6704C56.8842 43.812 56.8155 43.994 56.8155 44.1824C56.8155 44.3708 56.8842 44.5527 57.0088 44.6943C57.1334 44.8359 57.3055 44.9275 57.4928 44.952C57.6802 44.9275 57.8522 44.8359 57.9769 44.6943C58.1015 44.5527 58.1702 44.3708 58.1702 44.1824C58.1702 43.994 58.1015 43.812 57.9769 43.6704C57.8522 43.5288 57.6802 43.4373 57.4928 43.4128Z" fill="#8D3FD0"/>
<path d="M52.7029 49.0301C52.5155 49.0546 52.3435 49.1462 52.2188 49.2878C52.0942 49.4294 52.0255 49.6113 52.0255 49.7997C52.0255 49.9881 52.0942 50.17 52.2188 50.3116C52.3435 50.4532 52.5155 50.5448 52.7029 50.5693C52.8902 50.5448 53.0623 50.4532 53.1869 50.3116C53.3115 50.17 53.3803 49.9881 53.3803 49.7997C53.3803 49.6113 53.3115 49.4294 53.1869 49.2878C53.0623 49.1462 52.8902 49.0546 52.7029 49.0301Z" fill="#8D3FD0"/>
<path d="M55.5531 49.6484C55.3466 49.6484 55.1486 49.7302 55.0026 49.8758C54.8566 50.0213 54.7746 50.2187 54.7746 50.4246C54.7746 50.6304 54.8566 50.8279 55.0026 50.9734C55.1486 51.119 55.3466 51.2008 55.5531 51.2008C55.7596 51.2008 55.9576 51.119 56.1036 50.9734C56.2496 50.8279 56.3316 50.6304 56.3316 50.4246C56.3316 50.2187 56.2496 50.0213 56.1036 49.8758C55.9576 49.7302 55.7596 49.6484 55.5531 49.6484Z" fill="#8D3FD0"/>
<path d="M53.8245 51.4639C53.6371 51.4883 53.4651 51.5799 53.3405 51.7215C53.2158 51.8631 53.1471 52.0451 53.1471 52.2335C53.1471 52.4218 53.2158 52.6038 53.3405 52.7454C53.4651 52.887 53.6371 52.9786 53.8245 53.0031C54.0119 52.9786 54.1839 52.887 54.3085 52.7454C54.4332 52.6038 54.5019 52.4218 54.5019 52.2335C54.5019 52.0451 54.4332 51.8631 54.3085 51.7215C54.1839 51.5799 54.0119 51.4883 53.8245 51.4639Z" fill="#8D3FD0"/>
<path opacity="0.31" d="M43.664 26.1529C40.9185 26.3568 38.3616 27.6219 36.5384 29.6785C36.3679 29.8594 36.2371 30.0736 36.1542 30.3075C36.0712 30.5415 36.038 30.7901 36.0566 31.0375C36.0752 31.2849 36.1453 31.5258 36.2623 31.7448C36.3793 31.9638 36.5407 32.1561 36.7363 32.3096C37.021 32.4991 37.3322 32.6454 37.66 32.7437C39.3886 33.4147 41.0512 31.9281 42.7403 31.2966C44.4293 30.6652 45.9072 31.6124 47.5698 30.902C47.895 30.7437 48.1781 30.5111 48.3959 30.223C48.6138 29.9349 48.7602 29.5996 48.8234 29.2444C49.3116 26.5212 45.8148 25.9161 43.664 26.1529Z" fill="#E23D69"/>
<path d="M41.7902 23.6797C41.3575 25.2753 41.2853 26.9467 41.5791 28.5735C41.8166 29.889 42.3048 31.7966 43.7827 32.2307C44.5612 32.4543 45.2474 32.086 46.0128 32.1386C46.5274 32.1386 47.0816 32.5201 47.0288 33.0989C46.976 33.6778 46.1975 34.0067 45.7093 34.1645C45.445 34.3039 45.1505 34.3768 44.8515 34.3768C44.5526 34.3768 44.2581 34.3039 43.9938 34.1645C43.8355 34.0194 43.6283 33.9388 43.4132 33.9388C43.1982 33.9388 42.9909 34.0194 42.8326 34.1645C42.6811 34.3193 42.5963 34.5271 42.5963 34.7434C42.5963 34.9597 42.6811 35.1674 42.8326 35.3222C43.5063 35.7825 44.3097 36.0166 45.126 35.9906C45.9423 35.9646 46.7291 35.6797 47.3719 35.1775C47.752 34.9781 48.0722 34.6818 48.2999 34.3187C48.5276 33.9557 48.6547 33.5389 48.6681 33.111C48.6815 32.683 48.5808 32.2591 48.3763 31.8826C48.1717 31.5061 47.8707 31.1904 47.5038 30.9678C46.7763 30.5401 45.9116 30.4082 45.0891 30.5994C44.7724 30.5994 44.3501 30.7967 44.0598 30.5994C43.8338 30.3748 43.6741 30.0927 43.598 29.7838C42.9401 27.9759 42.8571 26.0098 43.3605 24.1533C43.4182 23.9439 43.3902 23.7203 43.2825 23.5316C43.1749 23.3428 42.9964 23.2045 42.7864 23.1469C42.5765 23.0893 42.3521 23.1173 42.1628 23.2246C41.9735 23.3319 41.8347 23.5098 41.777 23.7191L41.7902 23.6797Z" fill="#FF7900"/>
<path d="M14.3567 31.0467C14.5688 30.8389 14.7984 30.6497 15.0429 30.481L15.3992 30.2705L15.5707 30.2574C15.5707 30.2574 15.8742 30.2574 15.6763 30.2574H15.8346C15.9006 30.2574 15.993 30.2574 15.8346 30.2574C15.896 30.2499 15.958 30.2499 16.0194 30.2574C16.0853 30.2574 16.1777 30.3232 16.0194 30.2574C16.0856 30.289 16.1477 30.3288 16.2041 30.3758C16.1117 30.2969 16.2041 30.3758 16.2041 30.3758V30.31V30.4416L16.4152 29.6522C15.0957 30.7968 13.4594 31.9939 13.565 33.9277C13.5615 34.3971 13.708 34.8553 13.9832 35.2361C14.2584 35.6169 14.648 35.9005 15.0957 36.0458C15.3266 36.101 15.5671 36.1038 15.7992 36.0539C16.0314 36.0039 16.2493 35.9026 16.4369 35.7573C16.6244 35.612 16.7768 35.4265 16.8827 35.2146C16.9886 35.0026 17.0453 34.7696 17.0486 34.5329C17.0387 34.3175 16.9476 34.1138 16.7934 33.9625C16.6393 33.8113 16.4335 33.7237 16.2173 33.7173C16.0003 33.7173 15.7922 33.8032 15.6388 33.9561C15.4854 34.1091 15.3992 34.3166 15.3992 34.5329C15.3992 34.6513 15.3992 34.5329 15.3992 34.5329C15.3992 34.5329 15.3992 34.3619 15.3992 34.4408C15.3992 34.5197 15.3992 34.4408 15.3992 34.4408C15.3992 34.4408 15.4915 34.4408 15.3992 34.4408H15.4783C15.4208 34.4204 15.3704 34.3839 15.3332 34.3356C15.2515 34.2089 15.2017 34.0645 15.188 33.9146C15.1714 33.6632 15.212 33.4114 15.3068 33.1779C15.6763 32.2175 16.7583 31.5203 17.55 30.7968C17.653 30.6932 17.7276 30.565 17.7669 30.4246C17.8061 30.2841 17.8087 30.136 17.7744 29.9943C17.6386 29.5818 17.3805 29.2201 17.0342 28.957C16.6878 28.6939 16.2695 28.5419 15.8346 28.5209C14.8232 28.6229 13.8843 29.0909 13.1955 29.8364C13.068 29.995 13.0035 30.1948 13.0141 30.3978C13.0247 30.6008 13.1098 30.7928 13.2531 30.9374C13.3965 31.0819 13.5881 31.1689 13.7916 31.1818C13.9951 31.1947 14.1962 31.1325 14.3567 31.0072V31.0467Z" fill="#FF7900"/>
</svg>
