<svg width="58" height="41" viewBox="0 0 58 41" fill="none" xmlns="http://www.w3.org/2000/svg">
<path d="M37.62 13.52C38.2113 13.7064 38.7193 14.0927 39.0569 14.6128C39.3944 15.1328 39.5405 15.7541 39.47 16.37C39.1963 17.1917 38.616 17.8759 37.85 18.28C35.7 17.99 33.57 17.51 31.44 17.1C31.8072 16.608 31.9972 16.0063 31.9791 15.3926C31.9609 14.7789 31.7357 14.1894 31.34 13.72C30.8969 13.2566 30.317 12.9474 29.6854 12.8376C29.0537 12.7278 28.4035 12.8233 27.83 13.11C27.4833 13.2942 27.1691 13.5341 26.9 13.82C26.7982 13.9628 26.6496 14.0654 26.48 14.11C26.2914 14.1101 26.1082 14.0467 25.96 13.93C25.5119 13.6683 24.9995 13.5372 24.4808 13.5516C23.9621 13.566 23.4578 13.7253 23.0249 14.0115C22.592 14.2976 22.2479 14.6992 22.0314 15.1708C21.8149 15.6424 21.7348 16.1652 21.8 16.68C19.8847 17.1323 17.916 17.3174 15.95 17.23C15.7243 16.9368 15.5789 16.5899 15.528 16.2234C15.4772 15.857 15.5227 15.4836 15.66 15.14C15.8953 14.6736 16.2555 14.2817 16.7004 14.008C17.1454 13.7343 17.6576 13.5896 18.18 13.59C17.9399 12.7278 17.9864 11.8109 18.3125 10.9774C18.6386 10.1439 19.2266 9.4389 19.988 8.96851C20.7494 8.49811 21.6431 8.2878 22.5344 8.36923C23.4257 8.45066 24.2664 8.81942 24.93 9.42001C25.1852 8.62475 25.643 7.90963 26.2584 7.34503C26.8739 6.78043 27.6257 6.38581 28.44 6.20001C29.258 6.03609 30.1023 6.05602 30.9117 6.25837C31.721 6.46072 32.4753 6.84042 33.12 7.37001C34.0766 8.11398 34.7305 9.18007 34.96 10.37C35.0678 10.9584 35.0333 11.5641 34.8593 12.1364C34.6854 12.7087 34.377 13.2311 33.96 13.66C35.1379 13.2452 36.4138 13.1964 37.62 13.52Z" fill="white"/>
<path d="M31.34 13.72C31.7357 14.1894 31.9609 14.7789 31.9791 15.3926C31.9972 16.0062 31.8072 16.608 31.44 17.1C28.7385 16.491 25.9622 16.2821 23.2 16.48C22.73 16.54 22.26 16.6 21.8 16.68C21.7291 16.1594 21.8071 15.6293 22.0251 15.1513C22.2431 14.6732 22.5921 14.2667 23.0317 13.9789C23.4713 13.691 23.9834 13.5337 24.5088 13.525C25.0341 13.5164 25.5512 13.6568 26 13.93C26.1482 14.0467 26.3314 14.1101 26.52 14.11C26.6896 14.0654 26.8382 13.9628 26.94 13.82C27.2091 13.5341 27.5233 13.2942 27.87 13.11C28.4388 12.8327 29.0807 12.7424 29.704 12.852C30.3272 12.9615 30.8999 13.2653 31.34 13.72Z" fill="#CEE5EF"/>
<path d="M12.49 17.19C12.4998 17.2797 12.4998 17.3703 12.49 17.46C12.3897 17.8738 12.4105 18.3077 12.55 18.71C12.774 19.3637 13.153 19.9535 13.6545 20.4289C14.156 20.9044 14.7652 21.2513 15.43 21.44C13.37 21.69 11.31 21.98 9.27 22.32C8.09471 22.3899 6.97757 22.8551 6.1 23.64C5.75386 24.0679 5.58239 24.6109 5.62 25.16C5.61811 25.4665 5.71408 25.7656 5.89393 26.0138C6.07379 26.262 6.32815 26.4463 6.62 26.54V26.67C6.32 26.74 6.01 26.83 5.71 26.93C5.07271 27.0984 4.49678 27.4453 4.05 27.93C3.92654 28.0833 3.82861 28.2555 3.76 28.44C3.22919 28.3151 2.75084 28.027 2.39212 27.6163C2.03341 27.2056 1.81236 26.6928 1.76 26.15C1.74504 26.0204 1.74504 25.8896 1.76 25.76C1.79819 25.2214 1.97378 24.7015 2.27 24.25C2.76036 23.5344 3.45842 22.9864 4.27 22.68C3.98029 22.3993 3.73121 22.0796 3.53 21.73C3.33133 21.4404 3.20808 21.1059 3.17141 20.7566C3.13474 20.4074 3.18581 20.0545 3.32 19.73C3.54327 19.3023 3.89228 18.9533 4.32 18.73C4.86761 18.4434 5.46958 18.2756 6.08651 18.2377C6.70343 18.1998 7.32141 18.2926 7.9 18.51C7.81534 17.8707 7.95559 17.2218 8.29674 16.6745C8.63789 16.1272 9.15871 15.7155 9.77 15.51C10.0589 15.4416 10.3585 15.4308 10.6515 15.4783C10.9446 15.5257 11.2255 15.6304 11.4781 15.7864C11.7307 15.9425 11.95 16.1467 12.1237 16.3875C12.2973 16.6284 12.4218 16.901 12.49 17.19Z" fill="white"/>
<path d="M4.63 30.32L4.57 30.46C3.80545 30.3389 3.05501 30.1412 2.33 29.87C1.40654 29.6158 0.619986 29.0088 0.139999 28.18C1.26511e-05 27.9057 -0.0490218 27.594 -8.90344e-07 27.29C0.0620282 27.0889 0.167685 26.9039 0.30943 26.7484C0.451174 26.5928 0.625511 26.4704 0.819999 26.39C1.14084 26.2648 1.47729 26.1841 1.82 26.15C1.87235 26.6928 2.09341 27.2056 2.45212 27.6163C2.81083 28.027 3.28919 28.3151 3.82 28.44C3.73243 28.6504 3.69498 28.8783 3.7106 29.1056C3.72622 29.333 3.79448 29.5536 3.91 29.75C4.08737 30.0079 4.33825 30.2065 4.63 30.32Z" fill="#ED7614"/>
<path d="M6 33.36C6.21966 33.6866 6.51913 33.9517 6.87 34.13C7.1558 34.292 7.45329 34.4324 7.76 34.55C6.75306 34.572 5.74682 34.4815 4.76 34.28C4.29244 34.2086 3.84177 34.0527 3.43 33.82C3.22286 33.7055 3.04144 33.5496 2.89695 33.3621C2.75247 33.1746 2.648 32.9595 2.59 32.73C2.55339 32.4179 2.59868 32.1016 2.72142 31.8123C2.84416 31.523 3.04011 31.2706 3.29 31.08C3.66807 30.7767 4.12034 30.5799 4.6 30.51V30.46L4.66 30.32C4.90698 30.4163 5.16108 30.4932 5.42 30.55C6.55223 30.8089 7.69709 31.0092 8.85 31.15V31.23C8.17684 31.1407 7.49215 31.2092 6.85 31.43C6.52455 31.5439 6.24787 31.7657 6.06595 32.0586C5.88402 32.3515 5.80782 32.6978 5.85 33.04C5.8806 33.1547 5.9314 33.2631 6 33.36Z" fill="#ED7614"/>
<path d="M12 36.83V36.89C12.0546 37.0926 12.183 37.2674 12.36 37.38C12.9662 37.86 13.6402 38.2475 14.36 38.53V38.59C12.5935 38.4229 10.8441 38.1085 9.13 37.65C8.63579 37.5494 8.17493 37.3259 7.79 37C7.59928 36.8427 7.45948 36.6324 7.38828 36.3957C7.31709 36.1589 7.31768 35.9064 7.39 35.67C7.62004 35.2498 8.00332 34.9346 8.46 34.79C9.64068 35.092 10.8517 35.2597 12.07 35.29L13.55 35.34C13.1165 35.5689 12.7134 35.8511 12.35 36.18C12.2476 36.2561 12.1631 36.3537 12.1026 36.466C12.0421 36.5784 12.0071 36.7026 12 36.83Z" fill="#ED7614"/>
<path d="M47.9 13.34C49.1877 14.2719 50.2195 15.5135 50.9 16.95C47.5483 18.1064 44.0138 18.6418 40.47 18.53C39.77 18.53 39.08 18.43 38.38 18.35V18.2C40.6805 17.4594 42.8754 16.4242 44.91 15.12L47.9 13.34Z" fill="#ED7614"/>
<path d="M22.53 24.36V24.74L9.46 26.24C8.51308 26.3335 7.57176 26.4771 6.64 26.67V26.54C6.34814 26.4463 6.09378 26.262 5.91393 26.0138C5.73408 25.7656 5.63811 25.4665 5.64 25.16C11.26 24.66 16.9 24.39 22.53 24.36Z" fill="#FF9E10"/>
<path d="M22.24 30.11C21.2298 30.9062 20.0247 31.4173 18.75 31.59C14.5544 32.5213 10.2906 33.1132 6 33.36C5.91978 33.2526 5.86197 33.1302 5.83 33C5.78782 32.6578 5.86403 32.3114 6.04595 32.0186C6.22787 31.7257 6.50455 31.5038 6.83 31.39C7.47215 31.1692 8.15684 31.1007 8.83 31.19V31.11C13.322 31.6727 17.8812 31.3328 22.24 30.11Z" fill="#FF9E10"/>
<path d="M25.31 34.47C21.24 36.47 16.54 36.73 11.97 36.83C11.9821 36.7019 12.0224 36.578 12.0881 36.4673C12.1538 36.3566 12.2433 36.2619 12.35 36.19C12.7134 35.8611 13.1166 35.5789 13.55 35.35C17.4894 35.4424 21.4283 35.1477 25.31 34.47Z" fill="#FF9E10"/>
<path d="M50.86 17C51.76 16.7133 52.65 16.38 53.53 16C56.5816 19.7064 58.0413 24.4703 57.59 29.25C54.276 29.7647 51.0182 30.5917 47.86 31.72C42.31 33.84 37.4 37.5 31.7 39.15C26.7546 40.4829 21.5476 40.507 16.59 39.22C15.831 39.0481 15.0857 38.8209 14.36 38.54C13.6402 38.2575 12.9662 37.87 12.36 37.39C12.183 37.2774 12.0546 37.1026 12 36.9V36.84C16.57 36.74 21.27 36.5 25.34 34.48C21.4583 35.1577 17.5194 35.4524 13.58 35.36L12.1 35.31C10.8817 35.2797 9.67068 35.112 8.49 34.81C8.2385 34.7417 7.99138 34.6582 7.75 34.56C7.44329 34.4423 7.1458 34.302 6.86 34.14C6.5116 33.9575 6.21558 33.689 6 33.36C10.3102 33.123 14.5942 32.5378 18.81 31.61C20.0846 31.4373 21.2898 30.9262 22.3 30.13C17.938 31.3541 13.3753 31.6941 8.88 31.13C7.72709 30.9892 6.58223 30.7889 5.45 30.53C5.19108 30.4732 4.93698 30.3963 4.69 30.3C4.38357 30.1936 4.11791 29.9944 3.93 29.73C3.81448 29.5336 3.74622 29.313 3.7306 29.0856C3.71498 28.8583 3.75243 28.6304 3.84 28.42C3.90861 28.2355 4.00653 28.0633 4.13 27.91C4.57678 27.4253 5.15271 27.0784 5.79 26.91C6.09 26.81 6.4 26.72 6.7 26.65C7.63176 26.4571 8.57308 26.3135 9.52 26.22L22.6 24.72V24.34C16.97 24.34 11.33 24.64 5.72 25.14C5.68239 24.5909 5.85386 24.0479 6.2 23.62C7.06172 22.8567 8.15159 22.3997 9.3 22.32C11.3 21.98 13.4 21.69 15.46 21.44C18.34 21.09 21.23 20.84 24.13 20.67C21.2834 20.5948 18.4661 20.0752 15.78 19.13C14.5833 18.7823 13.4865 18.155 12.58 17.3C12.6741 17.0667 12.8526 16.8775 13.08 16.77C13.5995 16.6277 14.1537 16.6885 14.63 16.94C15.0608 17.0746 15.5024 17.1717 15.95 17.23C17.916 17.3174 19.8847 17.1323 21.8 16.68C22.26 16.6 22.73 16.54 23.2 16.48C25.9622 16.2821 28.7385 16.491 31.44 17.1C33.57 17.51 35.7 17.99 37.85 18.28L38.34 18.35C39.04 18.43 39.73 18.49 40.43 18.53C43.9707 18.6579 47.5052 18.1394 50.86 17Z" fill="#FFC33E"/>
<path d="M19.15 3.85001C19.4689 3.84803 19.7811 3.94077 20.0472 4.11647C20.3133 4.29217 20.5212 4.54292 20.6446 4.83693C20.768 5.13093 20.8013 5.45496 20.7403 5.76793C20.6793 6.08089 20.5267 6.3687 20.302 6.59487C20.0772 6.82103 19.7904 6.97536 19.4778 7.0383C19.1652 7.10124 18.841 7.06994 18.5462 6.94839C18.2514 6.82683 17.9994 6.62048 17.822 6.35551C17.6447 6.09053 17.55 5.77886 17.55 5.46001C17.5487 5.24905 17.5891 5.03992 17.6689 4.84464C17.7487 4.64937 17.8664 4.4718 18.0151 4.32217C18.1638 4.17253 18.3406 4.05378 18.5354 3.97275C18.7302 3.89172 18.939 3.85 19.15 3.85001Z" fill="white"/>
<path d="M24.13 20.67C21.23 20.84 18.34 21.09 15.46 21.44C14.7952 21.2513 14.186 20.9043 13.6845 20.4289C13.183 19.9535 12.804 19.3637 12.58 18.71C12.4405 18.3077 12.4197 17.8738 12.52 17.46L12.58 17.3C13.4865 18.155 14.5833 18.7823 15.78 19.13C18.4661 20.0752 21.2834 20.5948 24.13 20.67Z" fill="#FF9E10"/>
<path d="M15.94 5.52216e-07C16.2588 -0.0019799 16.5711 0.090759 16.8372 0.26646C17.1032 0.442161 17.3112 0.692911 17.4346 0.98692C17.5579 1.28093 17.5913 1.60496 17.5303 1.91792C17.4693 2.23089 17.3167 2.5187 17.092 2.74486C16.8672 2.97102 16.5804 3.12536 16.2678 3.18829C15.9552 3.25123 15.631 3.21994 15.3362 3.09838C15.0414 2.97682 14.7894 2.77047 14.612 2.5055C14.4347 2.24052 14.34 1.92885 14.34 1.61C14.3387 1.39905 14.3791 1.18991 14.4589 0.994636C14.5387 0.799359 14.6564 0.621794 14.8051 0.47216C14.9538 0.322525 15.1306 0.203775 15.3254 0.122743C15.5202 0.0417107 15.729 -3.56812e-06 15.94 5.52216e-07Z" fill="white"/>
<path d="M12.72 6.09001C13.4447 6.08803 14.1537 6.30126 14.7571 6.70266C15.3606 7.10407 15.8312 7.67558 16.1095 8.34476C16.3877 9.01395 16.461 9.75068 16.3201 10.4616C16.1792 11.1725 15.8305 11.8255 15.318 12.338C14.8055 12.8505 14.1525 13.1993 13.4416 13.3402C12.7307 13.4811 11.9939 13.4077 11.3248 13.1295C10.6556 12.8512 10.0841 12.3806 9.68265 11.7772C9.28125 11.1737 9.06802 10.4647 9.07 9.74001C9.07 8.77197 9.45455 7.84358 10.1391 7.15907C10.8236 6.47456 11.752 6.09001 12.72 6.09001Z" fill="white"/>
</svg>
