<svg width="45" height="54" viewBox="0 0 45 54" fill="none" xmlns="http://www.w3.org/2000/svg">
<path d="M40.67 26.81C40.4535 30.564 39.5661 34.2489 38.05 37.69C38.05 37.69 38.05 37.77 37.99 37.8C37.7466 38.2174 37.4761 38.6182 37.18 39C36.0644 40.4622 34.4725 41.4881 32.68 41.9C31.83 42.1 31.19 41.67 30.33 41.54C26.686 40.876 23.1204 39.8371 19.69 38.44C19.7676 39.978 20.1339 41.4876 20.77 42.89C18.2556 42.8003 15.758 42.4416 13.32 41.82L13.1 41.76C13.4533 39.66 13.7533 37.55 14 35.43L14.3 35.34L14.09 34.65C14.25 33.24 14.38 31.83 14.5 30.42C14.1347 30.5268 13.7515 30.5589 13.3735 30.5142C12.9955 30.4695 12.6304 30.3491 12.3 30.16C11.6216 29.7789 11.0239 29.2694 10.54 28.66C9.67974 27.7413 9.03721 26.6408 8.66 25.44C8.47236 24.8396 8.4181 24.2055 8.50101 23.5819C8.58392 22.9584 8.80199 22.3605 9.14 21.83C9.495 21.3124 10.0034 20.9192 10.5936 20.7058C11.1838 20.4923 11.826 20.4693 12.43 20.64C13.0536 20.9173 13.6071 21.3308 14.05 21.85C14.3854 22.1896 14.7025 22.5467 15 22.92C15.1514 23.0099 15.3084 23.09 15.47 23.16L15.81 22.5C23.4845 18.9482 30.1649 13.5592 35.26 6.81L35.44 6.93C38.6139 12.52 40.4069 18.7872 40.67 25.21C40.69 25.74 40.69 26.28 40.67 26.81Z" fill="#FFC33E"/>
<path d="M33.8 41.66V41.8C34.3696 41.651 34.9738 41.7112 35.5029 41.9697C36.0319 42.2283 36.4506 42.668 36.683 43.209C36.9154 43.75 36.946 44.3565 36.7693 44.9181C36.5926 45.4798 36.2203 45.9595 35.72 46.27C37.0527 46.8415 38.1378 47.8699 38.78 49.17C39.1172 49.7537 39.2175 50.4446 39.06 51.1C39.0205 51.2354 38.9598 51.3637 38.88 51.48C33.53 53.66 27.51 54 21.67 53.74C18.2115 53.6832 14.7754 53.1722 11.45 52.22C11.2008 51.9702 10.9917 51.6835 10.83 51.37C10.6683 51.0568 10.5602 50.7188 10.51 50.37C10.431 49.6271 10.6027 48.879 10.9977 48.2449C11.3927 47.6107 11.9884 47.1268 12.69 46.87C12.2562 46.514 11.906 46.067 11.6641 45.5607C11.4222 45.0544 11.2945 44.5011 11.29 43.94C11.3112 43.4378 11.5 42.9571 11.8262 42.5747C12.1525 42.1923 12.5974 41.9301 13.09 41.83C13.1663 41.8202 13.2436 41.8202 13.32 41.83C15.758 42.4516 18.2556 42.8103 20.77 42.9C24.7656 43.0404 28.7637 42.7047 32.68 41.9L33.8 41.66Z" fill="#7D57C9"/>
<path d="M15 23H15.06L15.84 22.65C19.2267 24.03 22.56 25.5467 25.84 27.2C25.77 27.49 25.7 27.77 25.64 28.06V28.19C22.02 26.5233 18.4733 24.7933 15 23Z" fill="#549B97"/>
<path d="M14.09 34.64L14 35.42C13.7533 37.54 13.4533 39.65 13.1 41.75C13.0943 41.7764 13.0943 41.8036 13.1 41.83C12.6074 41.9301 12.1625 42.1923 11.8362 42.5747C11.51 42.9571 11.3212 43.4378 11.3 43.94C11.3045 44.5011 11.4322 45.0544 11.6741 45.5607C11.916 46.067 12.2663 46.514 12.7 46.87C11.9984 47.1268 11.4027 47.6107 11.0077 48.2449C10.6127 48.879 10.441 49.6271 10.52 50.37C10.5702 50.7188 10.6783 51.0568 10.84 51.37C9.82133 51.338 8.8217 51.0856 7.91 50.63C6.16 49.7 4.96 47.44 5.84 45.63C3.14 44.42 0.5 42.34 0.0699996 39.42C-0.27 37.19 0.76 35 2 33.07C3.24 31.14 4.68 29.35 5.33 27.19C6.09 24.65 5.67 21.93 5.77 19.29C5.91986 15.9887 6.86793 12.773 8.53294 9.91848C10.198 7.06392 12.5303 4.65563 15.33 2.9C18.1728 1.19415 21.3878 0.205381 24.6979 0.018972C28.0079 -0.167437 31.3137 0.454105 34.33 1.83C35.8633 2.51299 37.249 3.48777 38.41 4.7C40.89 7.38 41.64 11.22 41.82 14.86C42.042 18.3455 41.6803 21.8436 40.75 25.21H40.67C40.4069 18.7872 38.6139 12.52 35.44 6.93L35.26 6.81C30.1741 13.5676 23.5005 18.967 15.83 22.53L15.05 22.88H14.99C14.6961 22.5036 14.3823 22.1431 14.05 21.8C13.6071 21.2808 13.0536 20.8673 12.43 20.59C11.826 20.4193 11.1838 20.4423 10.5936 20.6558C10.0034 20.8692 9.495 21.2624 9.14 21.78C8.80199 22.3105 8.58392 22.9084 8.50101 23.5319C8.4181 24.1555 8.47236 24.7896 8.66 25.39C9.03721 26.5908 9.67974 27.6913 10.54 28.61C11.0239 29.2194 11.6216 29.7289 12.3 30.11C12.6304 30.2991 12.9955 30.4195 13.3735 30.4642C13.7515 30.5089 14.1347 30.4768 14.5 30.37C14.38 31.82 14.25 33.23 14.09 34.64Z" fill="#090E3F"/>
<path d="M37.07 24.12C37.34 24.25 37.66 24.46 37.66 24.77C37.6594 24.8595 37.6315 24.9468 37.58 25.02C36.3525 24.8613 35.1174 24.7679 33.88 24.74C33.11 24.74 32.34 24.74 31.56 24.74C31.56 23.67 31.79 22.56 31.86 21.48L37.07 24.12Z" fill="#FF7900"/>
<path d="M41 33.94C41.1715 33.4774 41.3085 33.0028 41.41 32.52C43.0086 34.6092 44.0635 37.0626 44.48 39.66C44.6163 40.9726 44.4865 42.2991 44.0981 43.5603C43.7098 44.8215 43.071 45.9914 42.22 47C41.3502 48.0859 40.155 48.864 38.81 49.22C38.1678 47.9198 37.0827 46.8915 35.75 46.32C36.2503 46.0095 36.6226 45.5298 36.7993 44.9681C36.976 44.4065 36.9454 43.8 36.713 43.259C36.4806 42.718 36.0619 42.2783 35.5329 42.0197C35.0038 41.7612 34.3996 41.7009 33.83 41.85C33.4453 41.8583 33.0613 41.8883 32.68 41.94C34.4725 41.5281 36.0644 40.5022 37.18 39.04C37.481 38.6456 37.7549 38.2313 38 37.8C39.1687 37.2164 40.078 36.2181 40.55 35C40.72 34.67 40.87 34.31 41 33.94Z" fill="#090E3F"/>
<path d="M41.42 32.52C41.3153 33.0031 41.1749 33.4777 41 33.94C40.54 33.88 40.08 33.84 39.62 33.81C34.76 33.37 29.88 33.16 25 33.15H24.92C24.92 32.93 24.92 32.7 24.92 32.48C24.92 31.9333 24.97 31.3833 25.07 30.83C25.1839 29.9019 25.3475 28.9806 25.56 28.07V27.94C27.99 27.84 30.43 27.78 32.87 27.8C35.31 27.82 38.01 27.86 40.57 28H41.18C41.3761 28.5489 41.5037 29.1199 41.56 29.7C41.6679 30.6413 41.6206 31.594 41.42 32.52Z" fill="#8CEAE7"/>
<path d="M41 33.94C40.86 34.31 40.71 34.67 40.54 35.02C40.0662 36.2289 39.1613 37.2193 38 37.8L25.4 36.85C25.06 35.6468 24.8983 34.4002 24.92 33.15H25C29.88 33.15 34.76 33.37 39.62 33.81C40.09 33.84 40.55 33.88 41 33.94Z" fill="#ACFCF8"/>
<path d="M41.23 28C38.67 27.86 35.49 27.75 32.92 27.76C30.35 27.77 28.04 27.76 25.61 27.9C25.67 27.61 25.74 27.33 25.81 27.04C25.95 26.47 26.1 25.91 26.25 25.36H26.3C28.0343 25.0121 29.7929 24.7982 31.56 24.72C32.34 24.72 33.11 24.67 33.88 24.72C35.1174 24.7479 36.3525 24.8413 37.58 25C38.21 25.08 38.83 25.18 39.45 25.3C39.9342 25.7277 40.3462 26.2309 40.67 26.79C40.9746 27.1275 41.1699 27.5494 41.23 28Z" fill="#ACFCF8"/>
<path d="M32.77 41.76L32.68 41.89C28.7637 42.6947 24.7656 43.0304 20.77 42.89C20.1293 41.4892 19.7627 39.9787 19.69 38.44C23.1204 39.8371 26.686 40.876 30.33 41.54L32.68 41.9L32.77 41.76Z" fill="#FF9E10"/>
<path d="M25.09 30.83C25.0167 31.3833 24.9667 31.9333 24.94 32.48C21.25 33.29 17.6 34.28 14 35.42L14.09 34.64C17.79 33.46 21.4567 32.19 25.09 30.83Z" fill="#549B97"/>
<path d="M40.09 16.07C39.7762 15.6832 39.3498 15.4036 38.87 15.27C38.0436 14.9843 37.142 15.0056 36.33 15.33C35.82 15.54 35.26 15.87 35.22 16.49C35.2081 16.6283 35.2291 16.7674 35.2812 16.896C35.3334 17.0246 35.4152 17.1391 35.52 17.23C35.6441 17.3347 35.7917 17.4076 35.9503 17.4425C36.1088 17.4773 36.2735 17.473 36.43 17.43C36.67 17.43 36.9 17.31 37.14 17.26H37.25C37.25 17.26 37.25 17.26 37.31 17.26H37.44H37.83C38.0651 17.2599 38.2996 17.2834 38.53 17.33C38.7854 17.3837 39.0361 17.4572 39.28 17.55C39.3562 17.5727 39.4361 17.5797 39.5151 17.5707C39.594 17.5617 39.6703 17.5368 39.7395 17.4976C39.8086 17.4584 39.869 17.4056 39.9172 17.3424C39.9654 17.2793 40.0004 17.207 40.02 17.13C40.1538 16.9894 40.234 16.8063 40.2468 16.6127C40.2596 16.419 40.2041 16.227 40.09 16.07Z" fill="#090E3F"/>
<path d="M23.62 16.32C23.9387 15.9339 24.3679 15.6547 24.85 15.52C25.6722 15.2294 26.5725 15.2508 27.38 15.58C27.89 15.79 28.45 16.11 28.5 16.73C28.5096 16.868 28.4875 17.0064 28.4355 17.1347C28.3835 17.2629 28.303 17.3776 28.2 17.47C28.0725 17.5723 27.9235 17.6444 27.7642 17.6808C27.6048 17.7172 27.4393 17.7169 27.28 17.68C27.04 17.68 26.82 17.56 26.58 17.51H26.46C26.46 17.51 26.46 17.51 26.41 17.51H26.28H25.88C25.6482 17.5098 25.417 17.5333 25.19 17.58C24.9313 17.6334 24.6772 17.707 24.43 17.8C24.2775 17.8433 24.1141 17.8244 23.9755 17.7476C23.8368 17.6708 23.7342 17.5422 23.69 17.39V17.33C23.5653 17.1946 23.4905 17.0209 23.4778 16.8373C23.465 16.6537 23.5152 16.4713 23.62 16.32Z" fill="#090E3F"/>
<path d="M27.28 19.61C27.28 19.9027 27.1932 20.1889 27.0306 20.4322C26.868 20.6756 26.6368 20.8653 26.3664 20.9773C26.0959 21.0894 25.7984 21.1187 25.5113 21.0616C25.2242 21.0045 24.9605 20.8635 24.7535 20.6565C24.5465 20.4495 24.4056 20.1858 24.3484 19.8987C24.2913 19.6116 24.3206 19.3141 24.4327 19.0436C24.5447 18.7732 24.7344 18.5421 24.9778 18.3794C25.2211 18.2168 25.5073 18.13 25.8 18.13C26.1925 18.13 26.569 18.2859 26.8465 18.5635C27.1241 18.841 27.28 19.2175 27.28 19.61Z" fill="#090E3F"/>
<path d="M39.2 19.25C39.2 19.5427 39.1132 19.8288 38.9506 20.0722C38.7879 20.3156 38.5568 20.5053 38.2864 20.6173C38.0159 20.7293 37.7184 20.7587 37.4313 20.7016C37.1442 20.6444 36.8805 20.5035 36.6735 20.2965C36.4665 20.0895 36.3255 19.8258 36.2684 19.5387C36.2113 19.2516 36.2406 18.9541 36.3526 18.6836C36.4647 18.4132 36.6544 18.182 36.8977 18.0194C37.1411 17.8568 37.4273 17.77 37.72 17.77C38.1125 17.77 38.489 17.9259 38.7665 18.2035C39.0441 18.481 39.2 18.8575 39.2 19.25Z" fill="#090E3F"/>
</svg>
